{"glyphs":{"0":{"ha":860,"x_min":76,"x_max":783,"o":"m 429 -11 q 174 126 271 -11 q 76 483 76 263 q 173 839 76 704 q 429 974 269 974 q 686 839 589 974 q 783 483 783 704 q 686 125 783 261 q 429 -11 589 -11 m 429 38 q 606 154 546 38 q 665 483 665 271 q 606 810 665 694 q 429 925 546 925 q 254 810 314 925 q 194 483 194 694 q 254 154 194 271 q 429 38 314 38 z "},"1":{"ha":438,"x_min":35,"x_max":358,"o":"m 285 219 q 299 53 285 92 q 358 0 313 14 l 107 0 q 153 26 139 8 q 175 86 168 43 q 182 219 182 129 l 182 614 q 154 805 182 761 q 35 850 126 849 q 94 873 67 861 q 151 901 121 885 q 192 923 181 917 q 240 950 204 929 q 279 974 275 971 l 285 974 l 285 219 z "},"2":{"ha":735,"x_min":53,"x_max":668,"o":"m 367 89 q 588 110 533 89 q 668 208 642 132 l 661 0 l 53 0 l 53 19 q 310 289 218 182 q 458 508 401 396 q 515 726 515 621 q 470 878 515 831 q 356 925 425 925 q 194 858 271 925 q 79 644 118 792 l 92 892 q 364 974 215 974 q 562 917 490 974 q 633 757 633 861 q 175 89 633 510 l 367 89 z "},"3":{"ha":753,"x_min":79,"x_max":693,"o":"m 289 582 q 579 529 465 618 q 693 301 693 440 q 600 83 693 178 q 349 -11 507 -11 q 203 8 279 -11 q 79 67 126 28 l 79 300 q 188 98 111 158 q 353 38 264 38 q 514 109 453 38 q 575 303 575 181 q 477 515 575 457 q 211 518 379 572 l 200 556 l 543 878 l 321 878 q 93 760 122 878 l 96 965 l 638 965 l 638 910 l 289 582 z "},"4":{"ha":778,"x_min":38,"x_max":739,"o":"m 721 226 l 604 226 l 604 219 q 618 53 604 92 q 678 0 632 14 l 426 0 q 473 26 458 8 q 494 86 488 43 q 501 219 501 129 l 501 226 l 38 226 l 38 246 l 576 965 l 576 964 l 578 965 l 604 965 l 604 304 l 739 304 l 721 226 m 135 304 l 501 304 l 501 797 l 135 304 z "},"5":{"ha":761,"x_min":94,"x_max":699,"o":"m 360 589 q 601 514 503 589 q 699 310 699 439 q 602 85 699 181 q 349 -11 506 -11 q 94 67 189 -11 l 101 238 q 351 36 174 36 q 517 108 454 36 q 579 303 579 181 q 519 480 579 419 q 350 540 460 540 q 151 461 213 540 l 126 482 l 161 965 l 653 965 l 643 842 q 582 875 624 867 q 439 883 540 883 l 199 883 l 174 536 q 360 589 246 589 z "},"6":{"ha":826,"x_min":76,"x_max":744,"o":"m 435 596 q 656 519 568 596 q 744 313 744 442 q 654 82 744 175 q 429 -11 564 -11 q 172 124 268 -11 q 76 485 76 258 q 176 841 76 708 q 453 974 275 974 q 693 911 592 974 l 688 753 q 446 925 585 925 q 263 813 329 925 q 194 494 197 700 q 435 596 278 596 m 429 38 q 578 107 522 38 q 635 297 635 176 q 574 483 635 417 q 421 549 514 549 q 288 515 349 549 q 194 429 226 482 q 429 38 208 38 z "},"7":{"ha":661,"x_min":61,"x_max":617,"o":"m 617 921 l 496 558 q 383 0 374 193 l 231 0 q 467 608 321 171 l 557 878 l 282 878 q 156 858 204 878 q 94 819 108 839 q 61 760 79 799 l 71 965 l 617 965 l 617 921 z "},"8":{"ha":758,"x_min":65,"x_max":694,"o":"m 468 531 q 635 419 575 479 q 694 260 694 358 q 610 66 694 143 q 379 -11 526 -11 q 151 61 238 -11 q 65 247 65 133 q 119 408 65 336 q 274 518 172 479 q 153 612 196 560 q 110 742 110 664 q 185 910 110 846 q 382 974 261 974 q 572 915 500 974 q 644 760 644 856 q 594 625 644 683 q 468 531 543 567 m 199 768 q 215 697 199 729 q 268 639 232 665 q 334 596 304 613 q 418 554 364 579 q 567 751 567 624 q 521 873 567 821 q 381 925 475 925 q 247 881 296 925 q 199 768 199 836 m 383 38 q 547 91 485 38 q 610 229 610 144 q 602 287 610 260 q 575 337 594 314 q 540 376 556 360 q 490 410 525 392 q 439 439 456 429 q 378 468 422 449 q 321 494 335 488 q 144 254 144 425 q 211 96 144 154 q 383 38 278 38 z "},"9":{"ha":835,"x_min":90,"x_max":758,"o":"m 413 974 q 665 843 571 974 q 758 490 758 713 q 660 125 758 261 q 385 -11 563 -11 q 111 82 226 -11 l 117 243 q 381 38 217 38 q 573 154 506 38 q 640 483 640 271 q 400 382 557 382 q 178 461 265 382 q 90 671 90 540 q 181 890 90 807 q 413 974 271 974 m 414 429 q 547 463 486 429 q 639 547 607 496 q 413 925 625 925 q 256 859 313 925 q 200 672 200 793 q 260 491 200 553 q 414 429 319 429 z "},"²":{"ha":718,"x_min":42,"x_max":676,"o":"m 304 172 q 113 252 183 172 q 42 451 42 332 q 116 655 42 572 q 311 738 190 738 q 428 721 381 738 l 408 594 q 314 614 354 614 q 208 570 246 614 q 171 456 171 526 q 208 342 171 386 q 314 299 244 299 q 404 315 354 299 l 428 193 q 304 172 389 172 m 651 526 q 638 513 651 526 q 589 500 625 500 q 527 526 553 500 q 501 588 501 553 q 527 650 501 624 q 589 676 553 676 q 651 650 625 676 q 676 588 676 624 q 651 526 676 553 m 651 241 q 638 228 651 241 q 589 215 625 215 q 527 241 553 215 q 501 303 501 267 q 527 365 501 339 q 589 390 553 390 q 651 365 625 390 q 676 303 676 339 q 651 241 676 267 z "},"³":{"ha":718,"x_min":42,"x_max":676,"o":"m 304 172 q 113 252 183 172 q 42 451 42 332 q 116 655 42 572 q 311 738 190 738 q 428 721 381 738 l 408 594 q 314 614 354 614 q 208 570 246 614 q 171 456 171 526 q 208 342 171 386 q 314 299 244 299 q 404 315 354 299 l 428 193 q 304 172 389 172 m 651 526 q 638 513 651 526 q 589 500 625 500 q 527 526 553 500 q 501 588 501 553 q 527 650 501 624 q 589 676 553 676 q 651 650 625 676 q 676 588 676 624 q 651 526 676 553 m 651 241 q 638 228 651 241 q 589 215 625 215 q 527 241 553 215 q 501 303 501 267 q 527 365 501 339 q 589 390 553 390 q 651 365 625 390 q 676 303 676 339 q 651 241 676 267 z "},"´":{"ha":718,"x_min":42,"x_max":676,"o":"m 304 172 q 113 252 183 172 q 42 451 42 332 q 116 655 42 572 q 311 738 190 738 q 428 721 381 738 l 408 594 q 314 614 354 614 q 208 570 246 614 q 171 456 171 526 q 208 342 171 386 q 314 299 244 299 q 404 315 354 299 l 428 193 q 304 172 389 172 m 651 526 q 638 513 651 526 q 589 500 625 500 q 527 526 553 500 q 501 588 501 553 q 527 650 501 624 q 589 676 553 676 q 651 650 625 676 q 676 588 676 624 q 651 526 676 553 m 651 241 q 638 228 651 241 q 589 215 625 215 q 527 241 553 215 q 501 303 501 267 q 527 365 501 339 q 589 390 553 390 q 651 365 625 390 q 676 303 676 339 q 651 241 676 267 z "},"¸":{"ha":718,"x_min":42,"x_max":676,"o":"m 304 172 q 113 252 183 172 q 42 451 42 332 q 116 655 42 572 q 311 738 190 738 q 428 721 381 738 l 408 594 q 314 614 354 614 q 208 570 246 614 q 171 456 171 526 q 208 342 171 386 q 314 299 244 299 q 404 315 354 299 l 428 193 q 304 172 389 172 m 651 526 q 638 513 651 526 q 589 500 625 500 q 527 526 553 500 q 501 588 501 553 q 527 650 501 624 q 589 676 553 676 q 651 650 625 676 q 676 588 676 624 q 651 526 676 553 m 651 241 q 638 228 651 241 q 589 215 625 215 q 527 241 553 215 q 501 303 501 267 q 527 365 501 339 q 589 390 553 390 q 651 365 625 390 q 676 303 676 339 q 651 241 676 267 z "},"¹":{"ha":718,"x_min":42,"x_max":676,"o":"m 304 172 q 113 252 183 172 q 42 451 42 332 q 116 655 42 572 q 311 738 190 738 q 428 721 381 738 l 408 594 q 314 614 354 614 q 208 570 246 614 q 171 456 171 526 q 208 342 171 386 q 314 299 244 299 q 404 315 354 299 l 428 193 q 304 172 389 172 m 651 526 q 638 513 651 526 q 589 500 625 500 q 527 526 553 500 q 501 588 501 553 q 527 650 501 624 q 589 676 553 676 q 651 650 625 676 q 676 588 676 624 q 651 526 676 553 m 651 241 q 638 228 651 241 q 589 215 625 215 q 527 241 553 215 q 501 303 501 267 q 527 365 501 339 q 589 390 553 390 q 651 365 625 390 q 676 303 676 339 q 651 241 676 267 z "},"Ǳ":{"ha":718,"x_min":42,"x_max":676,"o":"m 304 172 q 113 252 183 172 q 42 451 42 332 q 116 655 42 572 q 311 738 190 738 q 428 721 381 738 l 408 594 q 314 614 354 614 q 208 570 246 614 q 171 456 171 526 q 208 342 171 386 q 314 299 244 299 q 404 315 354 299 l 428 193 q 304 172 389 172 m 651 526 q 638 513 651 526 q 589 500 625 500 q 527 526 553 500 q 501 588 501 553 q 527 650 501 624 q 589 676 553 676 q 651 650 625 676 q 676 588 676 624 q 651 526 676 553 m 651 241 q 638 228 651 241 q 589 215 625 215 q 527 241 553 215 q 501 303 501 267 q 527 365 501 339 q 589 390 553 390 q 651 365 625 390 q 676 303 676 339 q 651 241 676 267 z "},"ǲ":{"ha":718,"x_min":42,"x_max":676,"o":"m 304 172 q 113 252 183 172 q 42 451 42 332 q 116 655 42 572 q 311 738 190 738 q 428 721 381 738 l 408 594 q 314 614 354 614 q 208 570 246 614 q 171 456 171 526 q 208 342 171 386 q 314 299 244 299 q 404 315 354 299 l 428 193 q 304 172 389 172 m 651 526 q 638 513 651 526 q 589 500 625 500 q 527 526 553 500 q 501 588 501 553 q 527 650 501 624 q 589 676 553 676 q 651 650 625 676 q 676 588 676 624 q 651 526 676 553 m 651 241 q 638 228 651 241 q 589 215 625 215 q 527 241 553 215 q 501 303 501 267 q 527 365 501 339 q 589 390 553 390 q 651 365 625 390 q 676 303 676 339 q 651 241 676 267 z "},"ǳ":{"ha":718,"x_min":42,"x_max":676,"o":"m 304 172 q 113 252 183 172 q 42 451 42 332 q 116 655 42 572 q 311 738 190 738 q 428 721 381 738 l 408 594 q 314 614 354 614 q 208 570 246 614 q 171 456 171 526 q 208 342 171 386 q 314 299 244 299 q 404 315 354 299 l 428 193 q 304 172 389 172 m 651 526 q 638 513 651 526 q 589 500 625 500 q 527 526 553 500 q 501 588 501 553 q 527 650 501 624 q 589 676 553 676 q 651 650 625 676 q 676 588 676 624 q 651 526 676 553 m 651 241 q 638 228 651 241 q 589 215 625 215 q 527 241 553 215 q 501 303 501 267 q 527 365 501 339 q 589 390 553 390 q 651 365 625 390 q 676 303 676 339 q 651 241 676 267 z "},"̂":{"ha":718,"x_min":42,"x_max":676,"o":"m 304 172 q 113 252 183 172 q 42 451 42 332 q 116 655 42 572 q 311 738 190 738 q 428 721 381 738 l 408 594 q 314 614 354 614 q 208 570 246 614 q 171 456 171 526 q 208 342 171 386 q 314 299 244 299 q 404 315 354 299 l 428 193 q 304 172 389 172 m 651 526 q 638 513 651 526 q 589 500 625 500 q 527 526 553 500 q 501 588 501 553 q 527 650 501 624 q 589 676 553 676 q 651 650 625 676 q 676 588 676 624 q 651 526 676 553 m 651 241 q 638 228 651 241 q 589 215 625 215 q 527 241 553 215 q 501 303 501 267 q 527 365 501 339 q 589 390 553 390 q 651 365 625 390 q 676 303 676 339 q 651 241 676 267 z "},"̅":{"ha":718,"x_min":42,"x_max":676,"o":"m 304 172 q 113 252 183 172 q 42 451 42 332 q 116 655 42 572 q 311 738 190 738 q 428 721 381 738 l 408 594 q 314 614 354 614 q 208 570 246 614 q 171 456 171 526 q 208 342 171 386 q 314 299 244 299 q 404 315 354 299 l 428 193 q 304 172 389 172 m 651 526 q 638 513 651 526 q 589 500 625 500 q 527 526 553 500 q 501 588 501 553 q 527 650 501 624 q 589 676 553 676 q 651 650 625 676 q 676 588 676 624 q 651 526 676 553 m 651 241 q 638 228 651 241 q 589 215 625 215 q 527 241 553 215 q 501 303 501 267 q 527 365 501 339 q 589 390 553 390 q 651 365 625 390 q 676 303 676 339 q 651 241 676 267 z "},"̈":{"ha":718,"x_min":42,"x_max":676,"o":"m 304 172 q 113 252 183 172 q 42 451 42 332 q 116 655 42 572 q 311 738 190 738 q 428 721 381 738 l 408 594 q 314 614 354 614 q 208 570 246 614 q 171 456 171 526 q 208 342 171 386 q 314 299 244 299 q 404 315 354 299 l 428 193 q 304 172 389 172 m 651 526 q 638 513 651 526 q 589 500 625 500 q 527 526 553 500 q 501 588 501 553 q 527 650 501 624 q 589 676 553 676 q 651 650 625 676 q 676 588 676 624 q 651 526 676 553 m 651 241 q 638 228 651 241 q 589 215 625 215 q 527 241 553 215 q 501 303 501 267 q 527 365 501 339 q 589 390 553 390 q 651 365 625 390 q 676 303 676 339 q 651 241 676 267 z "},"̉":{"ha":718,"x_min":42,"x_max":676,"o":"m 304 172 q 113 252 183 172 q 42 451 42 332 q 116 655 42 572 q 311 738 190 738 q 428 721 381 738 l 408 594 q 314 614 354 614 q 208 570 246 614 q 171 456 171 526 q 208 342 171 386 q 314 299 244 299 q 404 315 354 299 l 428 193 q 304 172 389 172 m 651 526 q 638 513 651 526 q 589 500 625 500 q 527 526 553 500 q 501 588 501 553 q 527 650 501 624 q 589 676 553 676 q 651 650 625 676 q 676 588 676 624 q 651 526 676 553 m 651 241 q 638 228 651 241 q 589 215 625 215 q 527 241 553 215 q 501 303 501 267 q 527 365 501 339 q 589 390 553 390 q 651 365 625 390 q 676 303 676 339 q 651 241 676 267 z "},"Ά":{"ha":718,"x_min":42,"x_max":676,"o":"m 304 172 q 113 252 183 172 q 42 451 42 332 q 116 655 42 572 q 311 738 190 738 q 428 721 381 738 l 408 594 q 314 614 354 614 q 208 570 246 614 q 171 456 171 526 q 208 342 171 386 q 314 299 244 299 q 404 315 354 299 l 428 193 q 304 172 389 172 m 651 526 q 638 513 651 526 q 589 500 625 500 q 527 526 553 500 q 501 588 501 553 q 527 650 501 624 q 589 676 553 676 q 651 650 625 676 q 676 588 676 624 q 651 526 676 553 m 651 241 q 638 228 651 241 q 589 215 625 215 q 527 241 553 215 q 501 303 501 267 q 527 365 501 339 q 589 390 553 390 q 651 365 625 390 q 676 303 676 339 q 651 241 676 267 z "},"Ḇ":{"ha":718,"x_min":42,"x_max":676,"o":"m 304 172 q 113 252 183 172 q 42 451 42 332 q 116 655 42 572 q 311 738 190 738 q 428 721 381 738 l 408 594 q 314 614 354 614 q 208 570 246 614 q 171 456 171 526 q 208 342 171 386 q 314 299 244 299 q 404 315 354 299 l 428 193 q 304 172 389 172 m 651 526 q 638 513 651 526 q 589 500 625 500 q 527 526 553 500 q 501 588 501 553 q 527 650 501 624 q 589 676 553 676 q 651 650 625 676 q 676 588 676 624 q 651 526 676 553 m 651 241 q 638 228 651 241 q 589 215 625 215 q 527 241 553 215 q 501 303 501 267 q 527 365 501 339 q 589 390 553 390 q 651 365 625 390 q 676 303 676 339 q 651 241 676 267 z "},"ḇ":{"ha":718,"x_min":42,"x_max":676,"o":"m 304 172 q 113 252 183 172 q 42 451 42 332 q 116 655 42 572 q 311 738 190 738 q 428 721 381 738 l 408 594 q 314 614 354 614 q 208 570 246 614 q 171 456 171 526 q 208 342 171 386 q 314 299 244 299 q 404 315 354 299 l 428 193 q 304 172 389 172 m 651 526 q 638 513 651 526 q 589 500 625 500 q 527 526 553 500 q 501 588 501 553 q 527 650 501 624 q 589 676 553 676 q 651 650 625 676 q 676 588 676 624 q 651 526 676 553 m 651 241 q 638 228 651 241 q 589 215 625 215 q 527 241 553 215 q 501 303 501 267 q 527 365 501 339 q 589 390 553 390 q 651 365 625 390 q 676 303 676 339 q 651 241 676 267 z "},"Ḋ":{"ha":718,"x_min":42,"x_max":676,"o":"m 304 172 q 113 252 183 172 q 42 451 42 332 q 116 655 42 572 q 311 738 190 738 q 428 721 381 738 l 408 594 q 314 614 354 614 q 208 570 246 614 q 171 456 171 526 q 208 342 171 386 q 314 299 244 299 q 404 315 354 299 l 428 193 q 304 172 389 172 m 651 526 q 638 513 651 526 q 589 500 625 500 q 527 526 553 500 q 501 588 501 553 q 527 650 501 624 q 589 676 553 676 q 651 650 625 676 q 676 588 676 624 q 651 526 676 553 m 651 241 q 638 228 651 241 q 589 215 625 215 q 527 241 553 215 q 501 303 501 267 q 527 365 501 339 q 589 390 553 390 q 651 365 625 390 q 676 303 676 339 q 651 241 676 267 z "},"ḋ":{"ha":718,"x_min":42,"x_max":676,"o":"m 304 172 q 113 252 183 172 q 42 451 42 332 q 116 655 42 572 q 311 738 190 738 q 428 721 381 738 l 408 594 q 314 614 354 614 q 208 570 246 614 q 171 456 171 526 q 208 342 171 386 q 314 299 244 299 q 404 315 354 299 l 428 193 q 304 172 389 172 m 651 526 q 638 513 651 526 q 589 500 625 500 q 527 526 553 500 q 501 588 501 553 q 527 650 501 624 q 589 676 553 676 q 651 650 625 676 q 676 588 676 624 q 651 526 676 553 m 651 241 q 638 228 651 241 q 589 215 625 215 q 527 241 553 215 q 501 303 501 267 q 527 365 501 339 q 589 390 553 390 q 651 365 625 390 q 676 303 676 339 q 651 241 676 267 z "},"Ḟ":{"ha":718,"x_min":42,"x_max":676,"o":"m 304 172 q 113 252 183 172 q 42 451 42 332 q 116 655 42 572 q 311 738 190 738 q 428 721 381 738 l 408 594 q 314 614 354 614 q 208 570 246 614 q 171 456 171 526 q 208 342 171 386 q 314 299 244 299 q 404 315 354 299 l 428 193 q 304 172 389 172 m 651 526 q 638 513 651 526 q 589 500 625 500 q 527 526 553 500 q 501 588 501 553 q 527 650 501 624 q 589 676 553 676 q 651 650 625 676 q 676 588 676 624 q 651 526 676 553 m 651 241 q 638 228 651 241 q 589 215 625 215 q 527 241 553 215 q 501 303 501 267 q 527 365 501 339 q 589 390 553 390 q 651 365 625 390 q 676 303 676 339 q 651 241 676 267 z "},"ḟ":{"ha":718,"x_min":42,"x_max":676,"o":"m 304 172 q 113 252 183 172 q 42 451 42 332 q 116 655 42 572 q 311 738 190 738 q 428 721 381 738 l 408 594 q 314 614 354 614 q 208 570 246 614 q 171 456 171 526 q 208 342 171 386 q 314 299 244 299 q 404 315 354 299 l 428 193 q 304 172 389 172 m 651 526 q 638 513 651 526 q 589 500 625 500 q 527 526 553 500 q 501 588 501 553 q 527 650 501 624 q 589 676 553 676 q 651 650 625 676 q 676 588 676 624 q 651 526 676 553 m 651 241 q 638 228 651 241 q 589 215 625 215 q 527 241 553 215 q 501 303 501 267 q 527 365 501 339 q 589 390 553 390 q 651 365 625 390 q 676 303 676 339 q 651 241 676 267 z "},"Ḣ":{"ha":718,"x_min":42,"x_max":676,"o":"m 304 172 q 113 252 183 172 q 42 451 42 332 q 116 655 42 572 q 311 738 190 738 q 428 721 381 738 l 408 594 q 314 614 354 614 q 208 570 246 614 q 171 456 171 526 q 208 342 171 386 q 314 299 244 299 q 404 315 354 299 l 428 193 q 304 172 389 172 m 651 526 q 638 513 651 526 q 589 500 625 500 q 527 526 553 500 q 501 588 501 553 q 527 650 501 624 q 589 676 553 676 q 651 650 625 676 q 676 588 676 624 q 651 526 676 553 m 651 241 q 638 228 651 241 q 589 215 625 215 q 527 241 553 215 q 501 303 501 267 q 527 365 501 339 q 589 390 553 390 q 651 365 625 390 q 676 303 676 339 q 651 241 676 267 z "},"ḣ":{"ha":718,"x_min":42,"x_max":676,"o":"m 304 172 q 113 252 183 172 q 42 451 42 332 q 116 655 42 572 q 311 738 190 738 q 428 721 381 738 l 408 594 q 314 614 354 614 q 208 570 246 614 q 171 456 171 526 q 208 342 171 386 q 314 299 244 299 q 404 315 354 299 l 428 193 q 304 172 389 172 m 651 526 q 638 513 651 526 q 589 500 625 500 q 527 526 553 500 q 501 588 501 553 q 527 650 501 624 q 589 676 553 676 q 651 650 625 676 q 676 588 676 624 q 651 526 676 553 m 651 241 q 638 228 651 241 q 589 215 625 215 q 527 241 553 215 q 501 303 501 267 q 527 365 501 339 q 589 390 553 390 q 651 365 625 390 q 676 303 676 339 q 651 241 676 267 z "},"Ḭ":{"ha":718,"x_min":42,"x_max":676,"o":"m 304 172 q 113 252 183 172 q 42 451 42 332 q 116 655 42 572 q 311 738 190 738 q 428 721 381 738 l 408 594 q 314 614 354 614 q 208 570 246 614 q 171 456 171 526 q 208 342 171 386 q 314 299 244 299 q 404 315 354 299 l 428 193 q 304 172 389 172 m 651 526 q 638 513 651 526 q 589 500 625 500 q 527 526 553 500 q 501 588 501 553 q 527 650 501 624 q 589 676 553 676 q 651 650 625 676 q 676 588 676 624 q 651 526 676 553 m 651 241 q 638 228 651 241 q 589 215 625 215 q 527 241 553 215 q 501 303 501 267 q 527 365 501 339 q 589 390 553 390 q 651 365 625 390 q 676 303 676 339 q 651 241 676 267 z "},"ḭ":{"ha":718,"x_min":42,"x_max":676,"o":"m 304 172 q 113 252 183 172 q 42 451 42 332 q 116 655 42 572 q 311 738 190 738 q 428 721 381 738 l 408 594 q 314 614 354 614 q 208 570 246 614 q 171 456 171 526 q 208 342 171 386 q 314 299 244 299 q 404 315 354 299 l 428 193 q 304 172 389 172 m 651 526 q 638 513 651 526 q 589 500 625 500 q 527 526 553 500 q 501 588 501 553 q 527 650 501 624 q 589 676 553 676 q 651 650 625 676 q 676 588 676 624 q 651 526 676 553 m 651 241 q 638 228 651 241 q 589 215 625 215 q 527 241 553 215 q 501 303 501 267 q 527 365 501 339 q 589 390 553 390 q 651 365 625 390 q 676 303 676 339 q 651 241 676 267 z "},"Ḹ":{"ha":718,"x_min":42,"x_max":676,"o":"m 304 172 q 113 252 183 172 q 42 451 42 332 q 116 655 42 572 q 311 738 190 738 q 428 721 381 738 l 408 594 q 314 614 354 614 q 208 570 246 614 q 171 456 171 526 q 208 342 171 386 q 314 299 244 299 q 404 315 354 299 l 428 193 q 304 172 389 172 m 651 526 q 638 513 651 526 q 589 500 625 500 q 527 526 553 500 q 501 588 501 553 q 527 650 501 624 q 589 676 553 676 q 651 650 625 676 q 676 588 676 624 q 651 526 676 553 m 651 241 q 638 228 651 241 q 589 215 625 215 q 527 241 553 215 q 501 303 501 267 q 527 365 501 339 q 589 390 553 390 q 651 365 625 390 q 676 303 676 339 q 651 241 676 267 z "},"ḹ":{"ha":718,"x_min":42,"x_max":676,"o":"m 304 172 q 113 252 183 172 q 42 451 42 332 q 116 655 42 572 q 311 738 190 738 q 428 721 381 738 l 408 594 q 314 614 354 614 q 208 570 246 614 q 171 456 171 526 q 208 342 171 386 q 314 299 244 299 q 404 315 354 299 l 428 193 q 304 172 389 172 m 651 526 q 638 513 651 526 q 589 500 625 500 q 527 526 553 500 q 501 588 501 553 q 527 650 501 624 q 589 676 553 676 q 651 650 625 676 q 676 588 676 624 q 651 526 676 553 m 651 241 q 638 228 651 241 q 589 215 625 215 q 527 241 553 215 q 501 303 501 267 q 527 365 501 339 q 589 390 553 390 q 651 365 625 390 q 676 303 676 339 q 651 241 676 267 z "},"Ḽ":{"ha":718,"x_min":42,"x_max":676,"o":"m 304 172 q 113 252 183 172 q 42 451 42 332 q 116 655 42 572 q 311 738 190 738 q 428 721 381 738 l 408 594 q 314 614 354 614 q 208 570 246 614 q 171 456 171 526 q 208 342 171 386 q 314 299 244 299 q 404 315 354 299 l 428 193 q 304 172 389 172 m 651 526 q 638 513 651 526 q 589 500 625 500 q 527 526 553 500 q 501 588 501 553 q 527 650 501 624 q 589 676 553 676 q 651 650 625 676 q 676 588 676 624 q 651 526 676 553 m 651 241 q 638 228 651 241 q 589 215 625 215 q 527 241 553 215 q 501 303 501 267 q 527 365 501 339 q 589 390 553 390 q 651 365 625 390 q 676 303 676 339 q 651 241 676 267 z "},"ḽ":{"ha":718,"x_min":42,"x_max":676,"o":"m 304 172 q 113 252 183 172 q 42 451 42 332 q 116 655 42 572 q 311 738 190 738 q 428 721 381 738 l 408 594 q 314 614 354 614 q 208 570 246 614 q 171 456 171 526 q 208 342 171 386 q 314 299 244 299 q 404 315 354 299 l 428 193 q 304 172 389 172 m 651 526 q 638 513 651 526 q 589 500 625 500 q 527 526 553 500 q 501 588 501 553 q 527 650 501 624 q 589 676 553 676 q 651 650 625 676 q 676 588 676 624 q 651 526 676 553 m 651 241 q 638 228 651 241 q 589 215 625 215 q 527 241 553 215 q 501 303 501 267 q 527 365 501 339 q 589 390 553 390 q 651 365 625 390 q 676 303 676 339 q 651 241 676 267 z "},"Ẑ":{"ha":718,"x_min":42,"x_max":676,"o":"m 304 172 q 113 252 183 172 q 42 451 42 332 q 116 655 42 572 q 311 738 190 738 q 428 721 381 738 l 408 594 q 314 614 354 614 q 208 570 246 614 q 171 456 171 526 q 208 342 171 386 q 314 299 244 299 q 404 315 354 299 l 428 193 q 304 172 389 172 m 651 526 q 638 513 651 526 q 589 500 625 500 q 527 526 553 500 q 501 588 501 553 q 527 650 501 624 q 589 676 553 676 q 651 650 625 676 q 676 588 676 624 q 651 526 676 553 m 651 241 q 638 228 651 241 q 589 215 625 215 q 527 241 553 215 q 501 303 501 267 q 527 365 501 339 q 589 390 553 390 q 651 365 625 390 q 676 303 676 339 q 651 241 676 267 z "},"ẑ":{"ha":718,"x_min":42,"x_max":676,"o":"m 304 172 q 113 252 183 172 q 42 451 42 332 q 116 655 42 572 q 311 738 190 738 q 428 721 381 738 l 408 594 q 314 614 354 614 q 208 570 246 614 q 171 456 171 526 q 208 342 171 386 q 314 299 244 299 q 404 315 354 299 l 428 193 q 304 172 389 172 m 651 526 q 638 513 651 526 q 589 500 625 500 q 527 526 553 500 q 501 588 501 553 q 527 650 501 624 q 589 676 553 676 q 651 650 625 676 q 676 588 676 624 q 651 526 676 553 m 651 241 q 638 228 651 241 q 589 215 625 215 q 527 241 553 215 q 501 303 501 267 q 527 365 501 339 q 589 390 553 390 q 651 365 625 390 q 676 303 676 339 q 651 241 676 267 z "},"Ẕ":{"ha":718,"x_min":42,"x_max":676,"o":"m 304 172 q 113 252 183 172 q 42 451 42 332 q 116 655 42 572 q 311 738 190 738 q 428 721 381 738 l 408 594 q 314 614 354 614 q 208 570 246 614 q 171 456 171 526 q 208 342 171 386 q 314 299 244 299 q 404 315 354 299 l 428 193 q 304 172 389 172 m 651 526 q 638 513 651 526 q 589 500 625 500 q 527 526 553 500 q 501 588 501 553 q 527 650 501 624 q 589 676 553 676 q 651 650 625 676 q 676 588 676 624 q 651 526 676 553 m 651 241 q 638 228 651 241 q 589 215 625 215 q 527 241 553 215 q 501 303 501 267 q 527 365 501 339 q 589 390 553 390 q 651 365 625 390 q 676 303 676 339 q 651 241 676 267 z "},"ẕ":{"ha":718,"x_min":42,"x_max":676,"o":"m 304 172 q 113 252 183 172 q 42 451 42 332 q 116 655 42 572 q 311 738 190 738 q 428 721 381 738 l 408 594 q 314 614 354 614 q 208 570 246 614 q 171 456 171 526 q 208 342 171 386 q 314 299 244 299 q 404 315 354 299 l 428 193 q 304 172 389 172 m 651 526 q 638 513 651 526 q 589 500 625 500 q 527 526 553 500 q 501 588 501 553 q 527 650 501 624 q 589 676 553 676 q 651 650 625 676 q 676 588 676 624 q 651 526 676 553 m 651 241 q 638 228 651 241 q 589 215 625 215 q 527 241 553 215 q 501 303 501 267 q 527 365 501 339 q 589 390 553 390 q 651 365 625 390 q 676 303 676 339 q 651 241 676 267 z "},"ẖ":{"ha":718,"x_min":42,"x_max":676,"o":"m 304 172 q 113 252 183 172 q 42 451 42 332 q 116 655 42 572 q 311 738 190 738 q 428 721 381 738 l 408 594 q 314 614 354 614 q 208 570 246 614 q 171 456 171 526 q 208 342 171 386 q 314 299 244 299 q 404 315 354 299 l 428 193 q 304 172 389 172 m 651 526 q 638 513 651 526 q 589 500 625 500 q 527 526 553 500 q 501 588 501 553 q 527 650 501 624 q 589 676 553 676 q 651 650 625 676 q 676 588 676 624 q 651 526 676 553 m 651 241 q 638 228 651 241 q 589 215 625 215 q 527 241 553 215 q 501 303 501 267 q 527 365 501 339 q 589 390 553 390 q 651 365 625 390 q 676 303 676 339 q 651 241 676 267 z "},"ẟ":{"ha":718,"x_min":42,"x_max":676,"o":"m 304 172 q 113 252 183 172 q 42 451 42 332 q 116 655 42 572 q 311 738 190 738 q 428 721 381 738 l 408 594 q 314 614 354 614 q 208 570 246 614 q 171 456 171 526 q 208 342 171 386 q 314 299 244 299 q 404 315 354 299 l 428 193 q 304 172 389 172 m 651 526 q 638 513 651 526 q 589 500 625 500 q 527 526 553 500 q 501 588 501 553 q 527 650 501 624 q 589 676 553 676 q 651 650 625 676 q 676 588 676 624 q 651 526 676 553 m 651 241 q 638 228 651 241 q 589 215 625 215 q 527 241 553 215 q 501 303 501 267 q 527 365 501 339 q 589 390 553 390 q 651 365 625 390 q 676 303 676 339 q 651 241 676 267 z "},"Ẻ":{"ha":718,"x_min":42,"x_max":676,"o":"m 304 172 q 113 252 183 172 q 42 451 42 332 q 116 655 42 572 q 311 738 190 738 q 428 721 381 738 l 408 594 q 314 614 354 614 q 208 570 246 614 q 171 456 171 526 q 208 342 171 386 q 314 299 244 299 q 404 315 354 299 l 428 193 q 304 172 389 172 m 651 526 q 638 513 651 526 q 589 500 625 500 q 527 526 553 500 q 501 588 501 553 q 527 650 501 624 q 589 676 553 676 q 651 650 625 676 q 676 588 676 624 q 651 526 676 553 m 651 241 q 638 228 651 241 q 589 215 625 215 q 527 241 553 215 q 501 303 501 267 q 527 365 501 339 q 589 390 553 390 q 651 365 625 390 q 676 303 676 339 q 651 241 676 267 z "},"ẻ":{"ha":718,"x_min":42,"x_max":676,"o":"m 304 172 q 113 252 183 172 q 42 451 42 332 q 116 655 42 572 q 311 738 190 738 q 428 721 381 738 l 408 594 q 314 614 354 614 q 208 570 246 614 q 171 456 171 526 q 208 342 171 386 q 314 299 244 299 q 404 315 354 299 l 428 193 q 304 172 389 172 m 651 526 q 638 513 651 526 q 589 500 625 500 q 527 526 553 500 q 501 588 501 553 q 527 650 501 624 q 589 676 553 676 q 651 650 625 676 q 676 588 676 624 q 651 526 676 553 m 651 241 q 638 228 651 241 q 589 215 625 215 q 527 241 553 215 q 501 303 501 267 q 527 365 501 339 q 589 390 553 390 q 651 365 625 390 q 676 303 676 339 q 651 241 676 267 z "},"Ỷ":{"ha":718,"x_min":42,"x_max":676,"o":"m 304 172 q 113 252 183 172 q 42 451 42 332 q 116 655 42 572 q 311 738 190 738 q 428 721 381 738 l 408 594 q 314 614 354 614 q 208 570 246 614 q 171 456 171 526 q 208 342 171 386 q 314 299 244 299 q 404 315 354 299 l 428 193 q 304 172 389 172 m 651 526 q 638 513 651 526 q 589 500 625 500 q 527 526 553 500 q 501 588 501 553 q 527 650 501 624 q 589 676 553 676 q 651 650 625 676 q 676 588 676 624 q 651 526 676 553 m 651 241 q 638 228 651 241 q 589 215 625 215 q 527 241 553 215 q 501 303 501 267 q 527 365 501 339 q 589 390 553 390 q 651 365 625 390 q 676 303 676 339 q 651 241 676 267 z "},"ỷ":{"ha":718,"x_min":42,"x_max":676,"o":"m 304 172 q 113 252 183 172 q 42 451 42 332 q 116 655 42 572 q 311 738 190 738 q 428 721 381 738 l 408 594 q 314 614 354 614 q 208 570 246 614 q 171 456 171 526 q 208 342 171 386 q 314 299 244 299 q 404 315 354 299 l 428 193 q 304 172 389 172 m 651 526 q 638 513 651 526 q 589 500 625 500 q 527 526 553 500 q 501 588 501 553 q 527 650 501 624 q 589 676 553 676 q 651 650 625 676 q 676 588 676 624 q 651 526 676 553 m 651 241 q 638 228 651 241 q 589 215 625 215 q 527 241 553 215 q 501 303 501 267 q 527 365 501 339 q 589 390 553 390 q 651 365 625 390 q 676 303 676 339 q 651 241 676 267 z "},"‒":{"ha":718,"x_min":42,"x_max":676,"o":"m 304 172 q 113 252 183 172 q 42 451 42 332 q 116 655 42 572 q 311 738 190 738 q 428 721 381 738 l 408 594 q 314 614 354 614 q 208 570 246 614 q 171 456 171 526 q 208 342 171 386 q 314 299 244 299 q 404 315 354 299 l 428 193 q 304 172 389 172 m 651 526 q 638 513 651 526 q 589 500 625 500 q 527 526 553 500 q 501 588 501 553 q 527 650 501 624 q 589 676 553 676 q 651 650 625 676 q 676 588 676 624 q 651 526 676 553 m 651 241 q 638 228 651 241 q 589 215 625 215 q 527 241 553 215 q 501 303 501 267 q 527 365 501 339 q 589 390 553 390 q 651 365 625 390 q 676 303 676 339 q 651 241 676 267 z "},"―":{"ha":718,"x_min":42,"x_max":676,"o":"m 304 172 q 113 252 183 172 q 42 451 42 332 q 116 655 42 572 q 311 738 190 738 q 428 721 381 738 l 408 594 q 314 614 354 614 q 208 570 246 614 q 171 456 171 526 q 208 342 171 386 q 314 299 244 299 q 404 315 354 299 l 428 193 q 304 172 389 172 m 651 526 q 638 513 651 526 q 589 500 625 500 q 527 526 553 500 q 501 588 501 553 q 527 650 501 624 q 589 676 553 676 q 651 650 625 676 q 676 588 676 624 q 651 526 676 553 m 651 241 q 638 228 651 241 q 589 215 625 215 q 527 241 553 215 q 501 303 501 267 q 527 365 501 339 q 589 390 553 390 q 651 365 625 390 q 676 303 676 339 q 651 241 676 267 z "},"‖":{"ha":718,"x_min":42,"x_max":676,"o":"m 304 172 q 113 252 183 172 q 42 451 42 332 q 116 655 42 572 q 311 738 190 738 q 428 721 381 738 l 408 594 q 314 614 354 614 q 208 570 246 614 q 171 456 171 526 q 208 342 171 386 q 314 299 244 299 q 404 315 354 299 l 428 193 q 304 172 389 172 m 651 526 q 638 513 651 526 q 589 500 625 500 q 527 526 553 500 q 501 588 501 553 q 527 650 501 624 q 589 676 553 676 q 651 650 625 676 q 676 588 676 624 q 651 526 676 553 m 651 241 q 638 228 651 241 q 589 215 625 215 q 527 241 553 215 q 501 303 501 267 q 527 365 501 339 q 589 390 553 390 q 651 365 625 390 q 676 303 676 339 q 651 241 676 267 z "},"‗":{"ha":718,"x_min":42,"x_max":676,"o":"m 304 172 q 113 252 183 172 q 42 451 42 332 q 116 655 42 572 q 311 738 190 738 q 428 721 381 738 l 408 594 q 314 614 354 614 q 208 570 246 614 q 171 456 171 526 q 208 342 171 386 q 314 299 244 299 q 404 315 354 299 l 428 193 q 304 172 389 172 m 651 526 q 638 513 651 526 q 589 500 625 500 q 527 526 553 500 q 501 588 501 553 q 527 650 501 624 q 589 676 553 676 q 651 650 625 676 q 676 588 676 624 q 651 526 676 553 m 651 241 q 638 228 651 241 q 589 215 625 215 q 527 241 553 215 q 501 303 501 267 q 527 365 501 339 q 589 390 553 390 q 651 365 625 390 q 676 303 676 339 q 651 241 676 267 z "},"‛":{"ha":718,"x_min":42,"x_max":676,"o":"m 304 172 q 113 252 183 172 q 42 451 42 332 q 116 655 42 572 q 311 738 190 738 q 428 721 381 738 l 408 594 q 314 614 354 614 q 208 570 246 614 q 171 456 171 526 q 208 342 171 386 q 314 299 244 299 q 404 315 354 299 l 428 193 q 304 172 389 172 m 651 526 q 638 513 651 526 q 589 500 625 500 q 527 526 553 500 q 501 588 501 553 q 527 650 501 624 q 589 676 553 676 q 651 650 625 676 q 676 588 676 624 q 651 526 676 553 m 651 241 q 638 228 651 241 q 589 215 625 215 q 527 241 553 215 q 501 303 501 267 q 527 365 501 339 q 589 390 553 390 q 651 365 625 390 q 676 303 676 339 q 651 241 676 267 z "},"‟":{"ha":718,"x_min":42,"x_max":676,"o":"m 304 172 q 113 252 183 172 q 42 451 42 332 q 116 655 42 572 q 311 738 190 738 q 428 721 381 738 l 408 594 q 314 614 354 614 q 208 570 246 614 q 171 456 171 526 q 208 342 171 386 q 314 299 244 299 q 404 315 354 299 l 428 193 q 304 172 389 172 m 651 526 q 638 513 651 526 q 589 500 625 500 q 527 526 553 500 q 501 588 501 553 q 527 650 501 624 q 589 676 553 676 q 651 650 625 676 q 676 588 676 624 q 651 526 676 553 m 651 241 q 638 228 651 241 q 589 215 625 215 q 527 241 553 215 q 501 303 501 267 q 527 365 501 339 q 589 390 553 390 q 651 365 625 390 q 676 303 676 339 q 651 241 676 267 z "},"‣":{"ha":718,"x_min":42,"x_max":676,"o":"m 304 172 q 113 252 183 172 q 42 451 42 332 q 116 655 42 572 q 311 738 190 738 q 428 721 381 738 l 408 594 q 314 614 354 614 q 208 570 246 614 q 171 456 171 526 q 208 342 171 386 q 314 299 244 299 q 404 315 354 299 l 428 193 q 304 172 389 172 m 651 526 q 638 513 651 526 q 589 500 625 500 q 527 526 553 500 q 501 588 501 553 q 527 650 501 624 q 589 676 553 676 q 651 650 625 676 q 676 588 676 624 q 651 526 676 553 m 651 241 q 638 228 651 241 q 589 215 625 215 q 527 241 553 215 q 501 303 501 267 q 527 365 501 339 q 589 390 553 390 q 651 365 625 390 q 676 303 676 339 q 651 241 676 267 z "},"․":{"ha":718,"x_min":42,"x_max":676,"o":"m 304 172 q 113 252 183 172 q 42 451 42 332 q 116 655 42 572 q 311 738 190 738 q 428 721 381 738 l 408 594 q 314 614 354 614 q 208 570 246 614 q 171 456 171 526 q 208 342 171 386 q 314 299 244 299 q 404 315 354 299 l 428 193 q 304 172 389 172 m 651 526 q 638 513 651 526 q 589 500 625 500 q 527 526 553 500 q 501 588 501 553 q 527 650 501 624 q 589 676 553 676 q 651 650 625 676 q 676 588 676 624 q 651 526 676 553 m 651 241 q 638 228 651 241 q 589 215 625 215 q 527 241 553 215 q 501 303 501 267 q 527 365 501 339 q 589 390 553 390 q 651 365 625 390 q 676 303 676 339 q 651 241 676 267 z "},"‥":{"ha":718,"x_min":42,"x_max":676,"o":"m 304 172 q 113 252 183 172 q 42 451 42 332 q 116 655 42 572 q 311 738 190 738 q 428 721 381 738 l 408 594 q 314 614 354 614 q 208 570 246 614 q 171 456 171 526 q 208 342 171 386 q 314 299 244 299 q 404 315 354 299 l 428 193 q 304 172 389 172 m 651 526 q 638 513 651 526 q 589 500 625 500 q 527 526 553 500 q 501 588 501 553 q 527 650 501 624 q 589 676 553 676 q 651 650 625 676 q 676 588 676 624 q 651 526 676 553 m 651 241 q 638 228 651 241 q 589 215 625 215 q 527 241 553 215 q 501 303 501 267 q 527 365 501 339 q 589 390 553 390 q 651 365 625 390 q 676 303 676 339 q 651 241 676 267 z "},"‱":{"ha":718,"x_min":42,"x_max":676,"o":"m 304 172 q 113 252 183 172 q 42 451 42 332 q 116 655 42 572 q 311 738 190 738 q 428 721 381 738 l 408 594 q 314 614 354 614 q 208 570 246 614 q 171 456 171 526 q 208 342 171 386 q 314 299 244 299 q 404 315 354 299 l 428 193 q 304 172 389 172 m 651 526 q 638 513 651 526 q 589 500 625 500 q 527 526 553 500 q 501 588 501 553 q 527 650 501 624 q 589 676 553 676 q 651 650 625 676 q 676 588 676 624 q 651 526 676 553 m 651 241 q 638 228 651 241 q 589 215 625 215 q 527 241 553 215 q 501 303 501 267 q 527 365 501 339 q 589 390 553 390 q 651 365 625 390 q 676 303 676 339 q 651 241 676 267 z "},"∃":{"ha":718,"x_min":42,"x_max":676,"o":"m 304 172 q 113 252 183 172 q 42 451 42 332 q 116 655 42 572 q 311 738 190 738 q 428 721 381 738 l 408 594 q 314 614 354 614 q 208 570 246 614 q 171 456 171 526 q 208 342 171 386 q 314 299 244 299 q 404 315 354 299 l 428 193 q 304 172 389 172 m 651 526 q 638 513 651 526 q 589 500 625 500 q 527 526 553 500 q 501 588 501 553 q 527 650 501 624 q 589 676 553 676 q 651 650 625 676 q 676 588 676 624 q 651 526 676 553 m 651 241 q 638 228 651 241 q 589 215 625 215 q 527 241 553 215 q 501 303 501 267 q 527 365 501 339 q 589 390 553 390 q 651 365 625 390 q 676 303 676 339 q 651 241 676 267 z "},"∄":{"ha":718,"x_min":42,"x_max":676,"o":"m 304 172 q 113 252 183 172 q 42 451 42 332 q 116 655 42 572 q 311 738 190 738 q 428 721 381 738 l 408 594 q 314 614 354 614 q 208 570 246 614 q 171 456 171 526 q 208 342 171 386 q 314 299 244 299 q 404 315 354 299 l 428 193 q 304 172 389 172 m 651 526 q 638 513 651 526 q 589 500 625 500 q 527 526 553 500 q 501 588 501 553 q 527 650 501 624 q 589 676 553 676 q 651 650 625 676 q 676 588 676 624 q 651 526 676 553 m 651 241 q 638 228 651 241 q 589 215 625 215 q 527 241 553 215 q 501 303 501 267 q 527 365 501 339 q 589 390 553 390 q 651 365 625 390 q 676 303 676 339 q 651 241 676 267 z "},"∐":{"ha":718,"x_min":42,"x_max":676,"o":"m 304 172 q 113 252 183 172 q 42 451 42 332 q 116 655 42 572 q 311 738 190 738 q 428 721 381 738 l 408 594 q 314 614 354 614 q 208 570 246 614 q 171 456 171 526 q 208 342 171 386 q 314 299 244 299 q 404 315 354 299 l 428 193 q 304 172 389 172 m 651 526 q 638 513 651 526 q 589 500 625 500 q 527 526 553 500 q 501 588 501 553 q 527 650 501 624 q 589 676 553 676 q 651 650 625 676 q 676 588 676 624 q 651 526 676 553 m 651 241 q 638 228 651 241 q 589 215 625 215 q 527 241 553 215 q 501 303 501 267 q 527 365 501 339 q 589 390 553 390 q 651 365 625 390 q 676 303 676 339 q 651 241 676 267 z "},"∓":{"ha":718,"x_min":42,"x_max":676,"o":"m 304 172 q 113 252 183 172 q 42 451 42 332 q 116 655 42 572 q 311 738 190 738 q 428 721 381 738 l 408 594 q 314 614 354 614 q 208 570 246 614 q 171 456 171 526 q 208 342 171 386 q 314 299 244 299 q 404 315 354 299 l 428 193 q 304 172 389 172 m 651 526 q 638 513 651 526 q 589 500 625 500 q 527 526 553 500 q 501 588 501 553 q 527 650 501 624 q 589 676 553 676 q 651 650 625 676 q 676 588 676 624 q 651 526 676 553 m 651 241 q 638 228 651 241 q 589 215 625 215 q 527 241 553 215 q 501 303 501 267 q 527 365 501 339 q 589 390 553 390 q 651 365 625 390 q 676 303 676 339 q 651 241 676 267 z "},"∔":{"ha":718,"x_min":42,"x_max":676,"o":"m 304 172 q 113 252 183 172 q 42 451 42 332 q 116 655 42 572 q 311 738 190 738 q 428 721 381 738 l 408 594 q 314 614 354 614 q 208 570 246 614 q 171 456 171 526 q 208 342 171 386 q 314 299 244 299 q 404 315 354 299 l 428 193 q 304 172 389 172 m 651 526 q 638 513 651 526 q 589 500 625 500 q 527 526 553 500 q 501 588 501 553 q 527 650 501 624 q 589 676 553 676 q 651 650 625 676 q 676 588 676 624 q 651 526 676 553 m 651 241 q 638 228 651 241 q 589 215 625 215 q 527 241 553 215 q 501 303 501 267 q 527 365 501 339 q 589 390 553 390 q 651 365 625 390 q 676 303 676 339 q 651 241 676 267 z "},"∖":{"ha":718,"x_min":42,"x_max":676,"o":"m 304 172 q 113 252 183 172 q 42 451 42 332 q 116 655 42 572 q 311 738 190 738 q 428 721 381 738 l 408 594 q 314 614 354 614 q 208 570 246 614 q 171 456 171 526 q 208 342 171 386 q 314 299 244 299 q 404 315 354 299 l 428 193 q 304 172 389 172 m 651 526 q 638 513 651 526 q 589 500 625 500 q 527 526 553 500 q 501 588 501 553 q 527 650 501 624 q 589 676 553 676 q 651 650 625 676 q 676 588 676 624 q 651 526 676 553 m 651 241 q 638 228 651 241 q 589 215 625 215 q 527 241 553 215 q 501 303 501 267 q 527 365 501 339 q 589 390 553 390 q 651 365 625 390 q 676 303 676 339 q 651 241 676 267 z "},"∗":{"ha":718,"x_min":42,"x_max":676,"o":"m 304 172 q 113 252 183 172 q 42 451 42 332 q 116 655 42 572 q 311 738 190 738 q 428 721 381 738 l 408 594 q 314 614 354 614 q 208 570 246 614 q 171 456 171 526 q 208 342 171 386 q 314 299 244 299 q 404 315 354 299 l 428 193 q 304 172 389 172 m 651 526 q 638 513 651 526 q 589 500 625 500 q 527 526 553 500 q 501 588 501 553 q 527 650 501 624 q 589 676 553 676 q 651 650 625 676 q 676 588 676 624 q 651 526 676 553 m 651 241 q 638 228 651 241 q 589 215 625 215 q 527 241 553 215 q 501 303 501 267 q 527 365 501 339 q 589 390 553 390 q 651 365 625 390 q 676 303 676 339 q 651 241 676 267 z "},"∘":{"ha":718,"x_min":42,"x_max":676,"o":"m 304 172 q 113 252 183 172 q 42 451 42 332 q 116 655 42 572 q 311 738 190 738 q 428 721 381 738 l 408 594 q 314 614 354 614 q 208 570 246 614 q 171 456 171 526 q 208 342 171 386 q 314 299 244 299 q 404 315 354 299 l 428 193 q 304 172 389 172 m 651 526 q 638 513 651 526 q 589 500 625 500 q 527 526 553 500 q 501 588 501 553 q 527 650 501 624 q 589 676 553 676 q 651 650 625 676 q 676 588 676 624 q 651 526 676 553 m 651 241 q 638 228 651 241 q 589 215 625 215 q 527 241 553 215 q 501 303 501 267 q 527 365 501 339 q 589 390 553 390 q 651 365 625 390 q 676 303 676 339 q 651 241 676 267 z "},"∛":{"ha":718,"x_min":42,"x_max":676,"o":"m 304 172 q 113 252 183 172 q 42 451 42 332 q 116 655 42 572 q 311 738 190 738 q 428 721 381 738 l 408 594 q 314 614 354 614 q 208 570 246 614 q 171 456 171 526 q 208 342 171 386 q 314 299 244 299 q 404 315 354 299 l 428 193 q 304 172 389 172 m 651 526 q 638 513 651 526 q 589 500 625 500 q 527 526 553 500 q 501 588 501 553 q 527 650 501 624 q 589 676 553 676 q 651 650 625 676 q 676 588 676 624 q 651 526 676 553 m 651 241 q 638 228 651 241 q 589 215 625 215 q 527 241 553 215 q 501 303 501 267 q 527 365 501 339 q 589 390 553 390 q 651 365 625 390 q 676 303 676 339 q 651 241 676 267 z "},"∜":{"ha":718,"x_min":42,"x_max":676,"o":"m 304 172 q 113 252 183 172 q 42 451 42 332 q 116 655 42 572 q 311 738 190 738 q 428 721 381 738 l 408 594 q 314 614 354 614 q 208 570 246 614 q 171 456 171 526 q 208 342 171 386 q 314 299 244 299 q 404 315 354 299 l 428 193 q 304 172 389 172 m 651 526 q 638 513 651 526 q 589 500 625 500 q 527 526 553 500 q 501 588 501 553 q 527 650 501 624 q 589 676 553 676 q 651 650 625 676 q 676 588 676 624 q 651 526 676 553 m 651 241 q 638 228 651 241 q 589 215 625 215 q 527 241 553 215 q 501 303 501 267 q 527 365 501 339 q 589 390 553 390 q 651 365 625 390 q 676 303 676 339 q 651 241 676 267 z "},"∝":{"ha":718,"x_min":42,"x_max":676,"o":"m 304 172 q 113 252 183 172 q 42 451 42 332 q 116 655 42 572 q 311 738 190 738 q 428 721 381 738 l 408 594 q 314 614 354 614 q 208 570 246 614 q 171 456 171 526 q 208 342 171 386 q 314 299 244 299 q 404 315 354 299 l 428 193 q 304 172 389 172 m 651 526 q 638 513 651 526 q 589 500 625 500 q 527 526 553 500 q 501 588 501 553 q 527 650 501 624 q 589 676 553 676 q 651 650 625 676 q 676 588 676 624 q 651 526 676 553 m 651 241 q 638 228 651 241 q 589 215 625 215 q 527 241 553 215 q 501 303 501 267 q 527 365 501 339 q 589 390 553 390 q 651 365 625 390 q 676 303 676 339 q 651 241 676 267 z "},"≡":{"ha":718,"x_min":42,"x_max":676,"o":"m 304 172 q 113 252 183 172 q 42 451 42 332 q 116 655 42 572 q 311 738 190 738 q 428 721 381 738 l 408 594 q 314 614 354 614 q 208 570 246 614 q 171 456 171 526 q 208 342 171 386 q 314 299 244 299 q 404 315 354 299 l 428 193 q 304 172 389 172 m 651 526 q 638 513 651 526 q 589 500 625 500 q 527 526 553 500 q 501 588 501 553 q 527 650 501 624 q 589 676 553 676 q 651 650 625 676 q 676 588 676 624 q 651 526 676 553 m 651 241 q 638 228 651 241 q 589 215 625 215 q 527 241 553 215 q 501 303 501 267 q 527 365 501 339 q 589 390 553 390 q 651 365 625 390 q 676 303 676 339 q 651 241 676 267 z "},"≢":{"ha":718,"x_min":42,"x_max":676,"o":"m 304 172 q 113 252 183 172 q 42 451 42 332 q 116 655 42 572 q 311 738 190 738 q 428 721 381 738 l 408 594 q 314 614 354 614 q 208 570 246 614 q 171 456 171 526 q 208 342 171 386 q 314 299 244 299 q 404 315 354 299 l 428 193 q 304 172 389 172 m 651 526 q 638 513 651 526 q 589 500 625 500 q 527 526 553 500 q 501 588 501 553 q 527 650 501 624 q 589 676 553 676 q 651 650 625 676 q 676 588 676 624 q 651 526 676 553 m 651 241 q 638 228 651 241 q 589 215 625 215 q 527 241 553 215 q 501 303 501 267 q 527 365 501 339 q 589 390 553 390 q 651 365 625 390 q 676 303 676 339 q 651 241 676 267 z "},"≣":{"ha":718,"x_min":42,"x_max":676,"o":"m 304 172 q 113 252 183 172 q 42 451 42 332 q 116 655 42 572 q 311 738 190 738 q 428 721 381 738 l 408 594 q 314 614 354 614 q 208 570 246 614 q 171 456 171 526 q 208 342 171 386 q 314 299 244 299 q 404 315 354 299 l 428 193 q 304 172 389 172 m 651 526 q 638 513 651 526 q 589 500 625 500 q 527 526 553 500 q 501 588 501 553 q 527 650 501 624 q 589 676 553 676 q 651 650 625 676 q 676 588 676 624 q 651 526 676 553 m 651 241 q 638 228 651 241 q 589 215 625 215 q 527 241 553 215 q 501 303 501 267 q 527 365 501 339 q 589 390 553 390 q 651 365 625 390 q 676 303 676 339 q 651 241 676 267 z "},"\r":{"ha":911,"x_min":0,"x_max":0,"o":""}," ":{"ha":400,"x_min":0,"x_max":0,"o":""},"!":{"ha":363,"x_min":121,"x_max":243,"o":"m 181 974 q 227 953 211 974 q 240 896 243 932 q 217 553 233 789 q 194 244 200 318 l 168 244 q 146 553 163 318 q 122 896 129 789 q 136 953 121 932 q 181 974 151 974 m 223 8 q 215 0 223 8 q 182 -8 207 -8 q 141 8 157 -8 q 125 47 125 24 q 141 86 125 71 q 182 101 157 101 q 223 86 207 101 q 239 47 239 71 q 223 8 239 24 z "},"\"":{"ha":486,"x_min":104,"x_max":385,"o":"m 108 975 q 119 1023 104 1004 q 156 1042 133 1042 q 194 1023 179 1042 q 204 975 210 1004 l 164 714 l 147 714 l 108 975 m 283 975 q 294 1023 279 1004 q 331 1042 308 1042 q 369 1023 354 1042 q 379 975 385 1004 l 339 714 l 322 714 l 283 975 z "},"#":{"ha":1047,"x_min":65,"x_max":982,"o":"m 982 686 l 783 686 l 751 278 l 947 278 l 947 238 l 749 238 l 731 0 l 685 0 l 703 238 l 307 238 l 289 0 l 243 0 l 261 238 l 65 238 l 65 278 l 264 278 l 296 686 l 100 686 l 100 726 l 299 726 l 317 965 l 363 965 l 344 726 l 740 726 l 758 965 l 804 965 l 786 726 l 982 726 l 982 686 m 706 278 l 738 686 l 342 686 l 310 278 l 706 278 z "},"$":{"ha":806,"x_min":83,"x_max":729,"o":"m 729 276 q 649 75 729 156 q 422 -11 569 -6 l 422 -94 l 378 -94 l 378 -11 q 83 88 211 -1 l 101 315 q 196 119 122 190 q 378 39 269 47 l 378 457 l 311 482 q 266 500 283 493 q 215 528 249 507 q 162 574 182 550 q 125 638 142 597 q 108 728 108 679 q 179 904 108 836 q 378 976 250 972 l 378 1053 l 422 1053 l 422 975 q 671 893 560 968 l 685 642 q 422 926 625 906 l 422 567 l 496 540 q 556 517 533 526 q 615 485 578 508 q 674 438 653 463 q 713 370 696 413 q 729 276 729 328 m 356 590 l 378 582 l 378 928 q 235 881 289 925 q 182 763 182 836 q 224 659 182 696 q 356 590 267 622 m 422 38 q 585 97 522 42 q 649 239 649 153 q 633 313 649 281 q 587 367 618 346 q 533 399 556 389 q 471 424 510 410 l 422 442 l 422 38 z "},"%":{"ha":1238,"x_min":86,"x_max":1151,"o":"m 482 519 q 447 481 482 519 q 318 443 413 443 q 155 519 224 443 q 86 711 86 596 q 155 897 86 824 q 318 971 224 971 q 482 897 413 971 q 551 711 551 822 q 482 519 551 596 m 972 965 l 1013 965 l 265 0 l 225 0 l 972 965 m 318 486 q 414 547 378 486 q 450 711 450 607 q 414 869 450 811 q 318 928 378 928 q 224 869 260 928 q 188 711 188 811 q 224 547 188 607 q 318 486 260 486 m 1082 70 q 1047 32 1082 70 q 918 -7 1013 -7 q 755 69 824 -7 q 686 263 686 146 q 755 447 686 374 q 918 521 824 521 q 1082 447 1013 521 q 1151 263 1151 374 q 1082 70 1151 147 m 918 36 q 1014 97 978 36 q 1050 263 1050 157 q 1014 420 1050 363 q 918 478 978 478 q 824 420 860 478 q 788 263 788 363 q 824 97 788 157 q 918 36 860 36 z "},"&":{"ha":976,"x_min":86,"x_max":907,"o":"m 907 0 l 754 0 q 681 114 714 69 q 386 -11 568 -11 q 167 58 247 -11 q 86 238 86 128 q 336 533 86 419 q 234 669 263 621 q 206 774 206 717 q 272 921 206 868 q 440 974 339 974 q 606 924 542 974 q 669 794 669 874 q 606 648 669 714 q 451 538 542 582 l 694 244 q 754 436 733 328 l 825 419 q 738 193 792 285 q 907 0 889 10 m 440 925 q 332 888 372 925 q 292 790 292 851 q 297 747 292 767 q 317 703 301 726 q 343 667 333 679 q 382 621 353 654 q 422 574 411 588 q 540 661 497 614 q 583 782 583 708 q 547 886 583 847 q 440 925 510 925 m 403 38 q 646 161 554 38 q 618 194 626 185 l 419 435 q 365 499 404 453 q 200 246 200 418 q 254 92 200 147 q 403 38 308 38 z "},"'":{"ha":311,"x_min":104,"x_max":210,"o":"m 108 975 q 119 1023 104 1004 q 156 1042 133 1042 q 194 1023 179 1042 q 204 975 210 1004 l 164 714 l 147 714 l 108 975 z "},"(":{"ha":371,"x_min":71,"x_max":333,"o":"m 301 1118 l 333 1092 q 119 465 119 808 q 333 -160 119 124 l 301 -186 q 71 467 71 113 q 301 1118 71 822 z "},")":{"ha":371,"x_min":38,"x_max":300,"o":"m 69 1118 q 300 467 300 822 q 69 -186 300 113 l 38 -160 q 251 465 251 124 q 38 1092 251 808 l 69 1118 z "},"*":{"ha":658,"x_min":83,"x_max":572,"o":"m 572 854 l 356 704 l 572 554 l 547 518 l 347 669 l 353 443 l 303 443 l 308 669 l 108 518 l 83 554 l 300 704 l 83 854 l 108 890 l 308 739 l 303 965 l 353 965 l 347 739 l 547 890 l 572 854 z "},"+":{"ha":951,"x_min":104,"x_max":847,"o":"m 847 506 l 847 461 l 500 461 l 500 111 l 457 111 l 457 461 l 104 461 l 104 506 l 457 506 l 457 854 l 500 854 l 500 506 l 847 506 z "},",":{"ha":386,"x_min":131,"x_max":244,"o":"m 147 86 q 155 94 147 86 q 188 101 163 101 q 228 84 213 101 q 244 36 244 67 q 147 -115 244 -72 l 142 -110 q 193 -8 190 -60 l 188 -8 q 147 8 163 -8 q 131 47 131 24 q 147 86 131 71 z "},"-":{"ha":694,"x_min":104,"x_max":590,"o":"m 104 544 l 590 544 l 590 499 l 104 499 l 104 544 z "},".":{"ha":386,"x_min":136,"x_max":250,"o":"m 234 8 q 226 0 234 8 q 193 -8 218 -8 q 152 8 168 -8 q 136 47 136 24 q 152 86 136 71 q 193 101 168 101 q 234 86 218 101 q 250 47 250 71 q 234 8 250 24 z "},"/":{"ha":668,"x_min":13,"x_max":656,"o":"m 613 1022 l 656 993 l 57 -56 l 13 -29 l 613 1022 z "},":":{"ha":386,"x_min":136,"x_max":250,"o":"m 234 592 q 226 584 234 592 q 193 576 218 576 q 152 592 168 576 q 136 632 136 608 q 152 671 136 656 q 193 686 168 686 q 234 671 218 686 q 250 632 250 656 q 234 592 250 608 m 234 165 q 226 157 234 165 q 193 149 218 149 q 152 165 168 149 q 136 204 136 181 q 152 243 136 228 q 193 258 168 258 q 234 243 218 258 q 250 204 250 228 q 234 165 250 181 z "},";":{"ha":415,"x_min":136,"x_max":279,"o":"m 234 522 q 242 515 234 522 q 250 483 250 507 q 234 444 250 460 q 193 428 218 428 q 152 444 168 428 q 136 483 136 460 q 152 522 136 507 q 193 538 168 538 q 234 522 218 538 m 181 86 q 189 94 181 86 q 222 101 197 101 q 263 84 247 101 q 279 36 279 67 q 182 -115 279 -72 l 176 -110 q 228 -8 225 -60 l 222 -8 q 181 8 197 -8 q 165 47 165 24 q 181 86 165 71 z "},"<":{"ha":783,"x_min":72,"x_max":699,"o":"m 699 161 l 72 472 l 72 492 l 699 806 l 699 758 l 144 482 l 699 208 l 699 161 z "},"=":{"ha":951,"x_min":104,"x_max":847,"o":"m 104 647 l 847 647 l 847 603 l 104 603 l 104 647 m 104 386 l 847 386 l 847 342 l 104 342 l 104 386 z "},">":{"ha":783,"x_min":85,"x_max":711,"o":"m 85 161 l 85 208 l 639 482 l 85 758 l 85 806 l 711 492 l 711 472 l 85 161 z "},"?":{"ha":592,"x_min":74,"x_max":522,"o":"m 425 810 q 293 925 425 925 q 74 697 135 925 l 82 911 q 300 974 183 974 q 461 933 400 974 q 522 815 522 893 q 494 709 522 760 q 428 615 467 658 q 352 524 390 572 q 290 405 314 476 q 271 247 267 333 l 246 247 q 254 438 239 356 q 297 567 269 519 q 354 652 325 615 q 404 728 383 689 q 425 810 425 767 m 216 86 q 224 94 216 86 q 257 101 232 101 q 298 86 282 101 q 314 47 314 71 q 298 8 314 24 q 257 -8 282 -8 q 216 8 232 -8 q 200 47 200 24 q 216 86 200 71 z "},"@":{"ha":1274,"x_min":96,"x_max":1182,"o":"m 878 733 l 889 733 l 889 342 q 906 290 889 307 q 947 272 922 272 q 1040 345 1003 272 q 1076 544 1076 418 q 955 831 1076 719 q 643 943 833 943 q 326 816 446 943 q 206 479 206 689 q 318 143 206 264 q 639 22 431 22 q 809 49 724 22 q 932 117 894 76 l 956 75 q 814 2 907 31 q 625 -26 721 -26 q 245 114 394 -26 q 96 464 96 254 q 250 842 96 692 q 643 992 404 992 q 1031 870 881 992 q 1182 553 1182 749 q 1115 324 1182 417 q 943 232 1049 232 q 806 332 829 232 q 730 252 779 283 q 614 221 681 221 q 440 290 513 221 q 368 471 368 360 q 443 663 368 583 q 632 742 518 742 q 819 664 747 742 l 878 733 m 633 264 q 751 319 707 264 q 794 431 794 375 l 794 588 q 625 700 736 700 q 509 643 551 700 q 467 485 467 586 q 513 322 467 381 q 633 264 558 264 z "},"A":{"ha":1046,"x_min":35,"x_max":1010,"o":"m 799 0 q 806 139 860 24 l 711 343 l 279 343 l 190 142 q 185 0 138 21 l 35 0 q 84 47 57 7 q 165 208 111 86 l 500 965 l 528 965 l 928 107 q 1010 0 972 11 l 799 0 m 299 388 l 692 388 l 490 824 l 299 388 z "},"B":{"ha":857,"x_min":82,"x_max":785,"o":"m 517 500 q 785 268 785 465 q 690 74 785 149 q 429 0 594 0 l 82 0 q 141 43 125 13 q 157 136 157 74 l 157 829 q 141 922 157 892 q 82 965 125 953 l 399 965 q 656 908 563 965 q 750 736 750 850 q 690 584 750 646 q 517 500 629 522 m 388 917 l 260 917 l 260 521 l 375 521 q 574 576 507 521 q 640 722 640 632 q 388 917 640 917 m 414 49 q 605 105 538 49 q 672 265 672 161 q 599 417 672 364 q 381 471 526 471 l 260 471 l 260 49 l 414 49 z "},"C":{"ha":969,"x_min":75,"x_max":876,"o":"m 543 38 q 875 253 765 38 l 876 90 q 731 17 819 46 q 543 -11 642 -11 q 205 135 335 -11 q 75 485 75 281 q 201 831 75 689 q 531 974 328 974 q 854 889 706 974 l 876 583 q 740 837 833 749 q 526 925 647 925 q 286 812 379 925 q 193 486 193 699 q 288 156 193 275 q 543 38 383 38 z "},"D":{"ha":1028,"x_min":82,"x_max":954,"o":"m 449 965 q 817 835 679 965 q 954 489 954 706 q 816 135 954 269 q 449 0 678 0 l 82 0 q 144 45 126 13 q 163 139 163 78 l 163 832 q 149 924 163 896 q 93 965 136 953 l 449 965 m 443 51 q 729 161 624 51 q 835 486 835 271 q 730 807 835 700 q 443 914 625 914 l 265 914 l 265 51 l 443 51 z "},"E":{"ha":842,"x_min":82,"x_max":765,"o":"m 450 51 q 667 92 604 51 q 765 257 731 133 l 740 0 l 82 0 q 144 45 126 13 q 163 139 163 78 l 163 832 q 149 924 163 896 q 93 965 136 953 l 711 965 l 742 717 q 638 875 707 836 q 411 914 569 914 l 265 914 l 265 543 l 364 543 q 551 568 501 543 q 624 651 601 593 l 608 383 q 549 472 594 446 q 361 499 503 499 l 265 499 l 265 51 l 450 51 z "},"F":{"ha":797,"x_min":82,"x_max":742,"o":"m 411 914 l 265 914 l 265 532 l 375 532 q 563 557 513 532 q 635 640 613 582 l 619 372 q 560 461 606 435 q 372 488 514 488 l 265 488 l 265 139 q 283 45 265 78 q 346 0 301 13 l 82 0 q 144 45 126 13 q 163 139 163 78 l 163 832 q 149 924 163 896 q 93 965 136 953 l 711 965 l 742 717 q 638 875 707 836 q 411 914 569 914 z "},"G":{"ha":1014,"x_min":75,"x_max":911,"o":"m 911 474 l 911 -8 l 824 69 q 542 -8 707 -8 q 211 133 347 -8 q 75 489 75 274 q 203 835 75 696 q 535 974 331 974 q 713 948 622 974 q 863 885 804 922 l 878 629 q 742 849 832 772 q 529 925 651 925 q 286 811 379 925 q 193 485 193 697 q 290 155 193 269 q 557 40 388 40 q 808 135 710 40 l 806 422 l 774 422 q 561 403 618 422 l 564 479 q 753 474 600 474 l 911 474 z "},"H":{"ha":1092,"x_min":82,"x_max":1010,"o":"m 936 178 q 951 50 936 86 q 1010 0 967 14 l 758 0 q 818 49 803 13 q 833 178 833 86 l 833 503 l 260 503 l 260 178 q 275 50 260 86 q 333 0 290 14 l 82 0 q 142 49 126 13 q 157 178 157 86 l 157 788 q 142 916 157 879 q 82 965 126 953 l 333 965 q 275 915 290 951 q 260 788 260 879 l 260 554 l 833 554 l 833 788 q 818 916 833 879 q 758 965 803 953 l 1010 965 q 951 915 967 951 q 936 788 936 879 l 936 178 z "},"I":{"ha":413,"x_min":82,"x_max":333,"o":"m 260 178 q 275 50 260 86 q 333 0 290 14 l 82 0 q 142 49 126 13 q 157 178 157 86 l 157 788 q 142 916 157 879 q 82 965 126 953 l 333 965 q 275 915 290 951 q 260 788 260 879 l 260 178 z "},"J":{"ha":715,"x_min":61,"x_max":649,"o":"m 649 965 q 590 919 606 951 q 574 815 574 886 l 574 307 q 572 240 574 264 q 564 172 571 215 q 540 101 557 128 q 496 45 524 74 q 421 3 468 17 q 310 -11 374 -11 q 61 79 164 -11 l 79 338 q 166 106 111 175 q 307 38 221 38 q 387 56 354 38 q 435 99 419 75 q 460 163 451 124 q 469 224 468 203 q 471 281 471 246 l 471 815 q 456 920 471 888 q 396 965 440 953 l 649 965 z "},"K":{"ha":979,"x_min":82,"x_max":942,"o":"m 767 201 q 942 0 919 13 l 753 0 q 733 71 753 35 q 660 178 713 107 q 539 334 636 207 q 396 518 442 461 l 260 393 l 260 178 q 275 50 260 86 q 333 0 290 14 l 82 0 q 142 49 126 13 q 157 178 157 86 l 157 788 q 142 916 157 879 q 82 965 126 953 l 333 965 q 275 915 290 951 q 260 788 260 879 l 260 450 l 649 814 q 743 965 765 922 l 915 965 q 679 779 831 919 l 467 583 q 590 426 475 572 q 767 201 704 279 z "},"L":{"ha":776,"x_min":82,"x_max":719,"o":"m 404 51 q 582 69 522 51 q 669 126 642 88 q 719 247 696 164 l 706 0 l 82 0 q 141 43 125 13 q 157 136 157 74 l 157 829 q 141 922 157 892 q 82 965 125 953 l 335 965 q 276 921 292 951 q 260 829 260 890 l 260 51 l 404 51 z "},"M":{"ha":1246,"x_min":82,"x_max":1164,"o":"m 1089 178 q 1105 58 1089 99 q 1164 0 1121 17 l 911 0 q 970 56 954 17 q 986 178 986 96 l 986 835 l 614 0 l 581 0 l 201 806 l 201 178 q 217 58 201 99 q 276 0 233 17 l 82 0 q 141 56 125 17 q 157 178 157 96 l 157 788 q 141 909 157 869 q 82 965 125 949 l 236 965 l 625 133 l 997 965 l 997 961 l 999 965 l 1164 965 q 1105 908 1121 949 q 1089 788 1089 867 l 1089 178 z "},"N":{"ha":1086,"x_min":79,"x_max":1011,"o":"m 808 965 l 1011 965 q 952 908 968 949 q 936 788 936 867 l 936 0 l 913 0 l 207 846 l 207 178 q 223 58 207 99 q 282 0 239 17 l 79 0 q 138 56 122 17 q 154 178 154 96 l 154 801 q 138 915 154 878 q 79 965 122 951 l 242 965 l 883 178 l 883 788 q 867 909 883 869 q 808 965 851 949 z "},"O":{"ha":1081,"x_min":75,"x_max":1006,"o":"m 203 837 q 268 907 203 837 q 540 978 332 978 q 877 837 749 978 q 1006 483 1006 696 q 877 130 1006 271 q 540 -11 749 -11 q 203 130 332 -11 q 75 483 75 271 q 203 837 75 696 m 288 154 q 336 97 288 154 q 540 40 383 40 q 792 154 697 40 q 888 483 888 268 q 792 813 888 699 q 540 926 697 926 q 288 813 383 926 q 193 483 193 699 q 288 154 193 268 z "},"P":{"ha":861,"x_min":82,"x_max":801,"o":"m 428 965 q 702 896 603 965 q 801 696 801 826 q 699 481 801 561 q 421 400 596 400 l 260 400 l 260 136 q 276 44 260 75 q 335 0 292 14 l 82 0 q 141 43 125 13 q 157 136 157 74 l 157 829 q 141 922 157 892 q 82 965 125 953 l 428 965 m 414 447 q 616 513 544 447 q 688 692 688 579 q 618 859 688 801 q 417 917 549 917 l 260 917 l 260 447 l 414 447 z "},"Q":{"ha":1081,"x_min":75,"x_max":1006,"o":"m 740 -161 q 914 -62 883 -161 l 939 -71 q 858 -210 919 -165 q 711 -256 796 -256 q 583 -226 642 -256 q 483 -155 524 -197 q 404 -70 442 -112 q 325 1 367 -28 q 239 31 283 31 q 147 -58 161 31 l 119 -57 q 168 39 128 7 q 269 71 208 71 l 271 71 q 126 244 178 136 q 75 483 75 353 q 203 837 75 696 q 540 978 332 978 q 877 837 749 978 q 1006 483 1006 696 q 877 130 1006 271 q 540 -11 749 -11 q 431 0 486 -11 q 475 -41 440 -8 q 528 -87 510 -74 q 581 -123 546 -101 q 654 -153 615 -144 q 740 -161 693 -161 m 288 813 q 241 756 288 813 q 193 483 193 699 q 288 154 193 268 q 540 40 383 40 q 792 154 697 40 q 888 483 888 268 q 792 813 888 699 q 540 926 697 926 q 288 813 383 926 z "},"R":{"ha":917,"x_min":82,"x_max":882,"o":"m 708 192 q 810 73 753 138 q 882 0 868 8 l 696 0 q 676 68 696 35 q 601 172 657 101 l 385 447 l 260 447 l 260 136 q 276 44 260 75 q 335 0 292 14 l 82 0 q 141 43 125 13 q 157 136 157 74 l 157 829 q 141 922 157 892 q 82 965 125 953 l 417 965 q 586 944 511 965 q 714 865 661 922 q 767 721 767 808 q 689 542 767 611 q 494 454 611 474 l 708 192 m 260 918 l 260 494 l 408 494 q 592 551 526 494 q 657 714 657 607 q 637 813 657 772 q 591 874 617 854 q 523 904 565 893 q 456 917 481 915 q 394 918 432 918 l 260 918 z "},"S":{"ha":806,"x_min":83,"x_max":729,"o":"m 182 763 q 224 659 182 696 q 356 590 267 622 l 496 540 q 556 517 533 526 q 615 485 578 508 q 674 438 653 463 q 713 370 696 413 q 729 276 729 328 q 644 70 729 151 q 403 -11 558 -11 q 83 88 226 -11 l 101 315 q 205 110 122 182 q 407 38 288 38 q 581 94 514 38 q 649 239 649 150 q 633 313 649 281 q 587 367 618 346 q 533 399 556 389 q 471 424 510 410 l 311 482 q 266 500 283 493 q 215 528 249 507 q 162 574 182 550 q 125 638 142 597 q 108 728 108 679 q 183 908 108 839 q 392 976 258 976 q 671 893 547 976 l 685 642 q 389 928 619 928 q 239 883 296 928 q 182 763 182 839 z "},"T":{"ha":935,"x_min":61,"x_max":872,"o":"m 850 965 l 872 656 q 793 860 846 806 q 611 914 740 914 l 519 914 l 519 136 q 535 43 519 74 q 593 0 550 13 l 342 0 q 401 43 385 13 q 417 136 417 74 l 417 914 l 325 914 q 144 860 196 914 q 61 656 93 807 l 86 965 l 850 965 z "},"U":{"ha":965,"x_min":64,"x_max":904,"o":"m 904 965 q 846 919 863 950 q 829 829 829 888 l 829 371 q 746 84 829 179 q 488 -11 663 -11 q 139 349 139 -11 l 139 829 q 123 922 139 892 q 64 965 107 953 l 317 965 q 258 921 274 951 q 242 829 242 890 l 242 379 q 508 38 242 38 q 778 375 778 38 l 778 829 q 762 922 778 892 q 703 965 746 953 l 904 965 z "},"V":{"ha":979,"x_min":36,"x_max":946,"o":"m 794 965 l 946 965 q 916 947 929 960 q 873 881 903 935 q 806 732 843 828 l 511 0 l 483 0 l 131 835 q 36 965 81 953 l 243 965 q 249 803 189 944 l 518 151 l 779 800 q 811 899 804 863 q 813 948 818 936 q 794 965 808 960 z "},"W":{"ha":1306,"x_min":39,"x_max":1267,"o":"m 1118 965 l 1267 965 q 1167 753 1224 950 l 950 0 l 922 0 l 647 779 l 408 0 l 381 0 l 126 815 q 39 965 83 951 l 239 965 q 228 819 189 946 l 417 196 l 651 965 l 679 965 l 954 192 l 1115 757 q 1145 910 1144 863 q 1118 965 1146 957 z "},"X":{"ha":950,"x_min":36,"x_max":911,"o":"m 704 0 q 719 17 715 10 q 717 53 724 25 q 681 125 710 82 l 467 442 l 265 172 q 229 121 244 144 q 208 81 214 97 q 198 52 201 64 q 197 31 194 40 q 200 17 199 21 q 206 6 201 13 l 211 0 l 36 0 q 193 144 119 46 l 442 479 l 224 800 q 83 965 125 946 l 288 965 q 311 839 251 926 l 507 550 l 679 792 q 711 840 697 818 q 733 878 725 863 q 744 907 740 893 q 749 928 747 921 q 747 942 750 935 q 742 952 743 950 q 736 960 742 954 l 731 965 l 903 965 q 749 817 825 922 l 532 514 l 769 164 q 826 81 808 106 q 867 32 844 56 q 911 0 890 8 l 704 0 z "},"Y":{"ha":953,"x_min":35,"x_max":918,"o":"m 760 965 l 918 965 q 796 832 876 953 l 526 418 l 526 136 q 542 44 526 75 q 601 0 558 14 l 349 0 q 408 43 392 13 q 424 136 424 74 l 424 406 l 168 806 q 35 965 81 943 l 235 965 q 254 847 197 935 l 500 460 l 711 786 q 744 842 731 817 q 765 884 758 867 q 774 913 771 901 q 774 935 776 925 q 771 949 772 944 q 765 958 769 953 q 760 965 760 964 z "},"Z":{"ha":822,"x_min":54,"x_max":750,"o":"m 457 46 q 552 51 517 46 q 623 72 588 56 q 678 120 658 88 q 715 206 699 153 q 743 340 732 260 l 728 0 l 54 0 l 608 918 l 417 918 q 308 914 347 918 q 228 897 268 910 q 167 855 189 883 q 126 781 144 826 q 92 663 107 735 l 118 965 l 750 965 l 196 46 l 457 46 z "},"[":{"ha":404,"x_min":82,"x_max":368,"o":"m 368 1060 l 129 1060 l 129 -128 l 368 -128 l 368 -165 l 82 -165 l 82 1097 l 368 1097 l 368 1060 z "},"\\":{"ha":668,"x_min":13,"x_max":656,"o":"m 56 1022 l 656 -29 l 611 -56 l 13 993 l 56 1022 z "},"]":{"ha":404,"x_min":36,"x_max":322,"o":"m 322 1097 l 322 -165 l 36 -165 l 36 -128 l 275 -128 l 275 1060 l 36 1060 l 36 1097 l 322 1097 z "},"^":{"ha":797,"x_min":75,"x_max":722,"o":"m 722 604 l 690 581 l 399 996 l 107 581 l 75 604 l 382 1042 l 417 1042 l 722 604 z "},"_":{"ha":860,"x_min":104,"x_max":756,"o":"m 104 46 l 756 46 l 756 0 l 104 0 l 104 46 z "},"a":{"ha":756,"x_min":56,"x_max":696,"o":"m 696 0 l 557 -4 l 557 158 q 290 -10 478 -10 q 118 41 181 -10 q 56 179 56 92 q 76 266 56 226 q 128 332 97 306 q 206 381 158 358 q 291 415 253 403 q 382 442 329 428 l 551 485 l 551 539 q 383 746 551 746 q 222 686 296 746 q 110 490 147 626 l 104 708 q 386 794 226 794 q 580 735 508 794 q 651 557 651 675 l 651 149 q 696 0 651 33 m 315 39 q 476 103 404 39 q 551 282 547 167 l 551 438 l 389 393 q 315 370 343 381 q 248 338 288 360 q 188 278 208 315 q 168 190 168 240 q 207 81 168 122 q 315 39 246 39 z "},"b":{"ha":889,"x_min":74,"x_max":836,"o":"m 451 796 q 726 692 617 796 q 836 415 836 589 q 728 114 836 239 q 442 -11 619 -11 q 197 94 290 -11 l 118 -7 l 108 -4 l 108 908 q 74 1035 108 1007 l 208 1051 l 208 713 q 451 796 299 796 m 454 36 q 655 129 581 36 q 729 381 729 222 q 650 644 729 539 q 426 749 571 749 q 208 636 288 749 l 208 208 q 454 36 282 36 z "},"c":{"ha":810,"x_min":51,"x_max":739,"o":"m 439 38 q 623 108 546 38 q 739 304 700 179 l 733 88 q 604 17 688 44 q 439 -11 521 -11 q 165 98 278 -11 q 51 392 51 207 q 158 681 51 567 q 440 796 264 796 q 605 767 526 796 q 731 688 683 739 l 701 482 q 433 747 638 747 q 237 653 310 747 q 164 393 164 558 q 240 131 164 224 q 439 38 315 38 z "},"d":{"ha":886,"x_min":53,"x_max":814,"o":"m 814 0 l 681 -4 l 681 99 q 435 -11 601 -11 q 163 94 274 -11 q 53 375 53 200 q 163 673 53 550 q 450 796 274 796 q 675 725 581 796 l 675 908 q 640 1035 675 1007 l 775 1051 l 775 150 q 814 0 775 39 m 460 38 q 675 154 604 38 l 675 581 q 438 747 599 747 q 236 661 313 747 q 160 422 160 575 q 241 149 160 261 q 460 38 322 38 z "},"e":{"ha":829,"x_min":51,"x_max":757,"o":"m 464 38 q 757 299 669 38 l 744 96 q 615 18 694 47 q 451 -11 536 -11 q 162 99 272 -11 q 51 389 51 210 q 155 681 51 567 q 428 796 258 796 q 670 708 589 796 q 754 472 751 619 l 169 472 q 164 389 164 438 q 248 134 164 231 q 464 38 332 38 m 428 747 q 266 686 332 747 q 176 514 200 625 l 644 514 q 582 685 638 624 q 428 747 526 747 z "},"f":{"ha":557,"x_min":14,"x_max":583,"o":"m 407 1057 q 299 1007 339 1057 q 258 850 258 957 l 258 785 l 544 785 l 544 743 l 258 743 l 258 149 q 331 0 258 22 l 86 0 q 143 48 128 11 q 158 149 158 85 l 158 743 l 14 743 l 14 785 l 158 785 l 158 839 q 226 1036 158 974 q 410 1099 293 1099 q 583 1054 518 1099 l 582 865 q 517 1011 558 965 q 407 1057 476 1057 z "},"g":{"ha":792,"x_min":7,"x_max":782,"o":"m 503 161 q 706 107 631 147 q 781 -22 781 67 q 675 -187 781 -128 q 389 -246 569 -246 q 110 -196 214 -246 q 7 -54 7 -146 q 238 100 7 85 q 99 225 99 124 q 140 299 99 271 q 238 332 182 328 q 103 547 103 401 q 183 724 103 656 q 393 793 264 793 q 563 751 490 793 q 613 854 571 819 q 704 889 654 889 q 760 872 739 889 q 782 828 782 856 q 764 786 782 803 q 719 769 746 769 q 674 785 699 769 q 635 800 649 800 q 589 733 600 800 q 682 547 682 665 q 601 369 682 439 q 393 299 521 299 q 333 303 363 299 q 286 306 303 306 q 195 291 231 306 q 160 249 160 276 q 192 206 160 219 q 297 183 225 192 l 503 161 m 385 750 q 252 697 301 750 q 203 561 203 643 q 257 406 203 469 q 401 342 311 342 q 533 394 483 342 q 583 531 583 447 q 528 687 583 624 q 385 750 474 750 m 390 -207 q 624 -165 543 -207 q 706 -57 706 -122 q 671 13 706 -17 q 580 54 636 42 q 475 72 524 67 q 378 78 426 78 q 100 -56 100 78 q 179 -168 100 -129 q 390 -207 258 -207 z "},"h":{"ha":918,"x_min":53,"x_max":875,"o":"m 631 0 q 688 48 672 11 q 703 149 703 85 l 703 515 q 494 740 703 740 q 322 682 394 740 q 225 513 250 624 l 225 149 q 297 0 225 22 l 53 0 q 110 48 94 11 q 125 149 125 85 l 125 908 q 90 1035 125 1007 l 225 1051 l 225 629 q 517 796 307 796 q 724 735 646 796 q 803 540 803 674 l 803 149 q 875 0 803 22 l 631 0 z "},"i":{"ha":353,"x_min":57,"x_max":301,"o":"m 230 903 q 219 893 230 903 q 174 882 208 882 q 117 903 139 882 q 94 958 94 925 q 117 1013 94 992 q 174 1035 139 1035 q 230 1013 208 1035 q 251 958 251 992 q 230 903 251 925 m 57 0 q 114 48 99 11 q 129 149 129 85 l 129 619 q 90 781 129 733 l 229 793 l 229 149 q 301 0 229 22 l 57 0 z "},"j":{"ha":317,"x_min":31,"x_max":238,"o":"m 103 1013 q 114 1024 103 1013 q 160 1035 125 1035 q 216 1013 194 1035 q 238 958 238 992 q 216 903 238 925 q 160 882 194 882 q 103 903 125 882 q 81 958 81 925 q 103 1013 81 992 m 113 619 q 74 781 113 733 l 213 793 l 213 92 q 169 -153 213 -74 q 31 -261 125 -233 q 96 -121 79 -197 q 113 101 113 -44 l 113 619 z "},"k":{"ha":822,"x_min":53,"x_max":807,"o":"m 807 0 l 625 0 q 553 146 644 28 l 349 411 l 225 300 l 225 149 q 297 0 225 22 l 53 0 q 110 48 94 11 q 125 149 125 85 l 125 908 q 90 1035 125 1007 l 225 1051 l 225 357 l 540 642 q 639 785 643 733 l 779 785 q 546 588 742 764 l 424 478 l 679 151 q 807 0 796 3 z "},"l":{"ha":351,"x_min":53,"x_max":297,"o":"m 53 0 q 110 48 94 11 q 125 149 125 85 l 125 908 q 90 1035 125 1007 l 225 1051 l 225 149 q 297 0 225 22 l 53 0 z "},"m":{"ha":1497,"x_min":57,"x_max":1454,"o":"m 1210 0 q 1267 48 1251 11 q 1282 149 1282 85 l 1282 515 q 1076 740 1282 740 q 889 654 967 740 q 806 413 811 568 l 806 149 q 878 0 806 22 l 633 0 q 690 48 675 11 q 706 149 706 85 l 706 513 q 652 683 706 626 q 500 740 599 740 q 313 654 390 740 q 229 413 235 568 l 229 149 q 301 0 229 22 l 57 0 q 114 48 99 11 q 129 149 129 85 l 129 619 q 90 781 129 733 l 229 793 l 229 599 q 341 744 265 693 q 522 796 417 796 q 712 747 636 796 q 803 590 788 697 q 915 742 839 688 q 1099 796 992 796 q 1304 735 1226 796 q 1382 540 1382 674 l 1382 149 q 1454 0 1382 22 l 1210 0 z "},"n":{"ha":935,"x_min":57,"x_max":892,"o":"m 647 0 q 704 48 689 11 q 719 149 719 85 l 719 515 q 511 740 719 740 q 313 656 390 740 q 229 415 235 572 l 229 149 q 301 0 229 22 l 57 0 q 114 48 99 11 q 129 149 129 85 l 129 619 q 90 781 129 733 l 229 793 l 229 603 q 533 796 308 796 q 741 735 663 796 q 819 540 819 674 l 819 149 q 892 0 819 22 l 647 0 z "},"o":{"ha":900,"x_min":51,"x_max":849,"o":"m 849 393 l 849 392 q 734 103 849 218 q 450 -11 619 -11 q 166 103 281 -11 q 51 392 51 218 l 51 393 q 166 681 51 567 q 450 796 281 796 q 734 681 619 796 q 849 393 849 567 m 244 137 q 284 87 244 137 q 450 38 324 38 q 656 137 576 38 q 736 393 736 236 q 656 648 736 549 q 450 747 576 747 q 244 648 324 747 q 164 393 164 549 q 244 137 164 236 z "},"p":{"ha":903,"x_min":51,"x_max":850,"o":"m 465 796 q 740 692 631 796 q 850 415 850 589 q 742 114 850 239 q 456 -11 633 -11 q 224 81 314 -11 l 224 -114 q 296 -262 224 -240 l 51 -262 q 108 -215 93 -251 q 124 -114 124 -178 l 124 619 q 85 781 124 733 l 218 793 l 218 708 q 465 796 310 796 m 468 36 q 669 129 594 36 q 743 381 743 222 q 664 644 743 539 q 440 749 585 749 q 224 639 304 749 l 224 206 q 468 36 297 36 z "},"q":{"ha":900,"x_min":53,"x_max":850,"o":"m 606 -262 q 663 -215 647 -251 q 678 -114 678 -178 l 678 96 q 435 -11 597 -11 q 163 96 274 -11 q 53 378 53 203 q 163 674 53 553 q 450 796 274 796 q 688 714 589 796 l 799 796 l 803 793 q 778 606 778 707 l 778 -114 q 850 -262 778 -240 l 606 -262 m 460 38 q 678 158 607 38 l 678 575 q 438 747 601 747 q 235 663 311 747 q 160 425 160 578 q 242 150 160 263 q 460 38 324 38 z "},"r":{"ha":606,"x_min":57,"x_max":565,"o":"m 490 793 q 565 783 528 793 l 564 647 q 411 715 493 715 q 229 560 290 715 l 229 149 q 301 0 229 22 l 57 0 q 114 48 99 11 q 129 149 129 85 l 129 619 q 90 781 129 733 l 229 793 l 229 631 q 490 793 317 793 z "},"s":{"ha":682,"x_min":64,"x_max":626,"o":"m 157 618 q 292 483 157 524 l 435 439 q 497 417 474 426 q 555 384 519 407 q 608 324 590 361 q 626 236 626 286 q 547 59 626 129 q 332 -11 468 -11 q 64 64 167 -11 l 78 292 q 173 97 110 157 q 336 38 236 38 q 486 82 431 38 q 542 199 542 126 q 531 253 542 231 q 497 292 519 276 q 455 315 474 307 q 404 333 436 324 l 256 381 q 85 589 85 435 q 151 741 85 686 q 331 796 217 796 q 583 713 485 796 l 578 535 q 322 749 493 749 q 201 713 246 749 q 157 618 157 676 z "},"t":{"ha":479,"x_min":17,"x_max":453,"o":"m 453 743 l 233 743 l 233 158 q 318 36 233 36 q 424 96 376 36 l 450 72 q 413 33 429 47 q 363 4 397 18 q 288 -10 329 -10 q 212 5 243 -10 q 165 36 181 19 q 142 84 150 53 q 134 131 135 115 q 133 175 133 146 l 133 743 l 17 743 l 17 785 l 131 785 l 233 1011 l 233 785 l 453 785 l 453 743 z "},"u":{"ha":836,"x_min":61,"x_max":764,"o":"m 764 0 l 631 -4 l 631 161 q 354 -11 550 -11 q 171 47 242 -11 q 100 229 100 104 l 100 619 q 61 781 100 733 l 200 793 l 200 256 q 374 38 200 38 q 513 81 454 38 q 596 180 571 124 q 625 297 621 236 l 625 619 q 586 781 625 733 l 725 793 l 725 151 q 764 0 725 39 z "},"v":{"ha":785,"x_min":14,"x_max":772,"o":"m 613 785 l 772 785 q 665 631 722 769 l 410 0 l 382 0 l 118 617 q 14 785 56 763 l 193 785 q 204 653 157 763 l 421 147 l 594 582 q 625 672 615 633 q 637 728 635 710 q 632 760 639 746 q 623 776 625 775 q 613 785 621 778 z "},"w":{"ha":1114,"x_min":8,"x_max":1097,"o":"m 946 785 l 1097 785 q 1006 617 1049 753 l 810 0 l 788 0 l 546 610 l 347 0 l 325 0 l 106 613 q 8 785 50 769 l 190 785 q 196 649 156 758 l 363 185 l 557 786 l 581 786 l 822 178 l 943 564 q 969 663 961 621 q 977 726 976 706 q 970 760 978 746 q 959 777 963 775 q 946 785 956 779 z "},"x":{"ha":768,"x_min":14,"x_max":753,"o":"m 569 0 q 583 14 579 8 q 581 41 586 19 q 554 94 576 63 l 364 361 l 208 147 q 174 93 186 117 q 156 56 161 69 q 153 30 151 42 q 157 15 154 18 q 167 6 160 11 l 172 0 l 14 0 q 25 9 15 1 q 46 26 35 17 q 73 51 57 36 q 110 91 89 67 q 153 146 131 115 l 339 397 l 154 656 q 133 687 146 668 q 113 714 119 706 q 97 735 107 722 q 82 754 88 749 q 69 767 76 760 q 56 778 63 774 q 43 785 50 782 l 229 785 q 243 689 197 753 l 400 467 l 526 646 q 555 690 543 671 q 571 723 567 710 q 577 746 575 736 q 576 763 579 756 q 570 773 572 769 q 563 780 568 776 q 557 785 558 783 l 725 785 q 594 667 651 746 l 425 432 l 642 126 q 661 99 649 117 q 680 73 674 81 q 695 52 686 65 q 710 33 704 39 q 724 19 717 26 q 739 7 732 11 q 753 0 746 3 l 569 0 z "},"y":{"ha":760,"x_min":14,"x_max":747,"o":"m 596 785 l 747 785 q 647 626 699 753 l 383 -24 q 161 -242 303 -221 l 104 -100 q 253 -110 183 -143 q 358 15 322 -76 l 74 700 q 14 785 46 768 l 188 785 q 185 688 156 758 l 407 142 l 600 624 q 613 660 608 643 q 622 690 618 676 q 625 714 625 703 q 625 733 625 725 q 623 749 625 742 q 619 761 621 757 q 613 770 617 765 q 607 776 608 775 q 600 781 606 778 l 596 785 z "},"z":{"ha":710,"x_min":33,"x_max":661,"o":"m 351 42 q 562 90 500 42 q 661 297 624 138 l 635 0 l 33 0 l 510 743 l 346 743 q 261 740 293 743 q 192 727 229 738 q 132 695 154 717 q 91 635 110 674 q 63 540 72 597 l 78 785 l 646 785 l 169 42 l 351 42 z "},"{":{"ha":463,"x_min":33,"x_max":426,"o":"m 33 475 l 33 489 q 135 697 135 547 l 135 968 q 164 1067 135 1036 q 258 1097 193 1097 l 426 1097 l 426 1060 l 251 1060 q 197 1041 211 1060 q 182 968 182 1022 l 182 706 q 160 568 182 618 q 83 482 139 518 q 160 396 139 446 q 182 258 182 346 l 182 -36 q 197 -109 182 -90 q 251 -128 211 -128 l 426 -128 l 426 -165 l 258 -165 q 164 -135 193 -165 q 135 -36 135 -104 l 135 265 q 33 475 135 417 z "},"|":{"ha":208,"x_min":82,"x_max":126,"o":"m 82 1119 l 126 1119 l 126 -161 l 82 -161 l 82 1119 z "},"}":{"ha":463,"x_min":36,"x_max":429,"o":"m 429 475 q 328 265 328 417 l 328 -36 q 299 -135 328 -104 q 204 -165 269 -165 l 36 -165 l 36 -128 l 211 -128 q 266 -109 251 -128 q 281 -36 281 -90 l 281 258 q 302 396 281 346 q 379 482 324 446 q 302 568 324 518 q 281 706 281 618 l 281 968 q 266 1041 281 1022 q 211 1060 251 1060 l 36 1060 l 36 1097 l 204 1097 q 299 1067 269 1097 q 328 968 328 1036 l 328 697 q 429 489 328 547 l 429 475 z "},"~":{"ha":831,"x_min":129,"x_max":701,"o":"m 694 579 q 663 426 701 483 q 547 369 624 369 q 456 399 494 369 q 399 463 418 428 q 349 526 379 497 q 281 556 318 556 q 203 511 229 556 q 182 386 178 467 l 136 386 q 168 539 129 482 q 283 596 207 596 q 374 567 336 596 q 432 503 413 538 q 482 439 451 468 q 550 410 513 410 q 627 454 601 410 q 649 579 653 499 l 694 579 z "}," ":{"ha":400,"x_min":0,"x_max":0,"o":""},"¡":{"ha":363,"x_min":121,"x_max":243,"o":"m 141 778 q 149 786 141 778 q 182 794 157 794 q 223 778 207 794 q 239 739 239 763 q 223 700 239 715 q 182 685 207 685 q 141 700 157 685 q 125 739 125 715 q 141 778 125 763 m 181 -187 q 136 -167 151 -187 q 122 -110 121 -146 q 146 233 129 -3 q 168 542 163 468 l 194 542 q 217 233 200 468 q 240 -110 233 -3 q 227 -167 243 -146 q 181 -187 211 -187 z "},"¢":{"ha":899,"x_min":100,"x_max":788,"o":"m 788 394 l 782 178 q 656 108 738 136 q 493 79 574 81 l 493 -76 l 450 -76 l 450 81 q 201 201 301 93 q 100 482 100 308 q 195 758 100 646 q 450 885 290 871 l 450 1042 l 493 1042 l 493 886 q 655 857 578 885 q 779 778 732 829 l 750 572 q 493 838 688 829 l 493 128 q 674 200 599 129 q 788 394 749 271 m 213 483 q 277 236 213 328 q 450 131 342 144 l 450 836 q 276 731 340 824 q 213 483 213 638 z "},"£":{"ha":833,"x_min":97,"x_max":718,"o":"m 444 89 q 642 110 592 89 q 718 208 692 132 l 711 0 l 117 0 l 117 35 q 237 206 204 143 q 269 339 269 269 q 260 422 269 376 l 97 422 l 97 456 l 244 468 q 203 558 232 501 q 159 660 175 614 q 143 754 143 707 q 219 916 143 858 q 417 974 296 974 q 685 900 549 974 l 689 629 q 415 925 626 925 q 253 750 253 915 q 267 656 253 703 q 305 556 282 608 q 338 471 328 503 l 615 471 l 615 422 l 347 422 q 350 388 350 400 q 215 89 350 243 l 444 89 z "},"¤":{"ha":839,"x_min":106,"x_max":735,"o":"m 678 469 q 617 303 678 371 l 733 186 l 703 154 l 588 275 q 421 218 518 218 q 253 274 324 218 l 136 156 l 106 186 l 224 301 q 161 469 161 371 q 224 639 161 569 l 106 754 l 136 785 l 253 667 q 421 722 326 722 q 588 665 518 722 l 704 783 l 735 753 l 617 638 q 678 469 678 567 m 262 628 q 231 597 262 628 q 200 469 200 565 q 262 312 200 374 q 421 250 324 250 q 578 312 517 250 q 639 469 639 374 q 578 628 639 565 q 421 690 517 690 q 262 628 324 690 z "},"¥":{"ha":953,"x_min":35,"x_max":918,"o":"m 760 965 l 918 965 q 796 832 876 953 l 546 449 l 768 449 l 768 403 l 526 403 l 526 331 l 754 331 l 754 285 l 526 285 l 526 136 q 542 44 526 75 q 601 0 558 14 l 349 0 q 408 43 392 13 q 424 136 424 74 l 424 285 l 181 285 l 181 331 l 424 331 l 424 403 l 167 403 l 167 449 l 396 449 l 168 806 q 35 965 81 943 l 235 965 q 254 847 197 935 l 500 460 l 711 786 q 744 842 731 817 q 765 884 758 867 q 774 913 771 901 q 774 935 776 925 q 771 949 772 944 q 765 958 769 953 q 760 965 760 964 z "},"¦":{"ha":208,"x_min":82,"x_max":126,"o":"m 82 1119 l 126 1119 l 126 619 l 82 619 l 82 1119 m 82 -161 l 82 340 l 126 340 l 126 -161 l 82 -161 z "},"§":{"ha":772,"x_min":104,"x_max":672,"o":"m 481 278 q 533 256 517 264 q 580 225 549 247 q 626 170 611 203 q 640 94 640 138 q 565 -58 640 -1 q 375 -114 490 -114 q 124 -31 232 -114 l 131 144 q 224 -8 158 50 q 382 -67 290 -67 q 511 -34 453 -67 q 569 57 569 -1 q 558 104 569 83 q 521 140 547 125 q 483 161 494 156 q 436 179 471 167 l 303 229 q 240 255 261 244 q 180 291 218 265 q 123 356 142 317 q 104 447 104 394 q 160 597 104 536 q 317 676 215 658 l 296 685 q 138 883 138 749 q 204 1024 138 971 q 379 1076 271 1076 q 633 993 525 1076 l 626 818 q 381 1029 547 1029 q 258 999 308 1029 q 208 917 208 969 q 232 852 208 881 q 280 810 256 824 q 340 783 304 797 l 474 733 q 537 708 515 718 q 597 672 558 697 q 653 607 635 646 q 672 515 672 568 q 617 366 672 428 q 460 286 561 304 l 481 278 m 188 489 q 200 424 188 451 q 242 378 213 397 q 284 354 271 360 q 332 336 297 349 l 393 314 q 589 474 589 331 q 576 538 589 511 q 535 584 564 565 q 492 608 506 603 q 444 626 479 614 l 383 649 q 188 489 188 632 z "},"©":{"ha":1171,"x_min":75,"x_max":1096,"o":"m 221 838 q 294 909 221 838 q 586 981 367 981 q 951 838 806 981 q 1096 482 1096 696 q 951 126 1096 268 q 586 -15 806 -15 q 221 126 367 -15 q 75 482 75 268 q 221 838 75 696 m 260 153 q 325 88 260 153 q 586 22 390 22 q 911 153 782 22 q 1040 482 1040 283 q 910 812 1040 681 q 586 943 781 943 q 260 812 390 943 q 131 482 131 681 q 260 153 131 283 m 600 243 q 728 292 675 243 q 807 421 781 340 l 808 269 q 709 217 768 236 q 599 197 650 197 q 391 279 474 197 q 308 483 308 361 q 391 688 308 606 q 594 769 474 769 q 717 747 654 769 q 813 693 779 725 l 790 532 q 701 678 749 631 q 593 725 654 725 q 472 663 513 725 q 431 493 431 600 q 477 310 431 376 q 600 243 524 243 z "},"ª":{"ha":611,"x_min":69,"x_max":556,"o":"m 556 411 l 419 407 l 419 528 q 235 406 360 406 q 113 444 157 406 q 69 543 69 482 q 87 609 69 579 q 126 658 104 639 q 187 693 149 676 q 249 717 225 710 q 310 733 272 724 l 415 761 l 415 807 q 307 938 415 938 q 99 736 182 938 l 92 894 q 187 952 126 931 q 313 974 247 974 q 460 929 410 974 q 510 803 510 885 l 510 506 q 556 411 510 440 m 414 653 l 414 721 l 321 696 q 181 549 181 657 q 204 472 181 500 q 265 443 228 443 q 369 504 325 443 q 414 653 414 565 z "},"«":{"ha":853,"x_min":38,"x_max":808,"o":"m 407 850 l 438 817 l 94 482 l 438 150 l 407 117 l 38 482 l 407 850 m 778 850 l 808 817 l 465 482 l 808 150 l 778 117 l 408 482 l 778 850 z "},"¬":{"ha":897,"x_min":104,"x_max":793,"o":"m 793 504 l 793 256 l 751 256 l 751 460 l 104 460 l 104 504 l 793 504 z "},"­":{"ha":694,"x_min":104,"x_max":590,"o":"m 104 544 l 590 544 l 590 499 l 104 499 l 104 544 z "},"®":{"ha":1169,"x_min":75,"x_max":1094,"o":"m 220 839 q 293 910 220 839 q 585 981 365 981 q 949 838 804 981 q 1094 482 1094 696 q 949 126 1094 268 q 585 -15 804 -15 q 220 126 365 -15 q 75 482 75 268 q 220 839 75 697 m 260 153 q 324 88 260 153 q 585 22 389 22 q 910 153 781 22 q 1039 482 1039 283 q 910 812 1039 681 q 585 943 781 943 q 260 812 389 943 q 131 482 131 681 q 260 153 131 283 m 750 342 q 849 215 832 226 l 694 215 q 697 258 706 235 q 653 332 689 282 l 563 458 l 515 458 l 515 314 q 524 242 515 260 q 557 215 532 224 l 379 215 q 414 241 406 222 q 422 314 422 260 l 422 651 q 414 724 422 706 q 379 750 406 743 l 597 750 q 736 718 678 750 q 794 614 794 686 q 756 519 794 557 q 660 467 718 482 l 750 342 m 515 708 l 515 499 l 583 499 q 669 531 638 499 q 700 608 700 563 q 667 682 700 656 q 575 708 633 708 l 515 708 z "},"°":{"ha":614,"x_min":122,"x_max":492,"o":"m 439 663 q 413 637 439 663 q 307 611 386 611 q 175 663 228 611 q 122 794 122 715 q 175 925 122 874 q 307 976 228 976 q 439 925 386 976 q 492 794 492 874 q 439 663 492 715 m 206 690 q 226 669 206 690 q 307 649 246 649 q 408 690 368 649 q 447 794 447 731 q 408 899 447 858 q 307 939 368 939 q 206 899 246 939 q 167 794 167 858 q 206 690 167 731 z "},"±":{"ha":954,"x_min":104,"x_max":850,"o":"m 499 575 l 850 575 l 850 532 l 499 532 l 499 250 l 457 250 l 457 532 l 104 532 l 104 575 l 457 575 l 457 857 l 499 857 l 499 575 m 104 114 l 104 157 l 850 157 l 850 114 l 104 114 z "},"µ":{"ha":956,"x_min":106,"x_max":847,"o":"m 847 0 l 711 -4 l 711 161 q 451 -11 633 -11 q 281 44 346 -11 l 281 -114 q 353 -262 281 -240 l 106 -262 q 163 -215 147 -251 q 178 -114 178 -178 l 178 619 q 139 781 178 733 l 281 793 l 281 256 q 471 38 281 38 q 575 62 529 38 q 647 126 621 86 q 688 210 674 167 q 706 297 703 253 l 706 619 q 667 781 706 733 l 808 793 l 808 151 q 847 0 808 39 z "},"¶":{"ha":614,"x_min":60,"x_max":532,"o":"m 407 965 l 407 -119 l 363 -119 l 363 457 l 358 457 q 142 528 225 457 q 60 718 60 600 q 140 897 60 829 q 343 965 221 965 l 407 965 m 488 965 l 532 965 l 532 -119 l 488 -119 l 488 965 z "},"·":{"ha":386,"x_min":136,"x_max":250,"o":"m 234 373 q 226 365 234 373 q 193 357 218 357 q 152 373 168 357 q 136 413 136 389 q 152 451 136 436 q 193 467 168 467 q 234 451 218 467 q 250 413 250 436 q 234 373 250 389 z "},"º":{"ha":693,"x_min":58,"x_max":635,"o":"m 347 974 q 553 892 472 974 q 635 685 635 811 q 554 478 635 558 q 347 397 474 397 q 140 478 221 397 q 58 685 58 558 q 139 893 58 813 q 347 974 219 974 m 483 498 q 508 532 483 498 q 533 685 533 565 q 485 872 533 804 q 347 939 436 939 q 210 872 260 939 q 160 685 160 804 q 209 497 160 564 q 347 431 258 431 q 483 498 433 431 z "},"»":{"ha":853,"x_min":44,"x_max":815,"o":"m 75 850 l 444 482 l 75 117 l 44 150 l 388 482 l 44 817 l 75 850 m 446 850 l 815 482 l 446 117 l 415 150 l 758 482 l 415 817 l 446 850 z "},"¿":{"ha":590,"x_min":68,"x_max":517,"o":"m 374 701 q 366 694 374 701 q 333 686 358 686 q 292 701 308 686 q 276 740 276 717 q 292 780 276 764 q 333 796 308 796 q 374 780 358 796 q 390 740 390 764 q 374 701 390 717 m 297 -137 q 517 90 456 -137 l 508 -124 q 290 -186 407 -186 q 129 -146 190 -186 q 68 -28 68 -106 q 96 78 68 28 q 162 172 124 129 q 238 263 200 215 q 300 383 276 311 q 319 540 324 454 l 344 540 q 336 350 351 432 q 293 220 321 268 q 236 135 265 172 q 186 60 207 99 q 165 -22 165 21 q 297 -137 165 -137 z "},"À":{"ha":1046,"x_min":35,"x_max":1010,"o":"m 529 1056 l 507 1056 l 354 1289 l 460 1289 l 529 1056 m 799 0 q 806 139 860 24 l 711 343 l 279 343 l 190 142 q 185 0 138 21 l 35 0 q 84 47 57 7 q 165 208 111 86 l 500 965 l 528 965 l 928 107 q 1010 0 972 11 l 799 0 m 299 388 l 692 388 l 490 824 l 299 388 z "},"Á":{"ha":1046,"x_min":35,"x_max":1010,"o":"m 688 1289 l 535 1056 l 513 1056 l 582 1289 l 688 1289 m 799 0 q 806 139 860 24 l 711 343 l 279 343 l 190 142 q 185 0 138 21 l 35 0 q 84 47 57 7 q 165 208 111 86 l 500 965 l 528 965 l 928 107 q 1010 0 972 11 l 799 0 m 299 388 l 692 388 l 490 824 l 299 388 z "},"Â":{"ha":1046,"x_min":35,"x_max":1010,"o":"m 525 1194 l 367 1067 l 353 1081 l 522 1300 l 528 1300 l 699 1081 l 685 1067 l 525 1194 m 799 0 q 806 139 860 24 l 711 343 l 279 343 l 190 142 q 185 0 138 21 l 35 0 q 84 47 57 7 q 165 208 111 86 l 500 965 l 528 965 l 928 107 q 1010 0 972 11 l 799 0 m 299 388 l 692 388 l 490 824 l 299 388 z "},"Ã":{"ha":1046,"x_min":35,"x_max":1010,"o":"m 344 1110 l 325 1110 q 356 1208 322 1172 q 449 1243 389 1243 q 519 1226 493 1243 q 554 1188 546 1208 q 578 1151 563 1168 q 621 1133 594 1133 q 669 1160 653 1133 q 683 1233 685 1186 l 703 1233 q 673 1135 706 1171 q 579 1100 640 1100 q 519 1111 543 1100 q 483 1138 494 1122 q 463 1170 472 1154 q 440 1197 454 1186 q 404 1208 426 1208 q 344 1110 340 1208 m 799 0 q 806 139 860 24 l 711 343 l 279 343 l 190 142 q 185 0 138 21 l 35 0 q 84 47 57 7 q 165 208 111 86 l 500 965 l 528 965 l 928 107 q 1010 0 972 11 l 799 0 m 299 388 l 692 388 l 490 824 l 299 388 z "},"Ä":{"ha":1046,"x_min":35,"x_max":1010,"o":"m 474 1098 q 464 1087 474 1098 q 418 1076 453 1076 q 361 1098 383 1076 q 339 1153 339 1119 q 361 1208 339 1186 q 418 1229 383 1229 q 474 1208 453 1229 q 496 1153 496 1186 q 474 1098 496 1119 m 625 1076 q 568 1098 590 1076 q 546 1153 546 1119 q 568 1208 546 1186 q 625 1229 590 1229 q 681 1208 658 1229 q 703 1153 703 1186 q 681 1098 703 1119 q 625 1076 658 1076 m 799 0 q 806 139 860 24 l 711 343 l 279 343 l 190 142 q 185 0 138 21 l 35 0 q 84 47 57 7 q 165 208 111 86 l 500 965 l 528 965 l 928 107 q 1010 0 972 11 l 799 0 m 299 388 l 692 388 l 490 824 l 299 388 z "},"Å":{"ha":1046,"x_min":35,"x_max":1010,"o":"m 521 1058 q 421 1096 460 1058 q 382 1192 382 1133 q 421 1288 382 1250 q 521 1325 460 1325 q 619 1288 581 1325 q 658 1192 658 1250 q 619 1096 658 1133 q 521 1058 581 1058 m 521 1297 q 446 1268 475 1297 q 417 1192 417 1239 q 446 1115 417 1144 q 521 1086 475 1086 q 594 1115 565 1086 q 624 1192 624 1144 q 594 1268 624 1239 q 521 1297 565 1297 m 799 0 q 806 139 860 24 l 711 343 l 279 343 l 190 142 q 185 0 138 21 l 35 0 q 84 47 57 7 q 165 208 111 86 l 500 965 l 528 965 l 928 107 q 1010 0 972 11 l 799 0 m 299 388 l 692 388 l 490 824 l 299 388 z "},"Æ":{"ha":1167,"x_min":35,"x_max":1090,"o":"m 775 51 q 992 92 929 51 q 1090 257 1056 133 l 1065 0 l 490 0 q 529 52 517 15 q 535 181 542 89 l 524 326 l 269 326 l 194 142 q 192 0 144 21 l 35 0 q 63 17 50 6 q 103 76 76 29 q 165 208 129 124 l 488 965 l 1028 965 l 1058 717 q 955 875 1024 836 q 728 914 886 914 l 579 914 l 607 543 l 689 543 q 876 568 826 543 q 949 651 926 593 l 933 383 q 874 472 919 446 q 686 499 828 499 l 610 499 l 643 51 l 775 51 m 288 371 l 521 371 l 485 836 l 288 371 z "},"Ç":{"ha":969,"x_min":75,"x_max":876,"o":"m 876 90 q 574 -10 761 -1 l 553 -54 q 638 -76 603 -53 q 672 -144 672 -100 q 643 -215 672 -186 q 561 -244 614 -244 q 472 -217 508 -244 l 476 -136 q 509 -187 486 -167 q 558 -208 532 -208 q 597 -192 582 -208 q 611 -150 611 -176 q 588 -97 611 -119 q 522 -81 565 -75 l 540 -11 q 203 135 332 -10 q 75 485 75 281 q 201 831 75 689 q 531 974 328 974 q 854 889 706 974 l 876 583 q 740 837 833 749 q 526 925 647 925 q 286 812 379 925 q 193 486 193 699 q 288 156 193 275 q 543 38 383 38 q 875 253 765 38 l 876 90 z "},"È":{"ha":842,"x_min":82,"x_max":765,"o":"m 446 1056 l 424 1056 l 271 1289 l 376 1289 l 446 1056 m 450 51 q 667 92 604 51 q 765 257 731 133 l 740 0 l 82 0 q 144 45 126 13 q 163 139 163 78 l 163 832 q 149 924 163 896 q 93 965 136 953 l 711 965 l 742 717 q 638 875 707 836 q 411 914 569 914 l 265 914 l 265 543 l 364 543 q 551 568 501 543 q 624 651 601 593 l 608 383 q 549 472 594 446 q 361 499 503 499 l 265 499 l 265 51 l 450 51 z "},"É":{"ha":842,"x_min":82,"x_max":765,"o":"m 604 1289 l 451 1056 l 429 1056 l 499 1289 l 604 1289 m 450 51 q 667 92 604 51 q 765 257 731 133 l 740 0 l 82 0 q 144 45 126 13 q 163 139 163 78 l 163 832 q 149 924 163 896 q 93 965 136 953 l 711 965 l 742 717 q 638 875 707 836 q 411 914 569 914 l 265 914 l 265 543 l 364 543 q 551 568 501 543 q 624 651 601 593 l 608 383 q 549 472 594 446 q 361 499 503 499 l 265 499 l 265 51 l 450 51 z "},"Ê":{"ha":842,"x_min":82,"x_max":765,"o":"m 442 1194 l 283 1067 l 269 1081 l 439 1300 l 444 1300 l 615 1081 l 601 1067 l 442 1194 m 450 51 q 667 92 604 51 q 765 257 731 133 l 740 0 l 82 0 q 144 45 126 13 q 163 139 163 78 l 163 832 q 149 924 163 896 q 93 965 136 953 l 711 965 l 742 717 q 638 875 707 836 q 411 914 569 914 l 265 914 l 265 543 l 364 543 q 551 568 501 543 q 624 651 601 593 l 608 383 q 549 472 594 446 q 361 499 503 499 l 265 499 l 265 51 l 450 51 z "},"Ë":{"ha":842,"x_min":82,"x_max":765,"o":"m 391 1098 q 380 1087 391 1098 q 335 1076 369 1076 q 278 1098 300 1076 q 256 1153 256 1119 q 278 1208 256 1186 q 335 1229 300 1229 q 391 1208 369 1229 q 413 1153 413 1186 q 391 1098 413 1119 m 542 1076 q 485 1098 507 1076 q 463 1153 463 1119 q 485 1208 463 1186 q 542 1229 507 1229 q 597 1208 575 1229 q 619 1153 619 1186 q 597 1098 619 1119 q 542 1076 575 1076 m 450 51 q 667 92 604 51 q 765 257 731 133 l 740 0 l 82 0 q 144 45 126 13 q 163 139 163 78 l 163 832 q 149 924 163 896 q 93 965 136 953 l 711 965 l 742 717 q 638 875 707 836 q 411 914 569 914 l 265 914 l 265 543 l 364 543 q 551 568 501 543 q 624 651 601 593 l 608 383 q 549 472 594 446 q 361 499 503 499 l 265 499 l 265 51 l 450 51 z "},"Ì":{"ha":413,"x_min":40,"x_max":333,"o":"m 40 1289 l 146 1289 l 215 1056 l 193 1056 l 40 1289 m 260 178 q 275 50 260 86 q 333 0 290 14 l 82 0 q 142 49 126 13 q 157 178 157 86 l 157 788 q 142 916 157 879 q 82 965 126 953 l 333 965 q 275 915 290 951 q 260 788 260 879 l 260 178 z "},"Í":{"ha":413,"x_min":82,"x_max":374,"o":"m 374 1289 l 221 1056 l 199 1056 l 268 1289 l 374 1289 m 260 178 q 275 50 260 86 q 333 0 290 14 l 82 0 q 142 49 126 13 q 157 178 157 86 l 157 788 q 142 916 157 879 q 82 965 126 953 l 333 965 q 275 915 290 951 q 260 788 260 879 l 260 178 z "},"Î":{"ha":413,"x_min":39,"x_max":385,"o":"m 371 1067 l 211 1194 l 53 1067 l 39 1081 l 208 1300 l 214 1300 l 385 1081 l 371 1067 m 260 178 q 275 50 260 86 q 333 0 290 14 l 82 0 q 142 49 126 13 q 157 178 157 86 l 157 788 q 142 916 157 879 q 82 965 126 953 l 333 965 q 275 915 290 951 q 260 788 260 879 l 260 178 z "},"Ï":{"ha":413,"x_min":25,"x_max":389,"o":"m 160 1098 q 150 1087 160 1098 q 104 1076 139 1076 q 47 1098 69 1076 q 25 1153 25 1119 q 47 1208 25 1186 q 104 1229 69 1229 q 160 1208 139 1229 q 182 1153 182 1186 q 160 1098 182 1119 m 311 1076 q 254 1098 276 1076 q 232 1153 232 1119 q 254 1208 232 1186 q 311 1229 276 1229 q 367 1208 344 1229 q 389 1153 389 1186 q 367 1098 389 1119 q 311 1076 344 1076 m 260 178 q 275 50 260 86 q 333 0 290 14 l 82 0 q 142 49 126 13 q 157 178 157 86 l 157 788 q 142 916 157 879 q 82 965 126 953 l 333 965 q 275 915 290 951 q 260 788 260 879 l 260 178 z "},"Ð":{"ha":1039,"x_min":46,"x_max":964,"o":"m 458 965 q 826 835 689 965 q 964 489 964 706 q 826 135 964 269 q 458 0 688 0 l 92 0 q 154 45 136 13 q 172 139 172 78 l 172 469 l 46 469 l 46 511 l 172 511 l 172 832 q 159 924 172 896 q 103 965 146 953 l 458 965 m 453 51 q 739 161 633 51 q 844 486 844 271 q 740 807 844 700 q 453 914 635 914 l 275 914 l 275 511 l 488 511 l 488 469 l 275 469 l 275 51 l 453 51 z "},"Ñ":{"ha":1086,"x_min":79,"x_max":1011,"o":"m 388 1110 l 368 1110 q 399 1208 365 1172 q 492 1243 432 1243 q 563 1226 536 1243 q 597 1188 589 1208 q 622 1151 606 1168 q 664 1133 638 1133 q 712 1160 696 1133 q 726 1233 728 1186 l 746 1233 q 716 1135 749 1171 q 622 1100 683 1100 q 562 1111 586 1100 q 526 1138 538 1122 q 506 1170 515 1154 q 483 1197 497 1186 q 447 1208 469 1208 q 388 1110 383 1208 m 808 965 l 1011 965 q 952 908 968 949 q 936 788 936 867 l 936 0 l 913 0 l 207 846 l 207 178 q 223 58 207 99 q 282 0 239 17 l 79 0 q 138 56 122 17 q 154 178 154 96 l 154 801 q 138 915 154 878 q 79 965 122 951 l 242 965 l 883 178 l 883 788 q 867 909 883 869 q 808 965 851 949 z "},"Ò":{"ha":1081,"x_min":75,"x_max":1006,"o":"m 550 1056 l 528 1056 l 375 1289 l 481 1289 l 550 1056 m 203 837 q 268 907 203 837 q 540 978 332 978 q 877 837 749 978 q 1006 483 1006 696 q 877 130 1006 271 q 540 -11 749 -11 q 203 130 332 -11 q 75 483 75 271 q 203 837 75 696 m 288 154 q 336 97 288 154 q 540 40 383 40 q 792 154 697 40 q 888 483 888 268 q 792 813 888 699 q 540 926 697 926 q 288 813 383 926 q 193 483 193 699 q 288 154 193 268 z "},"Ó":{"ha":1081,"x_min":75,"x_max":1006,"o":"m 708 1289 l 556 1056 l 533 1056 l 603 1289 l 708 1289 m 203 837 q 268 907 203 837 q 540 978 332 978 q 877 837 749 978 q 1006 483 1006 696 q 877 130 1006 271 q 540 -11 749 -11 q 203 130 332 -11 q 75 483 75 271 q 203 837 75 696 m 288 154 q 336 97 288 154 q 540 40 383 40 q 792 154 697 40 q 888 483 888 268 q 792 813 888 699 q 540 926 697 926 q 288 813 383 926 q 193 483 193 699 q 288 154 193 268 z "},"Ô":{"ha":1081,"x_min":75,"x_max":1006,"o":"m 546 1194 l 388 1067 l 374 1081 l 543 1300 l 549 1300 l 719 1081 l 706 1067 l 546 1194 m 203 837 q 268 907 203 837 q 540 978 332 978 q 877 837 749 978 q 1006 483 1006 696 q 877 130 1006 271 q 540 -11 749 -11 q 203 130 332 -11 q 75 483 75 271 q 203 837 75 696 m 288 154 q 336 97 288 154 q 540 40 383 40 q 792 154 697 40 q 888 483 888 268 q 792 813 888 699 q 540 926 697 926 q 288 813 383 926 q 193 483 193 699 q 288 154 193 268 z "},"Õ":{"ha":1081,"x_min":75,"x_max":1006,"o":"m 365 1110 l 346 1110 q 376 1208 343 1172 q 469 1243 410 1243 q 540 1226 514 1243 q 575 1188 567 1208 q 599 1151 583 1168 q 642 1133 615 1133 q 690 1160 674 1133 q 704 1233 706 1186 l 724 1233 q 694 1135 726 1171 q 600 1100 661 1100 q 540 1111 564 1100 q 504 1138 515 1122 q 484 1170 493 1154 q 461 1197 475 1186 q 425 1208 447 1208 q 365 1110 361 1208 m 203 837 q 268 907 203 837 q 540 978 332 978 q 877 837 749 978 q 1006 483 1006 696 q 877 130 1006 271 q 540 -11 749 -11 q 203 130 332 -11 q 75 483 75 271 q 203 837 75 696 m 288 154 q 336 97 288 154 q 540 40 383 40 q 792 154 697 40 q 888 483 888 268 q 792 813 888 699 q 540 926 697 926 q 288 813 383 926 q 193 483 193 699 q 288 154 193 268 z "},"Ö":{"ha":1081,"x_min":75,"x_max":1006,"o":"m 495 1149 q 484 1139 495 1149 q 439 1128 474 1128 q 382 1149 404 1128 q 360 1204 360 1171 q 382 1259 360 1238 q 439 1281 404 1281 q 495 1259 474 1281 q 517 1204 517 1238 q 495 1149 517 1171 m 646 1128 q 589 1149 611 1128 q 567 1204 567 1171 q 589 1259 567 1238 q 646 1281 611 1281 q 701 1259 679 1281 q 724 1204 724 1238 q 701 1149 724 1171 q 646 1128 679 1128 m 203 837 q 268 907 203 837 q 540 978 332 978 q 877 837 749 978 q 1006 483 1006 696 q 877 130 1006 271 q 540 -11 749 -11 q 203 130 332 -11 q 75 483 75 271 q 203 837 75 696 m 288 154 q 336 97 288 154 q 540 40 383 40 q 792 154 697 40 q 888 483 888 268 q 792 813 888 699 q 540 926 697 926 q 288 813 383 926 q 193 483 193 699 q 288 154 193 268 z "},"×":{"ha":739,"x_min":81,"x_max":657,"o":"m 657 738 l 400 481 l 656 224 l 626 194 l 371 451 l 113 193 l 83 222 l 342 481 l 81 740 l 110 769 l 371 510 l 628 767 l 657 738 z "},"Ø":{"ha":1081,"x_min":75,"x_max":1006,"o":"m 863 851 q 1006 483 1006 713 q 877 130 1006 271 q 540 -11 749 -11 q 235 100 360 -11 l 142 -11 l 114 14 l 207 125 q 75 483 75 265 q 203 837 75 696 q 540 978 332 978 q 835 876 714 978 l 919 978 l 947 953 l 863 851 m 193 483 q 263 192 193 303 l 786 819 q 540 926 694 926 q 288 813 383 926 q 193 483 193 699 m 540 40 q 792 154 697 40 q 888 483 888 268 q 810 789 888 675 l 285 160 q 540 40 376 40 z "},"Ù":{"ha":965,"x_min":64,"x_max":904,"o":"m 336 1289 l 442 1289 l 511 1056 l 489 1056 l 336 1289 m 904 965 q 846 919 863 950 q 829 829 829 888 l 829 371 q 746 84 829 179 q 488 -11 663 -11 q 139 349 139 -11 l 139 829 q 123 922 139 892 q 64 965 107 953 l 317 965 q 258 921 274 951 q 242 829 242 890 l 242 379 q 508 38 242 38 q 778 375 778 38 l 778 829 q 762 922 778 892 q 703 965 746 953 l 904 965 z "},"Ú":{"ha":965,"x_min":64,"x_max":904,"o":"m 669 1289 l 517 1056 l 494 1056 l 564 1289 l 669 1289 m 904 965 q 846 919 863 950 q 829 829 829 888 l 829 371 q 746 84 829 179 q 488 -11 663 -11 q 139 349 139 -11 l 139 829 q 123 922 139 892 q 64 965 107 953 l 317 965 q 258 921 274 951 q 242 829 242 890 l 242 379 q 508 38 242 38 q 778 375 778 38 l 778 829 q 762 922 778 892 q 703 965 746 953 l 904 965 z "},"Û":{"ha":965,"x_min":64,"x_max":904,"o":"m 667 1067 l 507 1194 l 349 1067 l 335 1081 l 504 1300 l 510 1300 l 681 1081 l 667 1067 m 904 965 q 846 919 863 950 q 829 829 829 888 l 829 371 q 746 84 829 179 q 488 -11 663 -11 q 139 349 139 -11 l 139 829 q 123 922 139 892 q 64 965 107 953 l 317 965 q 258 921 274 951 q 242 829 242 890 l 242 379 q 508 38 242 38 q 778 375 778 38 l 778 829 q 762 922 778 892 q 703 965 746 953 l 904 965 z "},"Ü":{"ha":965,"x_min":64,"x_max":904,"o":"m 456 1098 q 445 1087 456 1098 q 400 1076 435 1076 q 343 1098 365 1076 q 321 1153 321 1119 q 343 1208 321 1186 q 400 1229 365 1229 q 456 1208 435 1229 q 478 1153 478 1186 q 456 1098 478 1119 m 607 1076 q 550 1098 572 1076 q 528 1153 528 1119 q 550 1208 528 1186 q 607 1229 572 1229 q 663 1208 640 1229 q 685 1153 685 1186 q 663 1098 685 1119 q 607 1076 640 1076 m 904 965 q 846 919 863 950 q 829 829 829 888 l 829 371 q 746 84 829 179 q 488 -11 663 -11 q 139 349 139 -11 l 139 829 q 123 922 139 892 q 64 965 107 953 l 317 965 q 258 921 274 951 q 242 829 242 890 l 242 379 q 508 38 242 38 q 778 375 778 38 l 778 829 q 762 922 778 892 q 703 965 746 953 l 904 965 z "},"Ý":{"ha":953,"x_min":35,"x_max":918,"o":"m 668 1289 l 515 1056 l 493 1056 l 563 1289 l 668 1289 m 760 965 l 918 965 q 796 832 876 953 l 526 418 l 526 136 q 542 44 526 75 q 601 0 558 14 l 349 0 q 408 43 392 13 q 424 136 424 74 l 424 406 l 168 806 q 35 965 81 943 l 235 965 q 254 847 197 935 l 500 460 l 711 786 q 744 842 731 817 q 765 884 758 867 q 774 913 771 901 q 774 935 776 925 q 771 949 772 944 q 765 958 769 953 q 760 965 760 964 z "},"Þ":{"ha":851,"x_min":82,"x_max":792,"o":"m 418 813 q 692 743 593 813 q 792 543 792 674 q 689 328 792 408 q 411 247 586 247 l 260 247 l 260 178 q 275 50 260 86 q 333 0 290 14 l 82 0 q 142 49 126 13 q 157 178 157 86 l 157 788 q 142 916 157 879 q 82 965 126 953 l 333 965 q 278 921 293 953 q 260 813 263 889 l 418 813 m 404 294 q 606 360 535 294 q 678 539 678 426 q 608 706 678 649 q 407 764 539 764 l 260 764 l 260 294 l 404 294 z "},"ß":{"ha":833,"x_min":14,"x_max":790,"o":"m 513 653 q 628 538 588 581 q 712 438 669 494 q 772 330 754 382 q 790 219 790 278 q 735 54 790 119 q 575 -11 679 -11 q 383 57 469 -11 l 403 224 q 596 36 467 36 q 692 78 657 36 q 726 182 726 119 q 683 314 726 243 q 592 433 639 385 q 450 569 546 481 q 429 589 436 582 q 495 751 472 675 q 520 883 518 828 q 508 977 522 938 q 467 1037 494 1017 q 400 1057 439 1057 q 352 1049 375 1057 q 306 1019 329 1040 q 269 954 283 999 q 256 847 256 910 l 256 176 q 268 56 256 92 q 314 0 281 21 l 83 0 q 141 53 126 18 q 156 176 156 89 l 156 743 l 14 743 l 14 785 l 156 785 l 156 838 q 226 1035 156 972 q 401 1099 296 1099 q 639 926 568 1099 l 513 653 z "},"à":{"ha":756,"x_min":56,"x_max":696,"o":"m 385 879 l 363 879 l 210 1113 l 315 1113 l 385 879 m 696 0 l 557 -4 l 557 158 q 290 -10 478 -10 q 118 41 181 -10 q 56 179 56 92 q 76 266 56 226 q 128 332 97 306 q 206 381 158 358 q 291 415 253 403 q 382 442 329 428 l 551 485 l 551 539 q 383 746 551 746 q 222 686 296 746 q 110 490 147 626 l 104 708 q 386 794 226 794 q 580 735 508 794 q 651 557 651 675 l 651 149 q 696 0 651 33 m 315 39 q 476 103 404 39 q 551 282 547 167 l 551 438 l 389 393 q 315 370 343 381 q 248 338 288 360 q 188 278 208 315 q 168 190 168 240 q 207 81 168 122 q 315 39 246 39 z "},"á":{"ha":756,"x_min":56,"x_max":696,"o":"m 540 1113 l 388 879 l 365 879 l 435 1113 l 540 1113 m 696 0 l 557 -4 l 557 158 q 290 -10 478 -10 q 118 41 181 -10 q 56 179 56 92 q 76 266 56 226 q 128 332 97 306 q 206 381 158 358 q 291 415 253 403 q 382 442 329 428 l 551 485 l 551 539 q 383 746 551 746 q 222 686 296 746 q 110 490 147 626 l 104 708 q 386 794 226 794 q 580 735 508 794 q 651 557 651 675 l 651 149 q 696 0 651 33 m 315 39 q 476 103 404 39 q 551 282 547 167 l 551 438 l 389 393 q 315 370 343 381 q 248 338 288 360 q 188 278 208 315 q 168 190 168 240 q 207 81 168 122 q 315 39 246 39 z "},"â":{"ha":756,"x_min":56,"x_max":696,"o":"m 374 1000 l 215 872 l 201 886 l 371 1106 l 376 1106 l 547 886 l 533 872 l 374 1000 m 696 0 l 557 -4 l 557 158 q 290 -10 478 -10 q 118 41 181 -10 q 56 179 56 92 q 76 266 56 226 q 128 332 97 306 q 206 381 158 358 q 291 415 253 403 q 382 442 329 428 l 551 485 l 551 539 q 383 746 551 746 q 222 686 296 746 q 110 490 147 626 l 104 708 q 386 794 226 794 q 580 735 508 794 q 651 557 651 675 l 651 149 q 696 0 651 33 m 315 39 q 476 103 404 39 q 551 282 547 167 l 551 438 l 389 393 q 315 370 343 381 q 248 338 288 360 q 188 278 208 315 q 168 190 168 240 q 207 81 168 122 q 315 39 246 39 z "},"ã":{"ha":756,"x_min":56,"x_max":696,"o":"m 206 893 l 186 893 q 217 991 183 956 q 310 1026 250 1026 q 381 1009 354 1026 q 415 972 407 992 q 440 934 424 951 q 482 917 456 917 q 530 943 514 917 q 544 1017 546 969 l 564 1017 q 534 919 567 954 q 440 883 501 883 q 380 894 404 883 q 344 922 356 906 q 324 953 333 938 q 301 981 315 969 q 265 992 288 992 q 206 893 201 992 m 696 0 l 557 -4 l 557 158 q 290 -10 478 -10 q 118 41 181 -10 q 56 179 56 92 q 76 266 56 226 q 128 332 97 306 q 206 381 158 358 q 291 415 253 403 q 382 442 329 428 l 551 485 l 551 539 q 383 746 551 746 q 222 686 296 746 q 110 490 147 626 l 104 708 q 386 794 226 794 q 580 735 508 794 q 651 557 651 675 l 651 149 q 696 0 651 33 m 315 39 q 476 103 404 39 q 551 282 547 167 l 551 438 l 389 393 q 315 370 343 381 q 248 338 288 360 q 188 278 208 315 q 168 190 168 240 q 207 81 168 122 q 315 39 246 39 z "},"ä":{"ha":756,"x_min":56,"x_max":696,"o":"m 328 903 q 318 893 328 903 q 272 882 307 882 q 215 903 238 882 q 193 958 193 925 q 215 1013 193 992 q 272 1035 238 1035 q 328 1013 307 1035 q 350 958 350 992 q 328 903 350 925 m 479 882 q 422 903 444 882 q 400 958 400 925 q 422 1013 400 992 q 479 1035 444 1035 q 535 1013 513 1035 q 557 958 557 992 q 535 903 557 925 q 479 882 513 882 m 696 0 l 557 -4 l 557 158 q 290 -10 478 -10 q 118 41 181 -10 q 56 179 56 92 q 76 266 56 226 q 128 332 97 306 q 206 381 158 358 q 291 415 253 403 q 382 442 329 428 l 551 485 l 551 539 q 383 746 551 746 q 222 686 296 746 q 110 490 147 626 l 104 708 q 386 794 226 794 q 580 735 508 794 q 651 557 651 675 l 651 149 q 696 0 651 33 m 315 39 q 476 103 404 39 q 551 282 547 167 l 551 438 l 389 393 q 315 370 343 381 q 248 338 288 360 q 188 278 208 315 q 168 190 168 240 q 207 81 168 122 q 315 39 246 39 z "},"å":{"ha":756,"x_min":56,"x_max":696,"o":"m 375 878 q 275 915 314 878 q 236 1011 236 953 q 275 1107 236 1069 q 375 1144 314 1144 q 474 1107 435 1144 q 513 1011 513 1069 q 474 915 513 953 q 375 878 435 878 m 375 1117 q 300 1088 329 1117 q 271 1011 271 1058 q 300 935 271 964 q 375 906 329 906 q 449 935 419 906 q 478 1011 478 964 q 449 1088 478 1058 q 375 1117 419 1117 m 696 0 l 557 -4 l 557 158 q 290 -10 478 -10 q 118 41 181 -10 q 56 179 56 92 q 76 266 56 226 q 128 332 97 306 q 206 381 158 358 q 291 415 253 403 q 382 442 329 428 l 551 485 l 551 539 q 383 746 551 746 q 222 686 296 746 q 110 490 147 626 l 104 708 q 386 794 226 794 q 580 735 508 794 q 651 557 651 675 l 651 149 q 696 0 651 33 m 315 39 q 476 103 404 39 q 551 282 547 167 l 551 438 l 389 393 q 315 370 343 381 q 248 338 288 360 q 188 278 208 315 q 168 190 168 240 q 207 81 168 122 q 315 39 246 39 z "},"æ":{"ha":1303,"x_min":56,"x_max":1231,"o":"m 931 38 q 1110 103 1032 38 q 1231 299 1188 169 l 1218 104 q 1091 20 1169 51 q 929 -11 1013 -11 q 711 46 806 -11 q 586 182 617 103 q 472 43 547 96 q 289 -10 396 -10 q 119 42 183 -10 q 56 179 56 93 q 84 283 56 238 q 167 357 113 328 q 266 403 221 386 q 378 436 311 419 l 543 479 l 543 511 q 369 746 543 746 q 217 686 288 746 q 110 490 147 626 l 104 708 q 378 796 228 796 q 621 639 568 796 q 910 796 707 796 q 1138 714 1053 796 q 1228 472 1224 632 l 651 472 q 646 392 646 438 q 726 131 646 225 q 931 38 806 38 m 906 747 q 747 685 813 747 q 658 514 682 624 l 1118 514 q 1056 685 1111 624 q 906 747 1001 747 m 314 39 q 471 108 401 39 q 540 293 540 176 l 540 432 l 385 388 q 345 376 351 378 q 306 364 339 375 q 263 345 274 353 q 228 321 251 338 q 195 288 204 304 q 177 245 186 271 q 168 190 168 219 q 208 81 168 122 q 314 39 247 39 z "},"ç":{"ha":810,"x_min":51,"x_max":739,"o":"m 439 -11 l 415 -11 l 394 -54 q 479 -76 444 -53 q 514 -144 514 -100 q 485 -215 514 -186 q 403 -244 456 -244 q 314 -217 350 -244 l 318 -136 q 351 -187 328 -167 q 400 -208 374 -208 q 438 -192 424 -208 q 453 -150 453 -176 q 430 -97 453 -119 q 364 -81 407 -75 l 383 -7 q 146 117 240 11 q 51 392 51 224 q 158 681 51 567 q 440 796 264 796 q 605 767 526 796 q 731 688 683 739 l 701 482 q 433 747 638 747 q 237 653 310 747 q 164 393 164 558 q 240 131 164 224 q 439 38 315 38 q 623 108 546 38 q 739 304 700 179 l 733 88 q 604 17 688 44 q 439 -11 521 -11 z "},"è":{"ha":829,"x_min":51,"x_max":757,"o":"m 442 879 l 419 879 l 267 1113 l 372 1113 l 442 879 m 464 38 q 757 299 669 38 l 744 96 q 615 18 694 47 q 451 -11 536 -11 q 162 99 272 -11 q 51 389 51 210 q 155 681 51 567 q 428 796 258 796 q 670 708 589 796 q 754 472 751 619 l 169 472 q 164 389 164 438 q 248 134 164 231 q 464 38 332 38 m 428 747 q 266 686 332 747 q 176 514 200 625 l 644 514 q 582 685 638 624 q 428 747 526 747 z "},"é":{"ha":829,"x_min":51,"x_max":757,"o":"m 597 1113 l 444 879 l 422 879 l 492 1113 l 597 1113 m 464 38 q 757 299 669 38 l 744 96 q 615 18 694 47 q 451 -11 536 -11 q 162 99 272 -11 q 51 389 51 210 q 155 681 51 567 q 428 796 258 796 q 670 708 589 796 q 754 472 751 619 l 169 472 q 164 389 164 438 q 248 134 164 231 q 464 38 332 38 m 428 747 q 266 686 332 747 q 176 514 200 625 l 644 514 q 582 685 638 624 q 428 747 526 747 z "},"ê":{"ha":829,"x_min":51,"x_max":757,"o":"m 431 1000 l 272 872 l 258 886 l 428 1106 l 433 1106 l 604 886 l 590 872 l 431 1000 m 464 38 q 757 299 669 38 l 744 96 q 615 18 694 47 q 451 -11 536 -11 q 162 99 272 -11 q 51 389 51 210 q 155 681 51 567 q 428 796 258 796 q 670 708 589 796 q 754 472 751 619 l 169 472 q 164 389 164 438 q 248 134 164 231 q 464 38 332 38 m 428 747 q 266 686 332 747 q 176 514 200 625 l 644 514 q 582 685 638 624 q 428 747 526 747 z "},"ë":{"ha":829,"x_min":51,"x_max":757,"o":"m 385 903 q 375 893 385 903 q 329 882 364 882 q 272 903 294 882 q 250 958 250 925 q 272 1013 250 992 q 329 1035 294 1035 q 385 1013 364 1035 q 407 958 407 992 q 385 903 407 925 m 536 882 q 479 903 501 882 q 457 958 457 925 q 479 1013 457 992 q 536 1035 501 1035 q 592 1013 569 1035 q 614 958 614 992 q 592 903 614 925 q 536 882 569 882 m 464 38 q 757 299 669 38 l 744 96 q 615 18 694 47 q 451 -11 536 -11 q 162 99 272 -11 q 51 389 51 210 q 155 681 51 567 q 428 796 258 796 q 670 708 589 796 q 754 472 751 619 l 169 472 q 164 389 164 438 q 248 134 164 231 q 464 38 332 38 m 428 747 q 266 686 332 747 q 176 514 200 625 l 644 514 q 582 685 638 624 q 428 747 526 747 z "},"ì":{"ha":353,"x_min":10,"x_max":301,"o":"m 185 879 l 163 879 l 10 1113 l 115 1113 l 185 879 m 57 0 q 114 48 99 11 q 129 149 129 85 l 129 619 q 90 781 129 733 l 229 793 l 229 149 q 301 0 229 22 l 57 0 z "},"í":{"ha":353,"x_min":57,"x_max":340,"o":"m 340 1113 l 188 879 l 165 879 l 235 1113 l 340 1113 m 229 149 q 301 0 229 22 l 57 0 q 114 48 99 11 q 129 149 129 85 l 129 619 q 90 781 129 733 l 229 793 l 229 149 z "},"î":{"ha":353,"x_min":1,"x_max":347,"o":"m 176 1106 l 347 886 l 333 872 l 174 1000 l 15 872 l 1 886 l 171 1106 l 176 1106 m 229 149 q 301 0 229 22 l 57 0 q 114 48 99 11 q 129 149 129 85 l 129 619 q 90 781 129 733 l 229 793 l 229 149 z "},"ï":{"ha":353,"x_min":-7,"x_max":357,"o":"m 128 1013 q 139 1002 128 1013 q 150 958 150 992 q 128 903 150 925 q 72 882 107 882 q 15 903 38 882 q -7 958 -7 925 q 15 1013 -7 992 q 72 1035 38 1035 q 128 1013 107 1035 m 279 1035 q 335 1013 313 1035 q 357 958 357 992 q 335 903 357 925 q 279 882 313 882 q 222 903 244 882 q 200 958 200 925 q 222 1013 200 992 q 279 1035 244 1035 m 229 149 q 301 0 229 22 l 57 0 q 114 48 99 11 q 129 149 129 85 l 129 619 q 90 781 129 733 l 229 793 l 229 149 z "},"ð":{"ha":914,"x_min":53,"x_max":850,"o":"m 565 972 q 777 763 704 893 q 850 463 850 633 q 741 113 850 239 q 451 -12 632 -12 q 164 101 275 -12 q 53 392 53 215 q 163 679 53 567 q 444 792 272 792 q 689 707 604 792 q 490 944 629 864 l 254 858 l 242 896 l 442 968 q 164 1029 331 1018 l 168 1079 q 518 996 372 1064 l 726 1072 l 739 1035 l 565 972 m 245 137 q 285 86 245 137 q 451 36 325 36 q 658 137 578 36 q 738 392 738 238 q 663 650 738 557 q 451 743 589 743 q 244 644 324 743 q 165 392 165 546 q 245 137 165 238 z "},"ñ":{"ha":935,"x_min":57,"x_max":892,"o":"m 321 893 l 301 893 q 332 991 299 956 q 425 1026 365 1026 q 496 1009 469 1026 q 531 972 522 992 q 555 934 539 951 q 597 917 571 917 q 645 943 629 917 q 660 1017 661 969 l 679 1017 q 649 919 682 954 q 556 883 617 883 q 495 894 519 883 q 460 922 471 906 q 440 953 449 938 q 417 981 431 969 q 381 992 403 992 q 321 893 317 992 m 647 0 q 704 48 689 11 q 719 149 719 85 l 719 515 q 511 740 719 740 q 313 656 390 740 q 229 415 235 572 l 229 149 q 301 0 229 22 l 57 0 q 114 48 99 11 q 129 149 129 85 l 129 619 q 90 781 129 733 l 229 793 l 229 603 q 533 796 308 796 q 741 735 663 796 q 819 540 819 674 l 819 149 q 892 0 819 22 l 647 0 z "},"ò":{"ha":900,"x_min":51,"x_max":849,"o":"m 460 879 l 438 879 l 285 1113 l 390 1113 l 460 879 m 849 393 l 849 392 q 734 103 849 218 q 450 -11 619 -11 q 166 103 281 -11 q 51 392 51 218 l 51 393 q 166 681 51 567 q 450 796 281 796 q 734 681 619 796 q 849 393 849 567 m 244 137 q 284 87 244 137 q 450 38 324 38 q 656 137 576 38 q 736 393 736 236 q 656 648 736 549 q 450 747 576 747 q 244 648 324 747 q 164 393 164 549 q 244 137 164 236 z "},"ó":{"ha":900,"x_min":51,"x_max":849,"o":"m 615 1113 l 463 879 l 440 879 l 510 1113 l 615 1113 m 849 393 l 849 392 q 734 103 849 218 q 450 -11 619 -11 q 166 103 281 -11 q 51 392 51 218 l 51 393 q 166 681 51 567 q 450 796 281 796 q 734 681 619 796 q 849 393 849 567 m 244 137 q 284 87 244 137 q 450 38 324 38 q 656 137 576 38 q 736 393 736 236 q 656 648 736 549 q 450 747 576 747 q 244 648 324 747 q 164 393 164 549 q 244 137 164 236 z "},"ô":{"ha":900,"x_min":51,"x_max":849,"o":"m 449 1000 l 290 872 l 276 886 l 446 1106 l 451 1106 l 622 886 l 608 872 l 449 1000 m 849 393 l 849 392 q 734 103 849 218 q 450 -11 619 -11 q 166 103 281 -11 q 51 392 51 218 l 51 393 q 166 681 51 567 q 450 796 281 796 q 734 681 619 796 q 849 393 849 567 m 244 137 q 284 87 244 137 q 450 38 324 38 q 656 137 576 38 q 736 393 736 236 q 656 648 736 549 q 450 747 576 747 q 244 648 324 747 q 164 393 164 549 q 244 137 164 236 z "},"õ":{"ha":900,"x_min":51,"x_max":849,"o":"m 281 893 l 261 893 q 292 991 258 956 q 385 1026 325 1026 q 456 1009 429 1026 q 490 972 482 992 q 515 934 499 951 q 557 917 531 917 q 605 943 589 917 q 619 1017 621 969 l 639 1017 q 609 919 642 954 q 515 883 576 883 q 455 894 479 883 q 419 922 431 906 q 399 953 408 938 q 376 981 390 969 q 340 992 363 992 q 281 893 276 992 m 849 393 l 849 392 q 734 103 849 218 q 450 -11 619 -11 q 166 103 281 -11 q 51 392 51 218 l 51 393 q 166 681 51 567 q 450 796 281 796 q 734 681 619 796 q 849 393 849 567 m 244 137 q 284 87 244 137 q 450 38 324 38 q 656 137 576 38 q 736 393 736 236 q 656 648 736 549 q 450 747 576 747 q 244 648 324 747 q 164 393 164 549 q 244 137 164 236 z "},"ö":{"ha":900,"x_min":51,"x_max":849,"o":"m 403 903 q 393 893 403 903 q 347 882 382 882 q 290 903 313 882 q 268 958 268 925 q 290 1013 268 992 q 347 1035 313 1035 q 403 1013 382 1035 q 425 958 425 992 q 403 903 425 925 m 554 882 q 497 903 519 882 q 475 958 475 925 q 497 1013 475 992 q 554 1035 519 1035 q 610 1013 588 1035 q 632 958 632 992 q 610 903 632 925 q 554 882 588 882 m 849 393 l 849 392 q 734 103 849 218 q 450 -11 619 -11 q 166 103 281 -11 q 51 392 51 218 l 51 393 q 166 681 51 567 q 450 796 281 796 q 734 681 619 796 q 849 393 849 567 m 244 137 q 284 87 244 137 q 450 38 324 38 q 656 137 576 38 q 736 393 736 236 q 656 648 736 549 q 450 747 576 747 q 244 648 324 747 q 164 393 164 549 q 244 137 164 236 z "},"÷":{"ha":951,"x_min":104,"x_max":847,"o":"m 519 715 q 511 708 519 715 q 482 701 504 701 q 445 715 460 701 q 431 751 431 729 q 445 785 431 771 q 482 800 460 800 q 519 786 504 800 q 533 751 533 772 q 519 715 533 729 m 104 504 l 847 504 l 847 460 l 104 460 l 104 504 m 519 179 q 511 172 519 179 q 482 165 504 165 q 445 179 460 165 q 431 215 431 193 q 445 249 431 235 q 482 264 460 264 q 519 250 504 264 q 533 215 533 236 q 519 179 533 193 z "},"ø":{"ha":900,"x_min":51,"x_max":849,"o":"m 849 393 l 849 392 q 734 103 849 218 q 450 -11 619 -11 q 204 69 308 -11 l 138 -11 l 106 13 l 174 96 q 51 392 51 214 l 51 393 q 166 681 51 567 q 450 796 281 796 q 686 722 585 796 l 746 796 l 778 772 l 717 697 q 849 393 849 581 m 164 393 q 226 161 164 257 l 640 667 q 450 747 563 747 q 244 648 324 747 q 164 393 164 549 m 450 38 q 656 137 576 38 q 736 393 736 236 q 665 635 736 538 l 251 128 q 450 38 331 38 z "},"ù":{"ha":836,"x_min":61,"x_max":764,"o":"m 410 879 l 388 879 l 235 1113 l 340 1113 l 410 879 m 764 0 l 631 -4 l 631 161 q 354 -11 550 -11 q 171 47 242 -11 q 100 229 100 104 l 100 619 q 61 781 100 733 l 200 793 l 200 256 q 374 38 200 38 q 513 81 454 38 q 596 180 571 124 q 625 297 621 236 l 625 619 q 586 781 625 733 l 725 793 l 725 151 q 764 0 725 39 z "},"ú":{"ha":836,"x_min":61,"x_max":764,"o":"m 565 1113 l 413 879 l 390 879 l 460 1113 l 565 1113 m 764 0 l 631 -4 l 631 161 q 354 -11 550 -11 q 171 47 242 -11 q 100 229 100 104 l 100 619 q 61 781 100 733 l 200 793 l 200 256 q 374 38 200 38 q 513 81 454 38 q 596 180 571 124 q 625 297 621 236 l 625 619 q 586 781 625 733 l 725 793 l 725 151 q 764 0 725 39 z "},"û":{"ha":836,"x_min":61,"x_max":764,"o":"m 399 1000 l 240 872 l 226 886 l 396 1106 l 401 1106 l 572 886 l 558 872 l 399 1000 m 764 0 l 631 -4 l 631 161 q 354 -11 550 -11 q 171 47 242 -11 q 100 229 100 104 l 100 619 q 61 781 100 733 l 200 793 l 200 256 q 374 38 200 38 q 513 81 454 38 q 596 180 571 124 q 625 297 621 236 l 625 619 q 586 781 625 733 l 725 793 l 725 151 q 764 0 725 39 z "},"ü":{"ha":836,"x_min":61,"x_max":764,"o":"m 353 903 q 343 893 353 903 q 297 882 332 882 q 240 903 263 882 q 218 958 218 925 q 240 1013 218 992 q 297 1035 263 1035 q 353 1013 332 1035 q 375 958 375 992 q 353 903 375 925 m 504 882 q 447 903 469 882 q 425 958 425 925 q 447 1013 425 992 q 504 1035 469 1035 q 560 1013 538 1035 q 582 958 582 992 q 560 903 582 925 q 504 882 538 882 m 764 0 l 631 -4 l 631 161 q 354 -11 550 -11 q 171 47 242 -11 q 100 229 100 104 l 100 619 q 61 781 100 733 l 200 793 l 200 256 q 374 38 200 38 q 513 81 454 38 q 596 180 571 124 q 625 297 621 236 l 625 619 q 586 781 625 733 l 725 793 l 725 151 q 764 0 725 39 z "},"ý":{"ha":760,"x_min":14,"x_max":747,"o":"m 578 1113 l 425 879 l 403 879 l 472 1113 l 578 1113 m 596 785 l 747 785 q 647 626 699 753 l 383 -24 q 161 -242 303 -221 l 104 -100 q 253 -110 183 -143 q 358 15 322 -76 l 74 700 q 14 785 46 768 l 188 785 q 185 688 156 758 l 407 142 l 600 624 q 613 660 608 643 q 622 690 618 676 q 625 714 625 703 q 625 733 625 725 q 623 749 625 742 q 619 761 621 757 q 613 770 617 765 q 607 776 608 775 q 600 781 606 778 l 596 785 z "},"þ":{"ha":900,"x_min":49,"x_max":847,"o":"m 463 796 q 738 690 628 796 q 847 410 847 583 q 737 112 847 235 q 450 -11 626 -11 q 221 72 314 -11 l 221 -114 q 293 -262 221 -240 l 49 -262 q 106 -215 90 -251 q 121 -114 121 -178 l 121 908 q 86 1035 121 1007 l 221 1051 l 221 714 q 463 796 311 796 m 463 36 q 665 122 589 36 q 740 364 740 208 q 660 637 740 525 q 438 749 581 749 q 221 639 301 749 l 221 221 q 463 36 296 36 z "},"ÿ":{"ha":760,"x_min":14,"x_max":747,"o":"m 366 903 q 355 893 366 903 q 310 882 344 882 q 253 903 275 882 q 231 958 231 925 q 253 1013 231 992 q 310 1035 275 1035 q 366 1013 344 1035 q 388 958 388 992 q 366 903 388 925 m 517 882 q 460 903 482 882 q 438 958 438 925 q 460 1013 438 992 q 517 1035 482 1035 q 572 1013 550 1035 q 594 958 594 992 q 572 903 594 925 q 517 882 550 882 m 596 785 l 747 785 q 647 626 699 753 l 383 -24 q 161 -242 303 -221 l 104 -100 q 253 -110 183 -143 q 358 15 322 -76 l 74 700 q 14 785 46 768 l 188 785 q 185 688 156 758 l 407 142 l 600 624 q 613 660 608 643 q 622 690 618 676 q 625 714 625 703 q 625 733 625 725 q 623 749 625 742 q 619 761 621 757 q 613 770 617 765 q 607 776 608 775 q 600 781 606 778 l 596 785 z "},"Ā":{"ha":1046,"x_min":35,"x_max":1010,"o":"m 714 1150 l 714 1110 l 328 1110 l 328 1150 l 714 1150 m 799 0 q 806 139 860 24 l 711 343 l 279 343 l 190 142 q 185 0 138 21 l 35 0 q 84 47 57 7 q 165 208 111 86 l 500 965 l 528 965 l 928 107 q 1010 0 972 11 l 799 0 m 299 388 l 692 388 l 490 824 l 299 388 z "},"ā":{"ha":756,"x_min":56,"x_max":696,"o":"m 567 950 l 567 910 l 183 910 l 183 950 l 567 950 m 696 0 l 557 -4 l 557 158 q 290 -10 478 -10 q 118 41 181 -10 q 56 179 56 92 q 76 266 56 226 q 128 332 97 306 q 206 381 158 358 q 291 415 253 403 q 382 442 329 428 l 551 485 l 551 539 q 383 746 551 746 q 222 686 296 746 q 110 490 147 626 l 104 708 q 386 794 226 794 q 580 735 508 794 q 651 557 651 675 l 651 149 q 696 0 651 33 m 315 39 q 476 103 404 39 q 551 282 547 167 l 551 438 l 389 393 q 315 370 343 381 q 248 338 288 360 q 188 278 208 315 q 168 190 168 240 q 207 81 168 122 q 315 39 246 39 z "},"Ă":{"ha":1046,"x_min":35,"x_max":1010,"o":"m 522 1053 q 421 1106 457 1053 q 381 1243 385 1158 l 403 1243 q 438 1151 406 1182 q 524 1119 471 1119 q 642 1243 636 1119 l 664 1243 q 623 1106 660 1158 q 522 1053 586 1053 m 799 0 q 806 139 860 24 l 711 343 l 279 343 l 190 142 q 185 0 138 21 l 35 0 q 84 47 57 7 q 165 208 111 86 l 500 965 l 528 965 l 928 107 q 1010 0 972 11 l 799 0 m 299 388 l 692 388 l 490 824 l 299 388 z "},"ă":{"ha":756,"x_min":56,"x_max":696,"o":"m 375 910 q 274 963 310 910 q 233 1100 238 1015 l 256 1100 q 291 1008 258 1039 q 376 976 324 976 q 494 1100 489 976 l 517 1100 q 476 963 513 1015 q 375 910 439 910 m 696 0 l 557 -4 l 557 158 q 290 -10 478 -10 q 118 41 181 -10 q 56 179 56 92 q 76 266 56 226 q 128 332 97 306 q 206 381 158 358 q 291 415 253 403 q 382 442 329 428 l 551 485 l 551 539 q 383 746 551 746 q 222 686 296 746 q 110 490 147 626 l 104 708 q 386 794 226 794 q 580 735 508 794 q 651 557 651 675 l 651 149 q 696 0 651 33 m 315 39 q 476 103 404 39 q 551 282 547 167 l 551 438 l 389 393 q 315 370 343 381 q 248 338 288 360 q 188 278 208 315 q 168 190 168 240 q 207 81 168 122 q 315 39 246 39 z "},"Ą":{"ha":1046,"x_min":35,"x_max":1047,"o":"m 950 -201 q 1006 -180 979 -201 q 1047 -121 1033 -158 l 1040 -224 q 939 -251 1001 -251 q 863 -226 894 -251 q 831 -154 831 -200 q 867 -69 831 -106 q 968 0 904 -33 l 799 0 q 806 139 860 24 l 711 343 l 279 343 l 190 142 q 185 0 138 21 l 35 0 q 84 47 57 7 q 165 208 111 86 l 500 965 l 528 965 l 928 107 q 1010 0 972 11 q 892 -144 892 -67 q 950 -201 892 -201 m 299 388 l 692 388 l 490 824 l 299 388 z "},"ą":{"ha":756,"x_min":56,"x_max":733,"o":"m 636 -201 q 692 -180 665 -201 q 733 -121 719 -158 l 726 -224 q 625 -251 688 -251 q 549 -226 581 -251 q 517 -154 517 -200 q 553 -70 517 -106 q 651 -1 589 -35 l 557 -4 l 557 158 q 290 -10 478 -10 q 118 41 181 -10 q 56 179 56 92 q 76 266 56 226 q 128 332 97 306 q 206 381 158 358 q 291 415 253 403 q 382 442 329 428 l 551 485 l 551 539 q 383 746 551 746 q 222 686 296 746 q 110 490 147 626 l 104 708 q 386 794 226 794 q 580 735 508 794 q 651 557 651 675 l 651 149 q 696 0 651 33 q 578 -144 578 -67 q 636 -201 578 -201 m 315 39 q 476 103 404 39 q 551 282 547 167 l 551 438 l 389 393 q 315 370 343 381 q 248 338 288 360 q 188 278 208 315 q 168 190 168 240 q 207 81 168 122 q 315 39 246 39 z "},"Ć":{"ha":969,"x_min":75,"x_max":876,"o":"m 725 1289 l 572 1056 l 550 1056 l 619 1289 l 725 1289 m 543 38 q 875 253 765 38 l 876 90 q 731 17 819 46 q 543 -11 642 -11 q 205 135 335 -11 q 75 485 75 281 q 201 831 75 689 q 531 974 328 974 q 854 889 706 974 l 876 583 q 740 837 833 749 q 526 925 647 925 q 286 812 379 925 q 193 486 193 699 q 288 156 193 275 q 543 38 383 38 z "},"ć":{"ha":810,"x_min":51,"x_max":739,"o":"m 611 1113 l 458 879 l 436 879 l 506 1113 l 611 1113 m 439 38 q 623 108 546 38 q 739 304 700 179 l 733 88 q 604 17 688 44 q 439 -11 521 -11 q 165 98 278 -11 q 51 392 51 207 q 158 681 51 567 q 440 796 264 796 q 605 767 526 796 q 731 688 683 739 l 701 482 q 433 747 638 747 q 237 653 310 747 q 164 393 164 558 q 240 131 164 224 q 439 38 315 38 z "},"Ĉ":{"ha":969,"x_min":75,"x_max":876,"o":"m 722 1067 l 563 1194 l 404 1067 l 390 1081 l 560 1300 l 565 1300 l 736 1081 l 722 1067 m 543 38 q 875 253 765 38 l 876 90 q 731 17 819 46 q 543 -11 642 -11 q 205 135 335 -11 q 75 485 75 281 q 201 831 75 689 q 531 974 328 974 q 854 889 706 974 l 876 583 q 740 837 833 749 q 526 925 647 925 q 286 812 379 925 q 193 486 193 699 q 288 156 193 275 q 543 38 383 38 z "},"ĉ":{"ha":810,"x_min":51,"x_max":739,"o":"m 604 872 l 444 1000 l 286 872 l 272 886 l 442 1106 l 447 1106 l 618 886 l 604 872 m 439 38 q 623 108 546 38 q 739 304 700 179 l 733 88 q 604 17 688 44 q 439 -11 521 -11 q 165 98 278 -11 q 51 392 51 207 q 158 681 51 567 q 440 796 264 796 q 605 767 526 796 q 731 688 683 739 l 701 482 q 433 747 638 747 q 237 653 310 747 q 164 393 164 558 q 240 131 164 224 q 439 38 315 38 z "},"Ċ":{"ha":969,"x_min":75,"x_max":876,"o":"m 615 1098 q 604 1087 615 1098 q 558 1076 593 1076 q 501 1098 524 1076 q 479 1153 479 1119 q 501 1208 479 1186 q 558 1229 524 1229 q 615 1208 593 1229 q 636 1153 636 1186 q 615 1098 636 1119 m 543 38 q 875 253 765 38 l 876 90 q 731 17 819 46 q 543 -11 642 -11 q 205 135 335 -11 q 75 485 75 281 q 201 831 75 689 q 531 974 328 974 q 854 889 706 974 l 876 583 q 740 837 833 749 q 526 925 647 925 q 286 812 379 925 q 193 486 193 699 q 288 156 193 275 q 543 38 383 38 z "},"ċ":{"ha":810,"x_min":51,"x_max":739,"o":"m 501 903 q 490 893 501 903 q 444 882 479 882 q 388 903 410 882 q 365 958 365 925 q 388 1013 365 992 q 444 1035 410 1035 q 501 1013 479 1035 q 522 958 522 992 q 501 903 522 925 m 439 38 q 623 108 546 38 q 739 304 700 179 l 733 88 q 604 17 688 44 q 439 -11 521 -11 q 165 98 278 -11 q 51 392 51 207 q 158 681 51 567 q 440 796 264 796 q 605 767 526 796 q 731 688 683 739 l 701 482 q 433 747 638 747 q 237 653 310 747 q 164 393 164 558 q 240 131 164 224 q 439 38 315 38 z "},"Č":{"ha":969,"x_min":75,"x_max":876,"o":"m 717 1300 l 731 1286 l 560 1067 l 554 1067 l 385 1286 l 399 1300 l 557 1172 l 717 1300 m 543 38 q 875 253 765 38 l 876 90 q 731 17 819 46 q 543 -11 642 -11 q 205 135 335 -11 q 75 485 75 281 q 201 831 75 689 q 531 974 328 974 q 854 889 706 974 l 876 583 q 740 837 833 749 q 526 925 647 925 q 286 812 379 925 q 193 486 193 699 q 288 156 193 275 q 543 38 383 38 z "},"č":{"ha":810,"x_min":51,"x_max":739,"o":"m 606 1106 l 619 1092 l 449 872 l 443 872 l 274 1092 l 288 1106 l 446 978 l 606 1106 m 439 38 q 623 108 546 38 q 739 304 700 179 l 733 88 q 604 17 688 44 q 439 -11 521 -11 q 165 98 278 -11 q 51 392 51 207 q 158 681 51 567 q 440 796 264 796 q 605 767 526 796 q 731 688 683 739 l 701 482 q 433 747 638 747 q 237 653 310 747 q 164 393 164 558 q 240 131 164 224 q 439 38 315 38 z "},"Ď":{"ha":1028,"x_min":82,"x_max":954,"o":"m 481 1067 l 475 1067 l 306 1286 l 319 1300 l 478 1172 l 638 1300 l 651 1286 l 481 1067 m 449 965 q 817 835 679 965 q 954 489 954 706 q 816 135 954 269 q 449 0 678 0 l 82 0 q 144 45 126 13 q 163 139 163 78 l 163 832 q 149 924 163 896 q 93 965 136 953 l 449 965 m 443 51 q 729 161 624 51 q 835 486 835 271 q 730 807 835 700 q 443 914 625 914 l 265 914 l 265 51 l 443 51 z "},"ď":{"ha":883,"x_min":53,"x_max":946,"o":"m 867 1054 l 946 1054 l 872 826 l 840 826 l 867 1054 m 775 150 q 814 0 775 39 l 681 -4 l 681 99 q 435 -11 601 -11 q 163 94 274 -11 q 53 375 53 200 q 163 673 53 550 q 450 796 274 796 q 675 725 581 796 l 675 908 q 640 1035 675 1007 l 775 1051 l 775 150 m 460 38 q 675 154 604 38 l 675 581 q 438 747 599 747 q 236 661 313 747 q 160 422 160 575 q 241 149 160 261 q 460 38 322 38 z "},"Đ":{"ha":1039,"x_min":46,"x_max":964,"o":"m 458 965 q 826 835 689 965 q 964 489 964 706 q 826 135 964 269 q 458 0 688 0 l 92 0 q 154 45 136 13 q 172 139 172 78 l 172 469 l 46 469 l 46 511 l 172 511 l 172 832 q 159 924 172 896 q 103 965 146 953 l 458 965 m 453 51 q 739 161 633 51 q 844 486 844 271 q 740 807 844 700 q 453 914 635 914 l 275 914 l 275 511 l 488 511 l 488 469 l 275 469 l 275 51 l 453 51 z "},"đ":{"ha":883,"x_min":53,"x_max":843,"o":"m 843 878 l 775 878 l 775 150 q 814 0 775 39 l 681 -4 l 681 99 q 435 -11 601 -11 q 163 94 274 -11 q 53 375 53 200 q 163 673 53 550 q 450 796 274 796 q 675 725 581 796 l 675 878 l 476 878 l 476 922 l 675 922 q 640 1035 674 1008 l 775 1051 l 775 922 l 843 922 l 843 878 m 460 38 q 675 154 604 38 l 675 581 q 438 747 599 747 q 236 661 313 747 q 160 422 160 575 q 241 149 160 261 q 460 38 322 38 z "},"Ē":{"ha":842,"x_min":82,"x_max":765,"o":"m 631 1150 l 631 1110 l 244 1110 l 244 1150 l 631 1150 m 450 51 q 667 92 604 51 q 765 257 731 133 l 740 0 l 82 0 q 144 45 126 13 q 163 139 163 78 l 163 832 q 149 924 163 896 q 93 965 136 953 l 711 965 l 742 717 q 638 875 707 836 q 411 914 569 914 l 265 914 l 265 543 l 364 543 q 551 568 501 543 q 624 651 601 593 l 608 383 q 549 472 594 446 q 361 499 503 499 l 265 499 l 265 51 l 450 51 z "},"ē":{"ha":829,"x_min":51,"x_max":757,"o":"m 624 950 l 624 910 l 240 910 l 240 950 l 624 950 m 464 38 q 757 299 669 38 l 744 96 q 615 18 694 47 q 451 -11 536 -11 q 162 99 272 -11 q 51 389 51 210 q 155 681 51 567 q 428 796 258 796 q 670 708 589 796 q 754 472 751 619 l 169 472 q 164 389 164 438 q 248 134 164 231 q 464 38 332 38 m 428 747 q 266 686 332 747 q 176 514 200 625 l 644 514 q 582 685 638 624 q 428 747 526 747 z "},"Ĕ":{"ha":842,"x_min":82,"x_max":765,"o":"m 439 1053 q 338 1106 374 1053 q 297 1243 301 1158 l 319 1243 q 355 1151 322 1182 q 440 1119 388 1119 q 558 1243 553 1119 l 581 1243 q 540 1106 576 1158 q 439 1053 503 1053 m 450 51 q 667 92 604 51 q 765 257 731 133 l 740 0 l 82 0 q 144 45 126 13 q 163 139 163 78 l 163 832 q 149 924 163 896 q 93 965 136 953 l 711 965 l 742 717 q 638 875 707 836 q 411 914 569 914 l 265 914 l 265 543 l 364 543 q 551 568 501 543 q 624 651 601 593 l 608 383 q 549 472 594 446 q 361 499 503 499 l 265 499 l 265 51 l 450 51 z "},"ĕ":{"ha":829,"x_min":51,"x_max":757,"o":"m 432 910 q 331 963 367 910 q 290 1100 294 1015 l 313 1100 q 348 1008 315 1039 q 433 976 381 976 q 551 1100 546 976 l 574 1100 q 533 963 569 1015 q 432 910 496 910 m 464 38 q 757 299 669 38 l 744 96 q 615 18 694 47 q 451 -11 536 -11 q 162 99 272 -11 q 51 389 51 210 q 155 681 51 567 q 428 796 258 796 q 670 708 589 796 q 754 472 751 619 l 169 472 q 164 389 164 438 q 248 134 164 231 q 464 38 332 38 m 428 747 q 266 686 332 747 q 176 514 200 625 l 644 514 q 582 685 638 624 q 428 747 526 747 z "},"Ė":{"ha":842,"x_min":82,"x_max":765,"o":"m 494 1098 q 483 1087 494 1098 q 438 1076 472 1076 q 381 1098 403 1076 q 358 1153 358 1119 q 381 1208 358 1186 q 438 1229 403 1229 q 494 1208 472 1229 q 515 1153 515 1186 q 494 1098 515 1119 m 450 51 q 667 92 604 51 q 765 257 731 133 l 740 0 l 82 0 q 144 45 126 13 q 163 139 163 78 l 163 832 q 149 924 163 896 q 93 965 136 953 l 711 965 l 742 717 q 638 875 707 836 q 411 914 569 914 l 265 914 l 265 543 l 364 543 q 551 568 501 543 q 624 651 601 593 l 608 383 q 549 472 594 446 q 361 499 503 499 l 265 499 l 265 51 l 450 51 z "},"ė":{"ha":829,"x_min":51,"x_max":757,"o":"m 487 903 q 476 893 487 903 q 431 882 465 882 q 374 903 396 882 q 351 958 351 925 q 374 1013 351 992 q 431 1035 396 1035 q 487 1013 465 1035 q 508 958 508 992 q 487 903 508 925 m 464 38 q 757 299 669 38 l 744 96 q 615 18 694 47 q 451 -11 536 -11 q 162 99 272 -11 q 51 389 51 210 q 155 681 51 567 q 428 796 258 796 q 670 708 589 796 q 754 472 751 619 l 169 472 q 164 389 164 438 q 248 134 164 231 q 464 38 332 38 m 428 747 q 266 686 332 747 q 176 514 200 625 l 644 514 q 582 685 638 624 q 428 747 526 747 z "},"Ę":{"ha":842,"x_min":82,"x_max":778,"o":"m 681 -201 q 737 -180 710 -201 q 778 -121 764 -158 l 771 -224 q 669 -251 732 -251 q 593 -226 625 -251 q 561 -154 561 -200 q 598 -69 561 -106 q 699 0 635 -33 l 82 0 q 144 45 126 13 q 163 139 163 78 l 163 832 q 149 924 163 896 q 93 965 136 953 l 711 965 l 742 717 q 638 875 707 836 q 411 914 569 914 l 265 914 l 265 543 l 364 543 q 551 568 501 543 q 624 651 601 593 l 608 383 q 549 472 594 446 q 361 499 503 499 l 265 499 l 265 51 l 450 51 q 667 92 604 51 q 765 257 731 133 l 740 0 q 622 -144 622 -67 q 681 -201 622 -201 z "},"ę":{"ha":832,"x_min":54,"x_max":760,"o":"m 658 -201 q 717 -181 690 -201 q 758 -121 744 -160 l 751 -224 q 650 -251 713 -251 q 572 -224 606 -251 q 539 -147 539 -197 q 650 32 539 -65 q 454 -11 560 -11 q 165 99 275 -11 q 54 389 54 210 q 158 681 54 567 q 431 796 261 796 q 673 708 592 796 q 757 472 754 619 l 172 472 q 167 389 167 438 q 251 134 167 231 q 467 38 335 38 q 760 299 672 38 l 747 96 q 600 -137 600 -47 q 658 -201 600 -201 m 431 747 q 269 686 335 747 q 179 514 203 625 l 647 514 q 585 685 640 624 q 431 747 529 747 z "},"Ě":{"ha":842,"x_min":82,"x_max":765,"o":"m 439 1067 l 433 1067 l 264 1286 l 278 1300 l 436 1172 l 596 1300 l 610 1286 l 439 1067 m 450 51 q 667 92 604 51 q 765 257 731 133 l 740 0 l 82 0 q 144 45 126 13 q 163 139 163 78 l 163 832 q 149 924 163 896 q 93 965 136 953 l 711 965 l 742 717 q 638 875 707 836 q 411 914 569 914 l 265 914 l 265 543 l 364 543 q 551 568 501 543 q 624 651 601 593 l 608 383 q 549 472 594 446 q 361 499 503 499 l 265 499 l 265 51 l 450 51 z "},"ě":{"ha":829,"x_min":51,"x_max":757,"o":"m 435 872 l 429 872 l 260 1092 l 274 1106 l 432 978 l 592 1106 l 606 1092 l 435 872 m 464 38 q 757 299 669 38 l 744 96 q 615 18 694 47 q 451 -11 536 -11 q 162 99 272 -11 q 51 389 51 210 q 155 681 51 567 q 428 796 258 796 q 670 708 589 796 q 754 472 751 619 l 169 472 q 164 389 164 438 q 248 134 164 231 q 464 38 332 38 m 428 747 q 266 686 332 747 q 176 514 200 625 l 644 514 q 582 685 638 624 q 428 747 526 747 z "},"Ĝ":{"ha":1014,"x_min":75,"x_max":911,"o":"m 538 1194 l 379 1067 l 365 1081 l 535 1300 l 540 1300 l 711 1081 l 697 1067 l 538 1194 m 911 474 l 911 -8 l 824 69 q 542 -8 707 -8 q 211 133 347 -8 q 75 489 75 274 q 203 835 75 696 q 535 974 331 974 q 713 948 622 974 q 863 885 804 922 l 878 629 q 742 849 832 772 q 529 925 651 925 q 286 811 379 925 q 193 485 193 697 q 290 155 193 269 q 557 40 388 40 q 808 135 710 40 l 806 422 l 774 422 q 561 403 618 422 l 564 479 q 753 474 600 474 l 911 474 z "},"ĝ":{"ha":792,"x_min":7,"x_max":782,"o":"m 375 1000 l 217 872 l 203 886 l 372 1106 l 378 1106 l 549 886 l 535 872 l 375 1000 m 503 161 q 706 107 631 147 q 781 -22 781 67 q 675 -187 781 -128 q 389 -246 569 -246 q 110 -196 214 -246 q 7 -54 7 -146 q 238 100 7 85 q 99 225 99 124 q 140 299 99 271 q 238 332 182 328 q 103 547 103 401 q 183 724 103 656 q 393 793 264 793 q 563 751 490 793 q 613 854 571 819 q 704 889 654 889 q 760 872 739 889 q 782 828 782 856 q 764 786 782 803 q 719 769 746 769 q 674 785 699 769 q 635 800 649 800 q 589 733 600 800 q 682 547 682 665 q 601 369 682 439 q 393 299 521 299 q 333 303 363 299 q 286 306 303 306 q 195 291 231 306 q 160 249 160 276 q 192 206 160 219 q 297 183 225 192 l 503 161 m 385 750 q 252 697 301 750 q 203 561 203 643 q 257 406 203 469 q 401 342 311 342 q 533 394 483 342 q 583 531 583 447 q 528 687 583 624 q 385 750 474 750 m 390 -207 q 624 -165 543 -207 q 706 -57 706 -122 q 671 13 706 -17 q 580 54 636 42 q 475 72 524 67 q 378 78 426 78 q 100 -56 100 78 q 179 -168 100 -129 q 390 -207 258 -207 z "},"Ğ":{"ha":1014,"x_min":75,"x_max":911,"o":"m 535 1053 q 433 1106 469 1053 q 393 1243 397 1158 l 415 1243 q 451 1151 418 1182 q 536 1119 483 1119 q 654 1243 649 1119 l 676 1243 q 635 1106 672 1158 q 535 1053 599 1053 m 911 474 l 911 -8 l 824 69 q 542 -8 707 -8 q 211 133 347 -8 q 75 489 75 274 q 203 835 75 696 q 535 974 331 974 q 713 948 622 974 q 863 885 804 922 l 878 629 q 742 849 832 772 q 529 925 651 925 q 286 811 379 925 q 193 485 193 697 q 290 155 193 269 q 557 40 388 40 q 808 135 710 40 l 806 422 l 774 422 q 561 403 618 422 l 564 479 q 753 474 600 474 l 911 474 z "},"ğ":{"ha":792,"x_min":7,"x_max":782,"o":"m 376 910 q 275 963 311 910 q 235 1100 239 1015 l 257 1100 q 292 1008 260 1039 q 378 976 325 976 q 496 1100 490 976 l 518 1100 q 477 963 514 1015 q 376 910 440 910 m 503 161 q 706 107 631 147 q 781 -22 781 67 q 675 -187 781 -128 q 389 -246 569 -246 q 110 -196 214 -246 q 7 -54 7 -146 q 238 100 7 85 q 99 225 99 124 q 140 299 99 271 q 238 332 182 328 q 103 547 103 401 q 183 724 103 656 q 393 793 264 793 q 563 751 490 793 q 613 854 571 819 q 704 889 654 889 q 760 872 739 889 q 782 828 782 856 q 764 786 782 803 q 719 769 746 769 q 674 785 699 769 q 635 800 649 800 q 589 733 600 800 q 682 547 682 665 q 601 369 682 439 q 393 299 521 299 q 333 303 363 299 q 286 306 303 306 q 195 291 231 306 q 160 249 160 276 q 192 206 160 219 q 297 183 225 192 l 503 161 m 385 750 q 252 697 301 750 q 203 561 203 643 q 257 406 203 469 q 401 342 311 342 q 533 394 483 342 q 583 531 583 447 q 528 687 583 624 q 385 750 474 750 m 390 -207 q 624 -165 543 -207 q 706 -57 706 -122 q 671 13 706 -17 q 580 54 636 42 q 475 72 524 67 q 378 78 426 78 q 100 -56 100 78 q 179 -168 100 -129 q 390 -207 258 -207 z "},"Ġ":{"ha":1014,"x_min":75,"x_max":911,"o":"m 590 1098 q 579 1087 590 1098 q 533 1076 568 1076 q 476 1098 499 1076 q 454 1153 454 1119 q 476 1208 454 1186 q 533 1229 499 1229 q 590 1208 568 1229 q 611 1153 611 1186 q 590 1098 611 1119 m 911 474 l 911 -8 l 824 69 q 542 -8 707 -8 q 211 133 347 -8 q 75 489 75 274 q 203 835 75 696 q 535 974 331 974 q 713 948 622 974 q 863 885 804 922 l 878 629 q 742 849 832 772 q 529 925 651 925 q 286 811 379 925 q 193 485 193 697 q 290 155 193 269 q 557 40 388 40 q 808 135 710 40 l 806 422 l 774 422 q 561 403 618 422 l 564 479 q 753 474 600 474 l 911 474 z "},"ġ":{"ha":792,"x_min":7,"x_max":782,"o":"m 431 903 q 420 893 431 903 q 375 882 410 882 q 318 903 340 882 q 296 958 296 925 q 318 1013 296 992 q 375 1035 340 1035 q 431 1013 410 1035 q 453 958 453 992 q 431 903 453 925 m 503 161 q 706 107 631 147 q 781 -22 781 67 q 675 -187 781 -128 q 389 -246 569 -246 q 110 -196 214 -246 q 7 -54 7 -146 q 238 100 7 85 q 99 225 99 124 q 140 299 99 271 q 238 332 182 328 q 103 547 103 401 q 183 724 103 656 q 393 793 264 793 q 563 751 490 793 q 613 854 571 819 q 704 889 654 889 q 760 872 739 889 q 782 828 782 856 q 764 786 782 803 q 719 769 746 769 q 674 785 699 769 q 635 800 649 800 q 589 733 600 800 q 682 547 682 665 q 601 369 682 439 q 393 299 521 299 q 333 303 363 299 q 286 306 303 306 q 195 291 231 306 q 160 249 160 276 q 192 206 160 219 q 297 183 225 192 l 503 161 m 385 750 q 252 697 301 750 q 203 561 203 643 q 257 406 203 469 q 401 342 311 342 q 533 394 483 342 q 583 531 583 447 q 528 687 583 624 q 385 750 474 750 m 390 -207 q 624 -165 543 -207 q 706 -57 706 -122 q 671 13 706 -17 q 580 54 636 42 q 475 72 524 67 q 378 78 426 78 q 100 -56 100 78 q 179 -168 100 -129 q 390 -207 258 -207 z "},"Ģ":{"ha":1014,"x_min":75,"x_max":911,"o":"m 911 474 l 911 -8 l 824 69 q 542 -8 707 -8 q 211 133 347 -8 q 75 489 75 274 q 203 835 75 696 q 535 974 331 974 q 713 948 622 974 q 863 885 804 922 l 878 629 q 742 849 832 772 q 529 925 651 925 q 286 811 379 925 q 193 485 193 697 q 290 155 193 269 q 557 40 388 40 q 808 135 710 40 l 806 422 l 774 422 q 561 403 618 422 l 564 479 q 753 474 600 474 l 911 474 m 497 -108 q 506 -98 497 -108 q 547 -89 515 -89 q 599 -111 579 -89 q 619 -176 619 -133 q 586 -269 619 -233 q 500 -308 553 -304 l 496 -296 q 554 -219 554 -283 l 549 -219 q 499 -201 518 -219 q 479 -154 479 -182 q 497 -108 479 -126 z "},"ģ":{"ha":792,"x_min":7,"x_max":782,"o":"m 426 892 q 417 883 426 892 q 376 874 408 874 q 324 896 344 874 q 304 961 304 918 q 338 1053 304 1018 q 424 1093 371 1089 l 428 1081 q 369 1004 369 1068 l 375 1004 q 425 985 406 1004 q 444 939 444 967 q 426 892 444 911 m 503 161 q 706 107 631 147 q 781 -22 781 67 q 675 -187 781 -128 q 389 -246 569 -246 q 110 -196 214 -246 q 7 -54 7 -146 q 238 100 7 85 q 99 225 99 124 q 140 299 99 271 q 238 332 182 328 q 103 547 103 401 q 183 724 103 656 q 393 793 264 793 q 563 751 490 793 q 613 854 571 819 q 704 889 654 889 q 760 872 739 889 q 782 828 782 856 q 764 786 782 803 q 719 769 746 769 q 674 785 699 769 q 635 800 649 800 q 589 733 600 800 q 682 547 682 665 q 601 369 682 439 q 393 299 521 299 q 333 303 363 299 q 286 306 303 306 q 195 291 231 306 q 160 249 160 276 q 192 206 160 219 q 297 183 225 192 l 503 161 m 385 750 q 252 697 301 750 q 203 561 203 643 q 257 406 203 469 q 401 342 311 342 q 533 394 483 342 q 583 531 583 447 q 528 687 583 624 q 385 750 474 750 m 390 -207 q 624 -165 543 -207 q 706 -57 706 -122 q 671 13 706 -17 q 580 54 636 42 q 475 72 524 67 q 378 78 426 78 q 100 -56 100 78 q 179 -168 100 -129 q 390 -207 258 -207 z "},"Ĥ":{"ha":1092,"x_min":82,"x_max":1010,"o":"m 550 1194 l 392 1067 l 378 1081 l 547 1300 l 553 1300 l 724 1081 l 710 1067 l 550 1194 m 936 178 q 951 50 936 86 q 1010 0 967 14 l 758 0 q 818 49 803 13 q 833 178 833 86 l 833 503 l 260 503 l 260 178 q 275 50 260 86 q 333 0 290 14 l 82 0 q 142 49 126 13 q 157 178 157 86 l 157 788 q 142 916 157 879 q 82 965 126 953 l 333 965 q 275 915 290 951 q 260 788 260 879 l 260 554 l 833 554 l 833 788 q 818 916 833 879 q 758 965 803 953 l 1010 965 q 951 915 967 951 q 936 788 936 879 l 936 178 z "},"ĥ":{"ha":918,"x_min":-8,"x_max":875,"o":"m 324 1138 l 164 1265 l 6 1138 l -8 1151 l 161 1371 l 167 1371 l 338 1151 l 324 1138 m 631 0 q 688 48 672 11 q 703 149 703 85 l 703 515 q 494 740 703 740 q 322 682 394 740 q 225 513 250 624 l 225 149 q 297 0 225 22 l 53 0 q 110 48 94 11 q 125 149 125 85 l 125 908 q 90 1035 125 1007 l 225 1051 l 225 629 q 517 796 307 796 q 724 735 646 796 q 803 540 803 674 l 803 149 q 875 0 803 22 l 631 0 z "},"Ħ":{"ha":1118,"x_min":47,"x_max":1068,"o":"m 1068 743 l 949 743 l 949 178 q 964 50 949 86 q 1022 0 979 14 l 771 0 q 831 49 815 13 q 846 178 846 86 l 846 503 l 272 503 l 272 178 q 288 50 272 86 q 346 0 303 14 l 94 0 q 154 49 139 13 q 169 178 169 86 l 169 743 l 47 743 l 47 785 l 169 785 l 169 788 q 154 916 169 879 q 94 965 139 953 l 346 965 q 288 915 303 951 q 272 788 272 879 l 272 785 l 846 785 l 846 788 q 831 916 846 879 q 771 965 815 953 l 1022 965 q 964 915 979 951 q 949 788 949 879 l 949 785 l 1068 785 l 1068 743 m 846 554 l 846 743 l 272 743 l 272 554 l 846 554 z "},"ħ":{"ha":918,"x_min":53,"x_max":875,"o":"m 631 0 q 688 48 672 11 q 703 149 703 85 l 703 515 q 494 740 703 740 q 322 682 394 740 q 225 513 250 624 l 225 149 q 297 0 225 22 l 53 0 q 110 48 94 11 q 125 149 125 85 l 125 878 l 53 878 l 53 922 l 125 922 q 90 1035 124 1008 l 225 1051 l 225 922 l 419 922 l 419 878 l 225 878 l 225 629 q 517 796 307 796 q 724 735 646 796 q 803 540 803 674 l 803 149 q 875 0 803 22 l 631 0 z "},"Ĩ":{"ha":413,"x_min":8,"x_max":392,"o":"m 389 1233 q 359 1135 392 1171 q 265 1100 326 1100 q 205 1111 229 1100 q 169 1138 181 1122 q 149 1170 158 1154 q 126 1197 140 1186 q 90 1208 113 1208 q 31 1110 26 1208 l 11 1110 q 42 1208 8 1172 q 135 1243 75 1243 q 206 1226 179 1243 q 240 1188 232 1208 q 265 1151 249 1168 q 307 1133 281 1133 q 355 1160 339 1133 q 369 1233 371 1186 l 389 1233 m 260 178 q 275 50 260 86 q 333 0 290 14 l 82 0 q 142 49 126 13 q 157 178 157 86 l 157 788 q 142 916 157 879 q 82 965 126 953 l 333 965 q 275 915 290 951 q 260 788 260 879 l 260 178 z "},"ĩ":{"ha":353,"x_min":-17,"x_max":367,"o":"m 364 1017 q 334 919 367 954 q 240 883 301 883 q 180 894 204 883 q 144 922 156 906 q 124 953 133 938 q 101 981 115 969 q 65 992 88 992 q 6 893 1 992 l -14 893 q 17 991 -17 956 q 110 1026 50 1026 q 181 1009 154 1026 q 215 972 207 992 q 240 934 224 951 q 282 917 256 917 q 330 943 314 917 q 344 1017 346 969 l 364 1017 m 229 149 q 301 0 229 22 l 57 0 q 114 48 99 11 q 129 149 129 85 l 129 619 q 90 781 129 733 l 229 793 l 229 149 z "},"Ī":{"ha":413,"x_min":14,"x_max":400,"o":"m 400 1150 l 400 1110 l 14 1110 l 14 1150 l 400 1150 m 260 178 q 275 50 260 86 q 333 0 290 14 l 82 0 q 142 49 126 13 q 157 178 157 86 l 157 788 q 142 916 157 879 q 82 965 126 953 l 333 965 q 275 915 290 951 q 260 788 260 879 l 260 178 z "},"ī":{"ha":353,"x_min":-17,"x_max":367,"o":"m -17 950 l 367 950 l 367 910 l -17 910 l -17 950 m 229 149 q 301 0 229 22 l 57 0 q 114 48 99 11 q 129 149 129 85 l 129 619 q 90 781 129 733 l 229 793 l 229 149 z "},"Ĭ":{"ha":413,"x_min":67,"x_max":350,"o":"m 350 1243 q 309 1106 346 1158 q 208 1053 272 1053 q 107 1106 143 1053 q 67 1243 71 1158 l 89 1243 q 124 1151 92 1182 q 210 1119 157 1119 q 328 1243 322 1119 l 350 1243 m 260 178 q 275 50 260 86 q 333 0 290 14 l 82 0 q 142 49 126 13 q 157 178 157 86 l 157 788 q 142 916 157 879 q 82 965 126 953 l 333 965 q 275 915 290 951 q 260 788 260 879 l 260 178 z "},"ĭ":{"ha":353,"x_min":33,"x_max":317,"o":"m 175 910 q 74 963 110 910 q 33 1100 38 1015 l 56 1100 q 91 1008 58 1039 q 176 976 124 976 q 294 1100 289 976 l 317 1100 q 276 963 313 1015 q 175 910 239 910 m 229 149 q 301 0 229 22 l 57 0 q 114 48 99 11 q 129 149 129 85 l 129 619 q 90 781 129 733 l 229 793 l 229 149 z "},"Į":{"ha":413,"x_min":82,"x_max":371,"o":"m 274 -201 q 330 -180 303 -201 q 371 -121 357 -158 l 364 -224 q 263 -251 325 -251 q 186 -226 218 -251 q 154 -154 154 -200 q 191 -69 154 -106 q 292 0 228 -33 l 82 0 q 142 49 126 13 q 157 178 157 86 l 157 788 q 142 916 157 879 q 82 965 126 953 l 333 965 q 275 915 290 951 q 260 788 260 879 l 260 178 q 275 50 260 86 q 333 0 290 14 q 215 -144 215 -67 q 274 -201 215 -201 z "},"į":{"ha":353,"x_min":57,"x_max":339,"o":"m 230 903 q 219 893 230 903 q 174 882 208 882 q 117 903 139 882 q 94 958 94 925 q 117 1013 94 992 q 174 1035 139 1035 q 230 1013 208 1035 q 251 958 251 992 q 230 903 251 925 m 242 -201 q 298 -180 271 -201 q 339 -121 325 -158 l 332 -224 q 231 -251 293 -251 q 154 -226 186 -251 q 122 -154 122 -200 q 159 -69 122 -106 q 260 0 196 -33 l 57 0 q 114 48 99 11 q 129 149 129 85 l 129 619 q 90 781 129 733 l 229 793 l 229 149 q 301 0 229 22 q 183 -144 183 -67 q 242 -201 183 -201 z "},"İ":{"ha":413,"x_min":82,"x_max":333,"o":"m 263 1098 q 252 1087 263 1098 q 207 1076 242 1076 q 150 1098 172 1076 q 128 1153 128 1119 q 150 1208 128 1186 q 207 1229 172 1229 q 263 1208 242 1229 q 285 1153 285 1186 q 263 1098 285 1119 m 260 178 q 275 50 260 86 q 333 0 290 14 l 82 0 q 142 49 126 13 q 157 178 157 86 l 157 788 q 142 916 157 879 q 82 965 126 953 l 333 965 q 275 915 290 951 q 260 788 260 879 l 260 178 z "},"ı":{"ha":353,"x_min":57,"x_max":301,"o":"m 57 0 q 114 48 99 11 q 129 149 129 85 l 129 619 q 90 781 129 733 l 229 793 l 229 149 q 301 0 229 22 l 57 0 z "},"Ĳ":{"ha":1099,"x_min":82,"x_max":1032,"o":"m 260 178 q 275 50 260 86 q 333 0 290 14 l 82 0 q 142 49 126 13 q 157 178 157 86 l 157 788 q 142 916 157 879 q 82 965 126 953 l 333 965 q 275 915 290 951 q 260 788 260 879 l 260 178 m 1032 965 q 973 919 989 951 q 957 815 957 886 l 957 307 q 956 240 957 264 q 947 172 954 215 q 924 101 940 128 q 879 45 907 74 q 804 3 851 17 q 693 -11 757 -11 q 444 79 547 -11 l 463 338 q 549 106 494 175 q 690 38 604 38 q 770 56 738 38 q 819 99 803 75 q 843 163 835 124 q 853 224 851 203 q 854 281 854 246 l 854 815 q 839 920 854 888 q 779 965 824 953 l 1032 965 z "},"ĳ":{"ha":658,"x_min":57,"x_max":579,"o":"m 230 903 q 219 893 230 903 q 174 882 208 882 q 117 903 139 882 q 94 958 94 925 q 117 1013 94 992 q 174 1035 139 1035 q 230 1013 208 1035 q 251 958 251 992 q 230 903 251 925 m 444 1013 q 456 1024 444 1013 q 501 1035 467 1035 q 558 1013 536 1035 q 579 958 579 992 q 558 903 579 925 q 501 882 536 882 q 444 903 467 882 q 422 958 422 925 q 444 1013 422 992 m 229 149 q 301 0 229 22 l 57 0 q 114 48 99 11 q 129 149 129 85 l 129 619 q 90 781 129 733 l 229 793 l 229 149 m 454 619 q 415 781 454 733 l 554 793 l 554 92 q 510 -153 554 -74 q 372 -261 467 -233 q 438 -121 421 -197 q 454 101 454 -44 l 454 619 z "},"Ĵ":{"ha":715,"x_min":61,"x_max":694,"o":"m 681 1067 l 521 1194 l 363 1067 l 349 1081 l 518 1300 l 524 1300 l 694 1081 l 681 1067 m 649 965 q 590 919 606 951 q 574 815 574 886 l 574 307 q 572 240 574 264 q 564 172 571 215 q 540 101 557 128 q 496 45 524 74 q 421 3 468 17 q 310 -11 374 -11 q 61 79 164 -11 l 79 338 q 166 106 111 175 q 307 38 221 38 q 387 56 354 38 q 435 99 419 75 q 460 163 451 124 q 469 224 468 203 q 471 281 471 246 l 471 815 q 456 920 471 888 q 396 965 440 953 l 649 965 z "},"ĵ":{"ha":317,"x_min":-12,"x_max":333,"o":"m 163 1106 l 333 886 l 319 872 l 160 1000 l 1 872 l -12 886 l 157 1106 l 163 1106 m 113 619 q 74 781 113 733 l 213 793 l 213 92 q 169 -153 213 -74 q 31 -261 125 -233 q 96 -121 79 -197 q 113 101 113 -44 l 113 619 z "},"Ķ":{"ha":979,"x_min":82,"x_max":942,"o":"m 767 201 q 942 0 919 13 l 753 0 q 733 71 753 35 q 660 178 713 107 q 539 334 636 207 q 396 518 442 461 l 260 393 l 260 178 q 275 50 260 86 q 333 0 290 14 l 82 0 q 142 49 126 13 q 157 178 157 86 l 157 788 q 142 916 157 879 q 82 965 126 953 l 333 965 q 275 915 290 951 q 260 788 260 879 l 260 450 l 649 814 q 743 965 765 922 l 915 965 q 679 779 831 919 l 467 583 q 590 426 475 572 q 767 201 704 279 m 460 -108 q 469 -98 460 -108 q 510 -89 478 -89 q 562 -111 542 -89 q 582 -176 582 -133 q 549 -269 582 -233 q 463 -308 515 -304 l 458 -296 q 517 -219 517 -283 l 511 -219 q 461 -201 481 -219 q 442 -154 442 -182 q 460 -108 442 -126 z "},"ķ":{"ha":822,"x_min":53,"x_max":807,"o":"m 807 0 l 625 0 q 553 146 644 28 l 349 411 l 225 300 l 225 149 q 297 0 225 22 l 53 0 q 110 48 94 11 q 125 149 125 85 l 125 908 q 90 1035 125 1007 l 225 1051 l 225 357 l 540 642 q 639 785 643 733 l 779 785 q 546 588 742 764 l 424 478 l 679 151 q 807 0 796 3 m 354 -108 q 363 -98 354 -108 q 404 -89 372 -89 q 456 -111 436 -89 q 476 -176 476 -133 q 443 -269 476 -233 q 357 -308 410 -304 l 353 -296 q 411 -219 411 -283 l 406 -219 q 356 -201 375 -219 q 336 -154 336 -182 q 354 -108 336 -126 z "},"ĸ":{"ha":822,"x_min":57,"x_max":807,"o":"m 807 0 l 625 0 q 553 146 644 28 l 349 411 l 229 304 l 229 149 q 301 0 229 22 l 57 0 q 114 48 99 11 q 129 149 129 85 l 129 619 q 90 781 129 733 l 229 793 l 229 361 l 540 642 q 639 785 643 733 l 779 785 q 546 588 742 764 l 424 478 l 679 151 q 807 0 796 3 z "},"Ĺ":{"ha":776,"x_min":82,"x_max":719,"o":"m 376 1289 l 224 1056 l 201 1056 l 271 1289 l 376 1289 m 404 51 q 582 69 522 51 q 669 126 642 88 q 719 247 696 164 l 706 0 l 82 0 q 141 43 125 13 q 157 136 157 74 l 157 829 q 141 922 157 892 q 82 965 125 953 l 335 965 q 276 921 292 951 q 260 829 260 890 l 260 51 l 404 51 z "},"ĺ":{"ha":351,"x_min":53,"x_max":342,"o":"m 342 1360 l 189 1126 l 167 1126 l 236 1360 l 342 1360 m 225 149 q 297 0 225 22 l 53 0 q 110 48 94 11 q 125 149 125 85 l 125 908 q 90 1035 125 1007 l 225 1051 l 225 149 z "},"Ļ":{"ha":776,"x_min":82,"x_max":719,"o":"m 404 51 q 582 69 522 51 q 669 126 642 88 q 719 247 696 164 l 706 0 l 82 0 q 141 43 125 13 q 157 136 157 74 l 157 829 q 141 922 157 892 q 82 965 125 953 l 335 965 q 276 921 292 951 q 260 829 260 890 l 260 51 l 404 51 m 339 -108 q 348 -98 339 -108 q 389 -89 357 -89 q 441 -111 421 -89 q 461 -176 461 -133 q 428 -269 461 -233 q 342 -308 394 -304 l 338 -296 q 396 -219 396 -283 l 390 -219 q 340 -201 360 -219 q 321 -154 321 -182 q 339 -108 321 -126 z "},"ļ":{"ha":351,"x_min":53,"x_max":297,"o":"m 53 0 q 110 48 94 11 q 125 149 125 85 l 125 908 q 90 1035 125 1007 l 225 1051 l 225 149 q 297 0 225 22 l 53 0 m 125 -108 q 134 -98 125 -108 q 175 -89 143 -89 q 227 -111 207 -89 q 247 -176 247 -133 q 214 -269 247 -233 q 128 -308 181 -304 l 124 -296 q 182 -219 182 -283 l 176 -219 q 126 -201 146 -219 q 107 -154 107 -182 q 125 -108 107 -126 z "},"Ľ":{"ha":776,"x_min":36,"x_max":719,"o":"m 211 1067 l 206 1067 l 36 1286 l 50 1300 l 208 1172 l 368 1300 l 382 1286 l 211 1067 m 404 51 q 582 69 522 51 q 669 126 642 88 q 719 247 696 164 l 706 0 l 82 0 q 141 43 125 13 q 157 136 157 74 l 157 829 q 141 922 157 892 q 82 965 125 953 l 335 965 q 276 921 292 951 q 260 829 260 890 l 260 51 l 404 51 z "},"ľ":{"ha":351,"x_min":3,"x_max":349,"o":"m 178 1124 l 172 1124 l 3 1343 l 17 1357 l 175 1229 l 335 1357 l 349 1343 l 178 1124 m 225 149 q 297 0 225 22 l 53 0 q 110 48 94 11 q 125 149 125 85 l 125 908 q 90 1035 125 1007 l 225 1051 l 225 149 z "},"Ŀ":{"ha":847,"x_min":82,"x_max":799,"o":"m 404 51 q 582 69 522 51 q 669 126 642 88 q 719 247 696 164 l 706 0 l 82 0 q 141 43 125 13 q 157 136 157 74 l 157 829 q 141 922 157 892 q 82 965 125 953 l 335 965 q 276 921 292 951 q 260 829 260 890 l 260 51 l 404 51 m 701 546 q 709 553 701 546 q 742 561 717 561 q 783 546 767 561 q 799 507 799 531 q 783 467 799 483 q 742 451 767 451 q 701 467 717 451 q 685 507 685 483 q 701 546 685 531 z "},"ŀ":{"ha":449,"x_min":53,"x_max":485,"o":"m 225 149 q 297 0 225 22 l 53 0 q 110 48 94 11 q 125 149 125 85 l 125 908 q 90 1035 125 1007 l 225 1051 l 225 149 m 342 469 q 353 481 342 469 q 401 492 365 492 q 461 469 438 492 q 485 414 485 447 q 461 355 485 378 q 401 332 438 332 q 342 355 365 332 q 318 414 318 378 q 342 469 318 447 z "},"Ł":{"ha":831,"x_min":40,"x_max":774,"o":"m 458 51 q 636 69 576 51 q 723 126 696 88 q 774 247 750 164 l 760 0 l 136 0 q 195 43 179 13 q 211 136 211 74 l 211 471 l 53 382 l 40 418 l 211 515 l 211 829 q 195 922 211 892 q 136 965 179 953 l 389 965 q 330 921 346 951 q 314 829 314 890 l 314 574 l 597 735 l 613 697 l 314 529 l 314 51 l 458 51 z "},"ł":{"ha":475,"x_min":18,"x_max":464,"o":"m 268 149 q 340 0 268 22 l 96 0 q 153 48 138 11 q 168 149 168 85 l 168 574 l 38 488 l 18 526 l 168 626 l 168 908 q 133 1035 168 1007 l 268 1051 l 268 682 l 442 797 l 464 763 l 268 632 l 268 149 z "},"Ń":{"ha":1086,"x_min":79,"x_max":1011,"o":"m 731 1289 l 578 1056 l 556 1056 l 625 1289 l 731 1289 m 808 965 l 1011 965 q 952 908 968 949 q 936 788 936 867 l 936 0 l 913 0 l 207 846 l 207 178 q 223 58 207 99 q 282 0 239 17 l 79 0 q 138 56 122 17 q 154 178 154 96 l 154 801 q 138 915 154 878 q 79 965 122 951 l 242 965 l 883 178 l 883 788 q 867 909 883 869 q 808 965 851 949 z "},"ń":{"ha":935,"x_min":57,"x_max":892,"o":"m 656 1113 l 503 879 l 481 879 l 550 1113 l 656 1113 m 647 0 q 704 48 689 11 q 719 149 719 85 l 719 515 q 511 740 719 740 q 313 656 390 740 q 229 415 235 572 l 229 149 q 301 0 229 22 l 57 0 q 114 48 99 11 q 129 149 129 85 l 129 619 q 90 781 129 733 l 229 793 l 229 603 q 533 796 308 796 q 741 735 663 796 q 819 540 819 674 l 819 149 q 892 0 819 22 l 647 0 z "},"Ņ":{"ha":1086,"x_min":79,"x_max":1011,"o":"m 808 965 l 1011 965 q 952 908 968 949 q 936 788 936 867 l 936 0 l 913 0 l 207 846 l 207 178 q 223 58 207 99 q 282 0 239 17 l 79 0 q 138 56 122 17 q 154 178 154 96 l 154 801 q 138 915 154 878 q 79 965 122 951 l 242 965 l 883 178 l 883 788 q 867 909 883 869 q 808 965 851 949 m 464 -108 q 473 -98 464 -108 q 514 -89 482 -89 q 566 -111 546 -89 q 586 -176 586 -133 q 553 -269 586 -233 q 467 -308 519 -304 l 463 -296 q 521 -219 521 -283 l 515 -219 q 465 -201 485 -219 q 446 -154 446 -182 q 464 -108 446 -126 z "},"ņ":{"ha":935,"x_min":57,"x_max":892,"o":"m 647 0 q 704 48 689 11 q 719 149 719 85 l 719 515 q 511 740 719 740 q 313 656 390 740 q 229 415 235 572 l 229 149 q 301 0 229 22 l 57 0 q 114 48 99 11 q 129 149 129 85 l 129 619 q 90 781 129 733 l 229 793 l 229 603 q 533 796 308 796 q 741 735 663 796 q 819 540 819 674 l 819 149 q 892 0 819 22 l 647 0 m 440 -108 q 449 -98 440 -108 q 490 -89 458 -89 q 542 -111 522 -89 q 563 -176 563 -133 q 529 -269 563 -233 q 443 -308 496 -304 l 439 -296 q 497 -219 497 -283 l 492 -219 q 442 -201 461 -219 q 422 -154 422 -182 q 440 -108 422 -126 z "},"Ň":{"ha":1086,"x_min":79,"x_max":1011,"o":"m 565 1067 l 560 1067 l 390 1286 l 404 1300 l 563 1172 l 722 1300 l 736 1286 l 565 1067 m 808 965 l 1011 965 q 952 908 968 949 q 936 788 936 867 l 936 0 l 913 0 l 207 846 l 207 178 q 223 58 207 99 q 282 0 239 17 l 79 0 q 138 56 122 17 q 154 178 154 96 l 154 801 q 138 915 154 878 q 79 965 122 951 l 242 965 l 883 178 l 883 788 q 867 909 883 869 q 808 965 851 949 z "},"ň":{"ha":935,"x_min":57,"x_max":892,"o":"m 493 872 l 488 872 l 318 1092 l 332 1106 l 490 978 l 650 1106 l 664 1092 l 493 872 m 647 0 q 704 48 689 11 q 719 149 719 85 l 719 515 q 511 740 719 740 q 313 656 390 740 q 229 415 235 572 l 229 149 q 301 0 229 22 l 57 0 q 114 48 99 11 q 129 149 129 85 l 129 619 q 90 781 129 733 l 229 793 l 229 603 q 533 796 308 796 q 741 735 663 796 q 819 540 819 674 l 819 149 q 892 0 819 22 l 647 0 z "},"ŉ":{"ha":1035,"x_min":4,"x_max":992,"o":"m 20 985 q 28 992 20 985 q 61 1000 36 1000 q 102 983 86 1000 q 118 935 118 965 q 21 783 118 826 l 15 789 q 67 890 64 839 l 61 890 q 20 906 36 890 q 4 946 4 922 q 20 985 4 969 m 747 0 q 804 48 789 11 q 819 149 819 85 l 819 515 q 611 740 819 740 q 413 656 490 740 q 329 415 335 572 l 329 149 q 401 0 329 22 l 157 0 q 214 48 199 11 q 229 149 229 85 l 229 619 q 190 781 229 733 l 329 793 l 329 603 q 633 796 408 796 q 841 735 763 796 q 919 540 919 674 l 919 149 q 992 0 919 22 l 747 0 z "},"Ŋ":{"ha":1068,"x_min":64,"x_max":996,"o":"m 801 965 l 996 965 q 937 908 953 949 q 921 788 921 867 l 921 0 q 881 -154 921 -79 q 782 -242 842 -229 l 757 -115 q 853 -116 813 -142 q 893 -35 893 -90 q 867 36 893 1 l 183 854 l 183 178 q 199 58 183 99 q 258 0 215 17 l 64 0 q 123 56 107 17 q 139 178 139 96 l 139 801 q 123 915 139 878 q 64 965 107 951 l 218 965 l 876 176 l 876 788 q 860 909 876 869 q 801 965 844 949 z "},"ŋ":{"ha":911,"x_min":57,"x_max":819,"o":"m 533 796 q 741 735 663 796 q 819 540 819 674 l 819 92 q 776 -153 819 -74 q 638 -261 732 -233 q 703 -121 686 -197 q 719 101 719 -44 l 719 515 q 511 740 719 740 q 313 656 390 740 q 229 415 235 572 l 229 149 q 301 0 229 22 l 57 0 q 114 48 99 11 q 129 149 129 85 l 129 619 q 90 781 129 733 l 229 793 l 229 613 q 533 796 308 796 z "},"Ō":{"ha":1081,"x_min":75,"x_max":1006,"o":"m 735 1150 l 735 1110 l 349 1110 l 349 1150 l 735 1150 m 203 837 q 268 907 203 837 q 540 978 332 978 q 877 837 749 978 q 1006 483 1006 696 q 877 130 1006 271 q 540 -11 749 -11 q 203 130 332 -11 q 75 483 75 271 q 203 837 75 696 m 288 154 q 336 97 288 154 q 540 40 383 40 q 792 154 697 40 q 888 483 888 268 q 792 813 888 699 q 540 926 697 926 q 288 813 383 926 q 193 483 193 699 q 288 154 193 268 z "},"ō":{"ha":900,"x_min":51,"x_max":849,"o":"m 642 950 l 642 910 l 258 910 l 258 950 l 642 950 m 849 393 l 849 392 q 734 103 849 218 q 450 -11 619 -11 q 166 103 281 -11 q 51 392 51 218 l 51 393 q 166 681 51 567 q 450 796 281 796 q 734 681 619 796 q 849 393 849 567 m 244 137 q 284 87 244 137 q 450 38 324 38 q 656 137 576 38 q 736 393 736 236 q 656 648 736 549 q 450 747 576 747 q 244 648 324 747 q 164 393 164 549 q 244 137 164 236 z "},"Ŏ":{"ha":1081,"x_min":75,"x_max":1006,"o":"m 543 1053 q 442 1106 478 1053 q 401 1243 406 1158 l 424 1243 q 459 1151 426 1182 q 544 1119 492 1119 q 663 1243 657 1119 l 685 1243 q 644 1106 681 1158 q 543 1053 607 1053 m 203 837 q 268 907 203 837 q 540 978 332 978 q 877 837 749 978 q 1006 483 1006 696 q 877 130 1006 271 q 540 -11 749 -11 q 203 130 332 -11 q 75 483 75 271 q 203 837 75 696 m 288 154 q 336 97 288 154 q 540 40 383 40 q 792 154 697 40 q 888 483 888 268 q 792 813 888 699 q 540 926 697 926 q 288 813 383 926 q 193 483 193 699 q 288 154 193 268 z "},"ŏ":{"ha":900,"x_min":51,"x_max":849,"o":"m 450 910 q 349 963 385 910 q 308 1100 313 1015 l 331 1100 q 366 1008 333 1039 q 451 976 399 976 q 569 1100 564 976 l 592 1100 q 551 963 588 1015 q 450 910 514 910 m 849 393 l 849 392 q 734 103 849 218 q 450 -11 619 -11 q 166 103 281 -11 q 51 392 51 218 l 51 393 q 166 681 51 567 q 450 796 281 796 q 734 681 619 796 q 849 393 849 567 m 244 137 q 284 87 244 137 q 450 38 324 38 q 656 137 576 38 q 736 393 736 236 q 656 648 736 549 q 450 747 576 747 q 244 648 324 747 q 164 393 164 549 q 244 137 164 236 z "},"Ő":{"ha":1081,"x_min":75,"x_max":1006,"o":"m 689 1272 l 522 1046 l 508 1046 l 590 1272 l 689 1272 m 585 1046 l 564 1046 l 785 1272 l 899 1272 l 585 1046 m 203 837 q 268 907 203 837 q 540 978 332 978 q 877 837 749 978 q 1006 483 1006 696 q 877 130 1006 271 q 540 -11 749 -11 q 203 130 332 -11 q 75 483 75 271 q 203 837 75 696 m 288 154 q 336 97 288 154 q 540 40 383 40 q 792 154 697 40 q 888 483 888 268 q 792 813 888 699 q 540 926 697 926 q 288 813 383 926 q 193 483 193 699 q 288 154 193 268 z "},"ő":{"ha":900,"x_min":51,"x_max":849,"o":"m 597 1092 l 431 865 l 417 865 l 499 1092 l 597 1092 m 493 865 l 472 865 l 693 1092 l 807 1092 l 493 865 m 849 393 l 849 392 q 734 103 849 218 q 450 -11 619 -11 q 166 103 281 -11 q 51 392 51 218 l 51 393 q 166 681 51 567 q 450 796 281 796 q 734 681 619 796 q 849 393 849 567 m 244 137 q 284 87 244 137 q 450 38 324 38 q 656 137 576 38 q 736 393 736 236 q 656 648 736 549 q 450 747 576 747 q 244 648 324 747 q 164 393 164 549 q 244 137 164 236 z "},"Œ":{"ha":1290,"x_min":75,"x_max":1214,"o":"m 899 51 q 1116 92 1053 51 q 1214 257 1179 133 l 1189 0 l 782 0 q 626 -4 693 0 q 535 -8 560 -8 q 201 131 326 -8 q 75 482 75 269 q 200 835 75 696 q 525 975 325 975 q 626 970 554 975 q 778 965 697 965 l 1160 965 l 1190 717 q 1087 875 1156 836 q 860 914 1018 914 l 744 914 l 744 543 l 813 543 q 1000 568 950 543 q 1072 651 1050 593 l 1057 383 q 997 472 1043 446 q 810 499 951 499 l 744 499 l 744 51 l 899 51 m 193 483 q 281 155 193 269 q 507 40 368 40 q 585 53 556 40 q 625 97 614 67 q 639 151 636 128 q 642 222 642 175 l 642 749 q 641 810 642 790 q 633 858 640 831 q 613 897 626 885 q 575 917 600 908 q 513 926 550 926 q 276 808 360 926 q 193 483 193 689 z "},"œ":{"ha":1503,"x_min":51,"x_max":1431,"o":"m 1138 38 q 1431 299 1343 38 l 1418 96 q 1289 18 1368 47 q 1125 -11 1210 -11 q 919 38 1008 -11 q 783 174 829 86 q 647 38 735 88 q 450 -11 558 -11 q 166 103 281 -11 q 51 393 51 218 q 166 681 51 567 q 450 796 281 796 q 647 747 558 796 q 783 611 735 697 q 910 747 826 697 q 1101 796 993 796 q 1344 708 1263 796 q 1428 472 1425 619 l 843 472 q 838 389 838 438 q 922 134 838 231 q 1138 38 1006 38 m 244 137 q 284 87 244 137 q 450 38 324 38 q 656 137 576 38 q 736 393 736 236 q 656 648 736 549 q 450 747 576 747 q 244 648 324 747 q 164 393 164 549 q 244 137 164 236 m 1101 747 q 940 686 1006 747 q 850 514 874 625 l 1318 514 q 1256 685 1311 624 q 1101 747 1200 747 z "},"Ŕ":{"ha":917,"x_min":82,"x_max":882,"o":"m 594 1289 l 442 1056 l 419 1056 l 489 1289 l 594 1289 m 708 192 q 810 73 753 138 q 882 0 868 8 l 696 0 q 676 68 696 35 q 601 172 657 101 l 385 447 l 260 447 l 260 136 q 276 44 260 75 q 335 0 292 14 l 82 0 q 141 43 125 13 q 157 136 157 74 l 157 829 q 141 922 157 892 q 82 965 125 953 l 417 965 q 586 944 511 965 q 714 865 661 922 q 767 721 767 808 q 689 542 767 611 q 494 454 611 474 l 708 192 m 260 918 l 260 494 l 408 494 q 592 551 526 494 q 657 714 657 607 q 637 813 657 772 q 591 874 617 854 q 523 904 565 893 q 456 917 481 915 q 394 918 432 918 l 260 918 z "},"ŕ":{"ha":606,"x_min":57,"x_max":565,"o":"m 483 1113 l 331 879 l 308 879 l 378 1113 l 483 1113 m 490 793 q 565 783 528 793 l 564 647 q 411 715 493 715 q 229 560 290 715 l 229 149 q 301 0 229 22 l 57 0 q 114 48 99 11 q 129 149 129 85 l 129 619 q 90 781 129 733 l 229 793 l 229 631 q 490 793 317 793 z "},"Ŗ":{"ha":917,"x_min":82,"x_max":882,"o":"m 708 192 q 810 73 753 138 q 882 0 868 8 l 696 0 q 676 68 696 35 q 601 172 657 101 l 385 447 l 260 447 l 260 136 q 276 44 260 75 q 335 0 292 14 l 82 0 q 141 43 125 13 q 157 136 157 74 l 157 829 q 141 922 157 892 q 82 965 125 953 l 417 965 q 586 944 511 965 q 714 865 661 922 q 767 721 767 808 q 689 542 767 611 q 494 454 611 474 l 708 192 m 260 918 l 260 494 l 408 494 q 592 551 526 494 q 657 714 657 607 q 637 813 657 772 q 591 874 617 854 q 523 904 565 893 q 456 917 481 915 q 394 918 432 918 l 260 918 m 460 -108 q 469 -98 460 -108 q 510 -89 478 -89 q 562 -111 542 -89 q 582 -176 582 -133 q 549 -269 582 -233 q 463 -308 515 -304 l 458 -296 q 517 -219 517 -283 l 511 -219 q 461 -201 481 -219 q 442 -154 442 -182 q 460 -108 442 -126 z "},"ŗ":{"ha":606,"x_min":57,"x_max":565,"o":"m 490 793 q 565 783 528 793 l 564 647 q 411 715 493 715 q 229 560 290 715 l 229 149 q 301 0 229 22 l 57 0 q 114 48 99 11 q 129 149 129 85 l 129 619 q 90 781 129 733 l 229 793 l 229 631 q 490 793 317 793 m 128 -108 q 137 -98 128 -108 q 178 -89 146 -89 q 230 -111 210 -89 q 250 -176 250 -133 q 217 -269 250 -233 q 131 -308 183 -304 l 126 -296 q 185 -219 185 -283 l 179 -219 q 129 -201 149 -219 q 110 -154 110 -182 q 128 -108 110 -126 z "},"Ř":{"ha":917,"x_min":82,"x_max":882,"o":"m 429 1067 l 424 1067 l 254 1286 l 268 1300 l 426 1172 l 586 1300 l 600 1286 l 429 1067 m 708 192 q 810 73 753 138 q 882 0 868 8 l 696 0 q 676 68 696 35 q 601 172 657 101 l 385 447 l 260 447 l 260 136 q 276 44 260 75 q 335 0 292 14 l 82 0 q 141 43 125 13 q 157 136 157 74 l 157 829 q 141 922 157 892 q 82 965 125 953 l 417 965 q 586 944 511 965 q 714 865 661 922 q 767 721 767 808 q 689 542 767 611 q 494 454 611 474 l 708 192 m 260 918 l 260 494 l 408 494 q 592 551 526 494 q 657 714 657 607 q 637 813 657 772 q 591 874 617 854 q 523 904 565 893 q 456 917 481 915 q 394 918 432 918 l 260 918 z "},"ř":{"ha":606,"x_min":57,"x_max":565,"o":"m 321 872 l 315 872 l 146 1092 l 160 1106 l 318 978 l 478 1106 l 492 1092 l 321 872 m 490 793 q 565 783 528 793 l 564 647 q 411 715 493 715 q 229 560 290 715 l 229 149 q 301 0 229 22 l 57 0 q 114 48 99 11 q 129 149 129 85 l 129 619 q 90 781 129 733 l 229 793 l 229 631 q 490 793 317 793 z "},"Ś":{"ha":806,"x_min":83,"x_max":729,"o":"m 561 1289 l 408 1056 l 386 1056 l 456 1289 l 561 1289 m 182 763 q 224 659 182 696 q 356 590 267 622 l 496 540 q 556 517 533 526 q 615 485 578 508 q 674 438 653 463 q 713 370 696 413 q 729 276 729 328 q 644 70 729 151 q 403 -11 558 -11 q 83 88 226 -11 l 101 315 q 205 110 122 182 q 407 38 288 38 q 581 94 514 38 q 649 239 649 150 q 633 313 649 281 q 587 367 618 346 q 533 399 556 389 q 471 424 510 410 l 311 482 q 266 500 283 493 q 215 528 249 507 q 162 574 182 550 q 125 638 142 597 q 108 728 108 679 q 183 908 108 839 q 392 976 258 976 q 671 893 547 976 l 685 642 q 389 928 619 928 q 239 883 296 928 q 182 763 182 839 z "},"ś":{"ha":682,"x_min":64,"x_max":626,"o":"m 510 1113 l 357 879 l 335 879 l 404 1113 l 510 1113 m 157 618 q 292 483 157 524 l 435 439 q 497 417 474 426 q 555 384 519 407 q 608 324 590 361 q 626 236 626 286 q 547 59 626 129 q 332 -11 468 -11 q 64 64 167 -11 l 78 292 q 173 97 110 157 q 336 38 236 38 q 486 82 431 38 q 542 199 542 126 q 531 253 542 231 q 497 292 519 276 q 455 315 474 307 q 404 333 436 324 l 256 381 q 85 589 85 435 q 151 741 85 686 q 331 796 217 796 q 583 713 485 796 l 578 535 q 322 749 493 749 q 201 713 246 749 q 157 618 157 676 z "},"Ŝ":{"ha":806,"x_min":83,"x_max":729,"o":"m 558 1067 l 399 1194 l 240 1067 l 226 1081 l 396 1300 l 401 1300 l 572 1081 l 558 1067 m 182 763 q 224 659 182 696 q 356 590 267 622 l 496 540 q 556 517 533 526 q 615 485 578 508 q 674 438 653 463 q 713 370 696 413 q 729 276 729 328 q 644 70 729 151 q 403 -11 558 -11 q 83 88 226 -11 l 101 315 q 205 110 122 182 q 407 38 288 38 q 581 94 514 38 q 649 239 649 150 q 633 313 649 281 q 587 367 618 346 q 533 399 556 389 q 471 424 510 410 l 311 482 q 266 500 283 493 q 215 528 249 507 q 162 574 182 550 q 125 638 142 597 q 108 728 108 679 q 183 908 108 839 q 392 976 258 976 q 671 893 547 976 l 685 642 q 389 928 619 928 q 239 883 296 928 q 182 763 182 839 z "},"ŝ":{"ha":682,"x_min":64,"x_max":626,"o":"m 503 872 l 343 1000 l 185 872 l 171 886 l 340 1106 l 346 1106 l 517 886 l 503 872 m 157 618 q 292 483 157 524 l 435 439 q 497 417 474 426 q 555 384 519 407 q 608 324 590 361 q 626 236 626 286 q 547 59 626 129 q 332 -11 468 -11 q 64 64 167 -11 l 78 292 q 173 97 110 157 q 336 38 236 38 q 486 82 431 38 q 542 199 542 126 q 531 253 542 231 q 497 292 519 276 q 455 315 474 307 q 404 333 436 324 l 256 381 q 85 589 85 435 q 151 741 85 686 q 331 796 217 796 q 583 713 485 796 l 578 535 q 322 749 493 749 q 201 713 246 749 q 157 618 157 676 z "},"Ş":{"ha":806,"x_min":83,"x_max":729,"o":"m 729 276 q 644 72 729 153 q 406 -11 560 -10 l 386 -54 q 471 -76 436 -53 q 506 -144 506 -100 q 476 -215 506 -186 q 394 -244 447 -244 q 306 -217 342 -244 l 310 -136 q 342 -187 319 -167 q 392 -208 365 -208 q 430 -192 415 -208 q 444 -150 444 -176 q 422 -97 444 -119 q 356 -81 399 -75 l 374 -10 q 83 88 214 -3 l 101 315 q 205 110 122 182 q 407 38 288 38 q 581 94 514 38 q 649 239 649 150 q 633 313 649 281 q 587 367 618 346 q 533 399 556 389 q 471 424 510 410 l 311 482 q 266 500 283 493 q 215 528 249 507 q 162 574 182 550 q 125 638 142 597 q 108 728 108 679 q 183 908 108 839 q 392 976 258 976 q 671 893 547 976 l 685 642 q 389 928 619 928 q 239 883 296 928 q 182 763 182 839 q 224 659 182 696 q 356 590 267 622 l 496 540 q 556 517 533 526 q 615 485 578 508 q 674 438 653 463 q 713 370 696 413 q 729 276 729 328 z "},"ş":{"ha":682,"x_min":64,"x_max":626,"o":"m 626 236 q 550 62 626 132 q 343 -11 474 -8 l 324 -54 q 408 -76 374 -53 q 443 -144 443 -100 q 414 -215 443 -186 q 332 -244 385 -244 q 243 -217 279 -244 l 247 -136 q 280 -187 257 -167 q 329 -208 303 -208 q 367 -192 353 -208 q 382 -150 382 -176 q 359 -97 382 -119 q 293 -81 336 -75 l 311 -11 q 64 64 157 -4 l 78 292 q 173 97 110 157 q 336 38 236 38 q 486 82 431 38 q 542 199 542 126 q 531 253 542 231 q 497 292 519 276 q 455 315 474 307 q 404 333 436 324 l 256 381 q 85 589 85 435 q 151 741 85 686 q 331 796 217 796 q 583 713 485 796 l 578 535 q 322 749 493 749 q 201 713 246 749 q 157 618 157 676 q 292 483 157 524 l 435 439 q 497 417 474 426 q 555 384 519 407 q 608 324 590 361 q 626 236 626 286 z "},"Š":{"ha":806,"x_min":83,"x_max":729,"o":"m 553 1300 l 567 1286 l 396 1067 l 390 1067 l 221 1286 l 235 1300 l 393 1172 l 553 1300 m 182 763 q 224 659 182 696 q 356 590 267 622 l 496 540 q 556 517 533 526 q 615 485 578 508 q 674 438 653 463 q 713 370 696 413 q 729 276 729 328 q 644 70 729 151 q 403 -11 558 -11 q 83 88 226 -11 l 101 315 q 205 110 122 182 q 407 38 288 38 q 581 94 514 38 q 649 239 649 150 q 633 313 649 281 q 587 367 618 346 q 533 399 556 389 q 471 424 510 410 l 311 482 q 266 500 283 493 q 215 528 249 507 q 162 574 182 550 q 125 638 142 597 q 108 728 108 679 q 183 908 108 839 q 392 976 258 976 q 671 893 547 976 l 685 642 q 389 928 619 928 q 239 883 296 928 q 182 763 182 839 z "},"š":{"ha":682,"x_min":64,"x_max":626,"o":"m 504 1106 l 518 1092 l 347 872 l 342 872 l 172 1092 l 186 1106 l 344 978 l 504 1106 m 157 618 q 292 483 157 524 l 435 439 q 497 417 474 426 q 555 384 519 407 q 608 324 590 361 q 626 236 626 286 q 547 59 626 129 q 332 -11 468 -11 q 64 64 167 -11 l 78 292 q 173 97 110 157 q 336 38 236 38 q 486 82 431 38 q 542 199 542 126 q 531 253 542 231 q 497 292 519 276 q 455 315 474 307 q 404 333 436 324 l 256 381 q 85 589 85 435 q 151 741 85 686 q 331 796 217 796 q 583 713 485 796 l 578 535 q 322 749 493 749 q 201 713 246 749 q 157 618 157 676 z "},"Ţ":{"ha":935,"x_min":61,"x_max":872,"o":"m 850 965 l 872 656 q 793 860 846 806 q 611 914 740 914 l 519 914 l 519 136 q 535 43 519 74 q 593 0 550 13 l 485 0 l 460 -54 q 544 -76 510 -53 q 579 -144 579 -100 q 550 -215 579 -186 q 468 -244 521 -244 q 379 -217 415 -244 l 383 -136 q 416 -187 393 -167 q 465 -208 439 -208 q 503 -192 489 -208 q 518 -150 518 -176 q 495 -97 518 -119 q 429 -81 472 -75 l 450 0 l 342 0 q 401 43 385 13 q 417 136 417 74 l 417 914 l 325 914 q 144 860 196 914 q 61 656 93 807 l 86 965 l 850 965 z "},"ţ":{"ha":479,"x_min":17,"x_max":453,"o":"m 453 743 l 233 743 l 233 158 q 318 36 233 36 q 424 96 376 36 l 450 72 q 299 -10 385 -6 l 278 -54 q 363 -76 328 -53 q 397 -144 397 -100 q 368 -215 397 -186 q 286 -244 339 -244 q 197 -217 233 -244 l 201 -136 q 234 -187 211 -167 q 283 -208 257 -208 q 322 -192 307 -208 q 336 -150 336 -176 q 313 -97 336 -119 q 247 -81 290 -75 l 265 -8 q 200 10 226 -6 q 160 42 174 25 q 141 88 147 58 q 134 133 135 118 q 133 175 133 147 l 133 743 l 17 743 l 17 785 l 131 785 l 233 1011 l 233 785 l 453 785 l 453 743 z "},"Ť":{"ha":935,"x_min":61,"x_max":872,"o":"m 624 1300 l 638 1286 l 467 1067 l 461 1067 l 292 1286 l 306 1300 l 464 1172 l 624 1300 m 850 965 l 872 656 q 793 860 846 806 q 611 914 740 914 l 519 914 l 519 136 q 535 43 519 74 q 593 0 550 13 l 342 0 q 401 43 385 13 q 417 136 417 74 l 417 914 l 325 914 q 144 860 196 914 q 61 656 93 807 l 86 965 l 850 965 z "},"ť":{"ha":479,"x_min":17,"x_max":453,"o":"m 440 1054 l 367 826 l 335 826 l 361 1054 l 440 1054 m 453 743 l 233 743 l 233 158 q 318 36 233 36 q 424 96 376 36 l 450 72 q 413 33 429 47 q 363 4 397 18 q 288 -10 329 -10 q 212 5 243 -10 q 165 36 181 19 q 142 84 150 53 q 134 131 135 115 q 133 175 133 146 l 133 743 l 17 743 l 17 785 l 131 785 l 233 1011 l 233 785 l 453 785 l 453 743 z "},"Ŧ":{"ha":935,"x_min":61,"x_max":872,"o":"m 611 914 l 519 914 l 519 519 l 760 519 l 760 475 l 519 475 l 519 136 q 535 44 519 75 q 593 0 550 13 l 342 0 q 401 43 385 13 q 417 136 417 74 l 417 475 l 174 475 l 174 519 l 417 519 l 417 914 l 325 914 q 144 860 196 914 q 61 656 93 807 l 86 965 l 850 965 l 872 656 q 793 860 846 806 q 611 914 740 914 z "},"ŧ":{"ha":479,"x_min":17,"x_max":453,"o":"m 453 743 l 233 743 l 233 568 l 446 568 l 446 526 l 233 526 l 233 158 q 318 36 233 36 q 424 96 376 36 l 450 72 q 413 33 429 47 q 363 4 397 18 q 288 -10 329 -10 q 212 5 243 -10 q 165 36 181 19 q 142 84 150 53 q 134 131 135 115 q 133 175 133 146 l 133 526 l 38 526 l 38 568 l 133 568 l 133 743 l 17 743 l 17 785 l 131 785 l 233 1011 l 233 785 l 453 785 l 453 743 z "},"Ũ":{"ha":965,"x_min":64,"x_max":904,"o":"m 685 1233 q 655 1135 688 1171 q 561 1100 622 1100 q 501 1111 525 1100 q 465 1138 476 1122 q 445 1170 454 1154 q 422 1197 436 1186 q 386 1208 408 1208 q 326 1110 322 1208 l 307 1110 q 338 1208 304 1172 q 431 1243 371 1243 q 501 1226 475 1243 q 536 1188 528 1208 q 560 1151 544 1168 q 603 1133 576 1133 q 651 1160 635 1133 q 665 1233 667 1186 l 685 1233 m 904 965 q 846 919 863 950 q 829 829 829 888 l 829 371 q 746 84 829 179 q 488 -11 663 -11 q 139 349 139 -11 l 139 829 q 123 922 139 892 q 64 965 107 953 l 317 965 q 258 921 274 951 q 242 829 242 890 l 242 379 q 508 38 242 38 q 778 375 778 38 l 778 829 q 762 922 778 892 q 703 965 746 953 l 904 965 z "},"ũ":{"ha":836,"x_min":61,"x_max":764,"o":"m 231 893 l 211 893 q 242 991 208 956 q 335 1026 275 1026 q 406 1009 379 1026 q 440 972 432 992 q 465 934 449 951 q 507 917 481 917 q 555 943 539 917 q 569 1017 571 969 l 589 1017 q 559 919 592 954 q 465 883 526 883 q 405 894 429 883 q 369 922 381 906 q 349 953 358 938 q 326 981 340 969 q 290 992 313 992 q 231 893 226 992 m 764 0 l 631 -4 l 631 161 q 354 -11 550 -11 q 171 47 242 -11 q 100 229 100 104 l 100 619 q 61 781 100 733 l 200 793 l 200 256 q 374 38 200 38 q 513 81 454 38 q 596 180 571 124 q 625 297 621 236 l 625 619 q 586 781 625 733 l 725 793 l 725 151 q 764 0 725 39 z "},"Ū":{"ha":965,"x_min":64,"x_max":904,"o":"m 696 1150 l 696 1110 l 310 1110 l 310 1150 l 696 1150 m 904 965 q 846 919 863 950 q 829 829 829 888 l 829 371 q 746 84 829 179 q 488 -11 663 -11 q 139 349 139 -11 l 139 829 q 123 922 139 892 q 64 965 107 953 l 317 965 q 258 921 274 951 q 242 829 242 890 l 242 379 q 508 38 242 38 q 778 375 778 38 l 778 829 q 762 922 778 892 q 703 965 746 953 l 904 965 z "},"ū":{"ha":836,"x_min":61,"x_max":764,"o":"m 592 950 l 592 910 l 208 910 l 208 950 l 592 950 m 764 0 l 631 -4 l 631 161 q 354 -11 550 -11 q 171 47 242 -11 q 100 229 100 104 l 100 619 q 61 781 100 733 l 200 793 l 200 256 q 374 38 200 38 q 513 81 454 38 q 596 180 571 124 q 625 297 621 236 l 625 619 q 586 781 625 733 l 725 793 l 725 151 q 764 0 725 39 z "},"Ŭ":{"ha":965,"x_min":64,"x_max":904,"o":"m 646 1243 q 605 1106 642 1158 q 504 1053 568 1053 q 403 1106 439 1053 q 363 1243 367 1158 l 385 1243 q 420 1151 388 1182 q 506 1119 453 1119 q 624 1243 618 1119 l 646 1243 m 904 965 q 846 919 863 950 q 829 829 829 888 l 829 371 q 746 84 829 179 q 488 -11 663 -11 q 139 349 139 -11 l 139 829 q 123 922 139 892 q 64 965 107 953 l 317 965 q 258 921 274 951 q 242 829 242 890 l 242 379 q 508 38 242 38 q 778 375 778 38 l 778 829 q 762 922 778 892 q 703 965 746 953 l 904 965 z "},"ŭ":{"ha":836,"x_min":61,"x_max":764,"o":"m 400 910 q 299 963 335 910 q 258 1100 263 1015 l 281 1100 q 316 1008 283 1039 q 401 976 349 976 q 519 1100 514 976 l 542 1100 q 501 963 538 1015 q 400 910 464 910 m 764 0 l 631 -4 l 631 161 q 354 -11 550 -11 q 171 47 242 -11 q 100 229 100 104 l 100 619 q 61 781 100 733 l 200 793 l 200 256 q 374 38 200 38 q 513 81 454 38 q 596 180 571 124 q 625 297 621 236 l 625 619 q 586 781 625 733 l 725 793 l 725 151 q 764 0 725 39 z "},"Ů":{"ha":965,"x_min":64,"x_max":904,"o":"m 503 1058 q 403 1096 442 1058 q 364 1192 364 1133 q 403 1288 364 1250 q 503 1325 442 1325 q 601 1288 563 1325 q 640 1192 640 1250 q 601 1096 640 1133 q 503 1058 563 1058 m 503 1086 q 576 1115 547 1086 q 606 1192 606 1144 q 576 1268 606 1239 q 503 1297 547 1297 q 428 1268 457 1297 q 399 1192 399 1239 q 428 1115 399 1144 q 503 1086 457 1086 m 904 965 q 846 919 863 950 q 829 829 829 888 l 829 371 q 746 84 829 179 q 488 -11 663 -11 q 139 349 139 -11 l 139 829 q 123 922 139 892 q 64 965 107 953 l 317 965 q 258 921 274 951 q 242 829 242 890 l 242 379 q 508 38 242 38 q 778 375 778 38 l 778 829 q 762 922 778 892 q 703 965 746 953 l 904 965 z "},"ů":{"ha":836,"x_min":61,"x_max":764,"o":"m 400 878 q 300 915 339 878 q 261 1011 261 953 q 300 1107 261 1069 q 400 1144 339 1144 q 499 1107 460 1144 q 538 1011 538 1069 q 499 915 538 953 q 400 878 460 878 m 400 1117 q 325 1088 354 1117 q 296 1011 296 1058 q 325 935 296 964 q 400 906 354 906 q 474 935 444 906 q 503 1011 503 964 q 474 1088 503 1058 q 400 1117 444 1117 m 764 0 l 631 -4 l 631 161 q 354 -11 550 -11 q 171 47 242 -11 q 100 229 100 104 l 100 619 q 61 781 100 733 l 200 793 l 200 256 q 374 38 200 38 q 513 81 454 38 q 596 180 571 124 q 625 297 621 236 l 625 619 q 586 781 625 733 l 725 793 l 725 151 q 764 0 725 39 z "},"Ű":{"ha":965,"x_min":64,"x_max":904,"o":"m 650 1272 l 483 1046 l 469 1046 l 551 1272 l 650 1272 m 860 1272 l 546 1046 l 525 1046 l 746 1272 l 860 1272 m 904 965 q 846 919 863 950 q 829 829 829 888 l 829 371 q 746 84 829 179 q 488 -11 663 -11 q 139 349 139 -11 l 139 829 q 123 922 139 892 q 64 965 107 953 l 317 965 q 258 921 274 951 q 242 829 242 890 l 242 379 q 508 38 242 38 q 778 375 778 38 l 778 829 q 762 922 778 892 q 703 965 746 953 l 904 965 z "},"ű":{"ha":836,"x_min":61,"x_max":764,"o":"m 547 1092 l 381 865 l 367 865 l 449 1092 l 547 1092 m 443 865 l 422 865 l 643 1092 l 757 1092 l 443 865 m 764 0 l 631 -4 l 631 161 q 354 -11 550 -11 q 171 47 242 -11 q 100 229 100 104 l 100 619 q 61 781 100 733 l 200 793 l 200 256 q 374 38 200 38 q 513 81 454 38 q 596 180 571 124 q 625 297 621 236 l 625 619 q 586 781 625 733 l 725 793 l 725 151 q 764 0 725 39 z "},"Ų":{"ha":965,"x_min":64,"x_max":904,"o":"m 703 965 l 904 965 q 846 919 863 950 q 829 829 829 888 l 829 371 q 563 -6 829 31 q 456 -144 456 -72 q 514 -201 456 -201 q 570 -180 543 -201 q 611 -121 597 -158 l 604 -224 q 503 -251 565 -251 q 426 -226 458 -251 q 394 -154 394 -200 q 513 -11 394 -75 l 488 -11 q 139 349 139 -11 l 139 829 q 123 922 139 892 q 64 965 107 953 l 317 965 q 258 921 274 951 q 242 829 242 890 l 242 379 q 508 38 242 38 q 778 375 778 38 l 778 829 q 762 922 778 892 q 703 965 746 953 z "},"ų":{"ha":836,"x_min":61,"x_max":804,"o":"m 707 -201 q 763 -180 736 -201 q 804 -121 790 -158 l 797 -224 q 696 -251 758 -251 q 619 -226 651 -251 q 588 -154 588 -200 q 624 -70 588 -106 q 722 -1 660 -35 l 631 -4 l 631 161 q 354 -11 550 -11 q 171 47 242 -11 q 100 229 100 104 l 100 619 q 61 781 100 733 l 200 793 l 200 256 q 374 38 200 38 q 513 81 454 38 q 596 180 571 124 q 625 297 621 236 l 625 619 q 586 781 625 733 l 725 793 l 725 151 q 764 0 725 39 l 767 0 q 649 -144 649 -67 q 707 -201 649 -201 z "},"Ŵ":{"ha":1306,"x_min":39,"x_max":1267,"o":"m 668 1194 l 510 1067 l 496 1081 l 665 1300 l 671 1300 l 842 1081 l 828 1067 l 668 1194 m 1118 965 l 1267 965 q 1167 753 1224 950 l 950 0 l 922 0 l 647 779 l 408 0 l 381 0 l 126 815 q 39 965 83 951 l 239 965 q 228 819 189 946 l 417 196 l 651 965 l 679 965 l 954 192 l 1115 757 q 1145 910 1144 863 q 1118 965 1146 957 z "},"ŵ":{"ha":1114,"x_min":8,"x_max":1097,"o":"m 719 872 l 560 1000 l 401 872 l 388 886 l 557 1106 l 563 1106 l 733 886 l 719 872 m 946 785 l 1097 785 q 1006 617 1049 753 l 810 0 l 788 0 l 546 610 l 347 0 l 325 0 l 106 613 q 8 785 50 769 l 190 785 q 196 649 156 758 l 363 185 l 557 786 l 581 786 l 822 178 l 943 564 q 969 663 961 621 q 977 726 976 706 q 970 760 978 746 q 959 777 963 775 q 946 785 956 779 z "},"Ŷ":{"ha":953,"x_min":35,"x_max":918,"o":"m 506 1194 l 347 1067 l 333 1081 l 503 1300 l 508 1300 l 679 1081 l 665 1067 l 506 1194 m 760 965 l 918 965 q 796 832 876 953 l 526 418 l 526 136 q 542 44 526 75 q 601 0 558 14 l 349 0 q 408 43 392 13 q 424 136 424 74 l 424 406 l 168 806 q 35 965 81 943 l 235 965 q 254 847 197 935 l 500 460 l 711 786 q 744 842 731 817 q 765 884 758 867 q 774 913 771 901 q 774 935 776 925 q 771 949 772 944 q 765 958 769 953 q 760 965 760 964 z "},"ŷ":{"ha":760,"x_min":14,"x_max":747,"o":"m 411 1000 l 253 872 l 239 886 l 408 1106 l 414 1106 l 585 886 l 571 872 l 411 1000 m 596 785 l 747 785 q 647 626 699 753 l 383 -24 q 161 -242 303 -221 l 104 -100 q 253 -110 183 -143 q 358 15 322 -76 l 74 700 q 14 785 46 768 l 188 785 q 185 688 156 758 l 407 142 l 600 624 q 613 660 608 643 q 622 690 618 676 q 625 714 625 703 q 625 733 625 725 q 623 749 625 742 q 619 761 621 757 q 613 770 617 765 q 607 776 608 775 q 600 781 606 778 l 596 785 z "},"Ÿ":{"ha":953,"x_min":35,"x_max":918,"o":"m 455 1098 q 444 1087 455 1098 q 399 1076 433 1076 q 342 1098 364 1076 q 319 1153 319 1119 q 342 1208 319 1186 q 399 1229 364 1229 q 455 1208 433 1229 q 476 1153 476 1186 q 455 1098 476 1119 m 606 1076 q 549 1098 571 1076 q 526 1153 526 1119 q 549 1208 526 1186 q 606 1229 571 1229 q 661 1208 639 1229 q 683 1153 683 1186 q 661 1098 683 1119 q 606 1076 639 1076 m 760 965 l 918 965 q 796 832 876 953 l 526 418 l 526 136 q 542 44 526 75 q 601 0 558 14 l 349 0 q 408 43 392 13 q 424 136 424 74 l 424 406 l 168 806 q 35 965 81 943 l 235 965 q 254 847 197 935 l 500 460 l 711 786 q 744 842 731 817 q 765 884 758 867 q 774 913 771 901 q 774 935 776 925 q 771 949 772 944 q 765 958 769 953 q 760 965 760 964 z "},"Ź":{"ha":822,"x_min":54,"x_max":750,"o":"m 601 1289 l 449 1056 l 426 1056 l 496 1289 l 601 1289 m 457 46 q 552 51 517 46 q 623 72 588 56 q 678 120 658 88 q 715 206 699 153 q 743 340 732 260 l 728 0 l 54 0 l 608 918 l 417 918 q 308 914 347 918 q 228 897 268 910 q 167 855 189 883 q 126 781 144 826 q 92 663 107 735 l 118 965 l 750 965 l 196 46 l 457 46 z "},"ź":{"ha":710,"x_min":33,"x_max":661,"o":"m 531 1113 l 378 879 l 356 879 l 425 1113 l 531 1113 m 351 42 q 562 90 500 42 q 661 297 624 138 l 635 0 l 33 0 l 510 743 l 346 743 q 261 740 293 743 q 192 727 229 738 q 132 695 154 717 q 91 635 110 674 q 63 540 72 597 l 78 785 l 646 785 l 169 42 l 351 42 z "},"Ż":{"ha":822,"x_min":54,"x_max":750,"o":"m 491 1098 q 480 1087 491 1098 q 435 1076 469 1076 q 378 1098 400 1076 q 356 1153 356 1119 q 378 1208 356 1186 q 435 1229 400 1229 q 491 1208 469 1229 q 513 1153 513 1186 q 491 1098 513 1119 m 457 46 q 552 51 517 46 q 623 72 588 56 q 678 120 658 88 q 715 206 699 153 q 743 340 732 260 l 728 0 l 54 0 l 608 918 l 417 918 q 308 914 347 918 q 228 897 268 910 q 167 855 189 883 q 126 781 144 826 q 92 663 107 735 l 118 965 l 750 965 l 196 46 l 457 46 z "},"ż":{"ha":710,"x_min":33,"x_max":661,"o":"m 420 903 q 409 893 420 903 q 364 882 399 882 q 307 903 329 882 q 285 958 285 925 q 307 1013 285 992 q 364 1035 329 1035 q 420 1013 399 1035 q 442 958 442 992 q 420 903 442 925 m 351 42 q 562 90 500 42 q 661 297 624 138 l 635 0 l 33 0 l 510 743 l 346 743 q 261 740 293 743 q 192 727 229 738 q 132 695 154 717 q 91 635 110 674 q 63 540 72 597 l 78 785 l 646 785 l 169 42 l 351 42 z "},"Ž":{"ha":822,"x_min":54,"x_max":750,"o":"m 436 1067 l 431 1067 l 261 1286 l 275 1300 l 433 1172 l 593 1300 l 607 1286 l 436 1067 m 457 46 q 552 51 517 46 q 623 72 588 56 q 678 120 658 88 q 715 206 699 153 q 743 340 732 260 l 728 0 l 54 0 l 608 918 l 417 918 q 308 914 347 918 q 228 897 268 910 q 167 855 189 883 q 126 781 144 826 q 92 663 107 735 l 118 965 l 750 965 l 196 46 l 457 46 z "},"ž":{"ha":710,"x_min":33,"x_max":661,"o":"m 368 872 l 363 872 l 193 1092 l 207 1106 l 365 978 l 525 1106 l 539 1092 l 368 872 m 351 42 q 562 90 500 42 q 661 297 624 138 l 635 0 l 33 0 l 510 743 l 346 743 q 261 740 293 743 q 192 727 229 738 q 132 695 154 717 q 91 635 110 674 q 63 540 72 597 l 78 785 l 646 785 l 169 42 l 351 42 z "},"Ə":{"ha":1004,"x_min":75,"x_max":929,"o":"m 472 974 q 801 836 672 974 q 929 482 929 699 q 807 130 929 271 q 489 -11 685 -11 q 188 119 300 -11 q 75 499 75 249 l 811 499 q 716 808 808 690 q 474 925 624 925 q 267 856 363 925 q 117 650 172 786 l 136 858 q 291 944 200 914 q 472 974 382 974 m 489 38 q 711 152 622 38 q 810 447 800 267 l 200 447 q 287 144 210 250 q 489 38 364 38 z "},"Ɲ":{"ha":1057,"x_min":-8,"x_max":975,"o":"m 801 965 l 975 965 q 915 926 931 951 q 900 843 900 901 l 900 0 l 890 0 l 156 854 l 156 100 q 17 -242 156 -212 l -8 -115 q 34 -130 15 -128 q 72 -122 53 -132 q 103 -84 90 -111 q 124 -6 117 -57 q 132 119 132 46 l 132 843 q 117 928 132 904 q 57 965 101 953 l 190 965 l 876 164 l 876 843 q 861 928 876 904 q 801 965 846 953 z "},"Ǎ":{"ha":1046,"x_min":35,"x_max":1010,"o":"m 522 1067 l 517 1067 l 347 1286 l 361 1300 l 519 1172 l 679 1300 l 693 1286 l 522 1067 m 799 0 q 806 139 860 24 l 711 343 l 279 343 l 190 142 q 185 0 138 21 l 35 0 q 84 47 57 7 q 165 208 111 86 l 500 965 l 528 965 l 928 107 q 1010 0 972 11 l 799 0 m 299 388 l 692 388 l 490 824 l 299 388 z "},"ǎ":{"ha":756,"x_min":56,"x_max":696,"o":"m 378 872 l 372 872 l 203 1092 l 217 1106 l 375 978 l 535 1106 l 549 1092 l 378 872 m 696 0 l 557 -4 l 557 158 q 290 -10 478 -10 q 118 41 181 -10 q 56 179 56 92 q 76 266 56 226 q 128 332 97 306 q 206 381 158 358 q 291 415 253 403 q 382 442 329 428 l 551 485 l 551 539 q 383 746 551 746 q 222 686 296 746 q 110 490 147 626 l 104 708 q 386 794 226 794 q 580 735 508 794 q 651 557 651 675 l 651 149 q 696 0 651 33 m 315 39 q 476 103 404 39 q 551 282 547 167 l 551 438 l 389 393 q 315 370 343 381 q 248 338 288 360 q 188 278 208 315 q 168 190 168 240 q 207 81 168 122 q 315 39 246 39 z "},"Ǐ":{"ha":413,"x_min":33,"x_max":379,"o":"m 365 1300 l 379 1286 l 208 1067 l 203 1067 l 33 1286 l 47 1300 l 206 1172 l 365 1300 m 260 178 q 275 50 260 86 q 333 0 290 14 l 82 0 q 142 49 126 13 q 157 178 157 86 l 157 788 q 142 916 157 879 q 82 965 126 953 l 333 965 q 275 915 290 951 q 260 788 260 879 l 260 178 z "},"ǐ":{"ha":353,"x_min":3,"x_max":349,"o":"m 178 872 l 172 872 l 3 1092 l 17 1106 l 175 978 l 335 1106 l 349 1092 l 178 872 m 229 149 q 301 0 229 22 l 57 0 q 114 48 99 11 q 129 149 129 85 l 129 619 q 90 781 129 733 l 229 793 l 229 149 z "},"Ǒ":{"ha":1081,"x_min":75,"x_max":1006,"o":"m 543 1067 l 538 1067 l 368 1286 l 382 1300 l 540 1172 l 700 1300 l 714 1286 l 543 1067 m 203 837 q 268 907 203 837 q 540 978 332 978 q 877 837 749 978 q 1006 483 1006 696 q 877 130 1006 271 q 540 -11 749 -11 q 203 130 332 -11 q 75 483 75 271 q 203 837 75 696 m 288 154 q 336 97 288 154 q 540 40 383 40 q 792 154 697 40 q 888 483 888 268 q 792 813 888 699 q 540 926 697 926 q 288 813 383 926 q 193 483 193 699 q 288 154 193 268 z "},"ǒ":{"ha":900,"x_min":51,"x_max":849,"o":"m 453 872 l 447 872 l 278 1092 l 292 1106 l 450 978 l 610 1106 l 624 1092 l 453 872 m 849 393 l 849 392 q 734 103 849 218 q 450 -11 619 -11 q 166 103 281 -11 q 51 392 51 218 l 51 393 q 166 681 51 567 q 450 796 281 796 q 734 681 619 796 q 849 393 849 567 m 244 137 q 284 87 244 137 q 450 38 324 38 q 656 137 576 38 q 736 393 736 236 q 656 648 736 549 q 450 747 576 747 q 244 648 324 747 q 164 393 164 549 q 244 137 164 236 z "},"Ǔ":{"ha":965,"x_min":64,"x_max":904,"o":"m 661 1300 l 675 1286 l 504 1067 l 499 1067 l 329 1286 l 343 1300 l 501 1172 l 661 1300 m 904 965 q 846 919 863 950 q 829 829 829 888 l 829 371 q 746 84 829 179 q 488 -11 663 -11 q 139 349 139 -11 l 139 829 q 123 922 139 892 q 64 965 107 953 l 317 965 q 258 921 274 951 q 242 829 242 890 l 242 379 q 508 38 242 38 q 778 375 778 38 l 778 829 q 762 922 778 892 q 703 965 746 953 l 904 965 z "},"ǔ":{"ha":836,"x_min":61,"x_max":764,"o":"m 403 872 l 397 872 l 228 1092 l 242 1106 l 400 978 l 560 1106 l 574 1092 l 403 872 m 764 0 l 631 -4 l 631 161 q 354 -11 550 -11 q 171 47 242 -11 q 100 229 100 104 l 100 619 q 61 781 100 733 l 200 793 l 200 256 q 374 38 200 38 q 513 81 454 38 q 596 180 571 124 q 625 297 621 236 l 625 619 q 586 781 625 733 l 725 793 l 725 151 q 764 0 725 39 z "},"Ǖ":{"ha":965,"x_min":64,"x_max":904,"o":"m 696 1356 l 696 1315 l 310 1315 l 310 1356 l 696 1356 m 456 1098 q 445 1087 456 1098 q 400 1076 435 1076 q 343 1098 365 1076 q 321 1153 321 1119 q 343 1208 321 1186 q 400 1229 365 1229 q 456 1208 435 1229 q 478 1153 478 1186 q 456 1098 478 1119 m 607 1076 q 550 1098 572 1076 q 528 1153 528 1119 q 550 1208 528 1186 q 607 1229 572 1229 q 663 1208 640 1229 q 685 1153 685 1186 q 663 1098 685 1119 q 607 1076 640 1076 m 904 965 q 846 919 863 950 q 829 829 829 888 l 829 371 q 746 84 829 179 q 488 -11 663 -11 q 139 349 139 -11 l 139 829 q 123 922 139 892 q 64 965 107 953 l 317 965 q 258 921 274 951 q 242 829 242 890 l 242 379 q 508 38 242 38 q 778 375 778 38 l 778 829 q 762 922 778 892 q 703 965 746 953 l 904 965 z "},"ǖ":{"ha":836,"x_min":61,"x_max":764,"o":"m 592 1164 l 592 1124 l 208 1124 l 208 1164 l 592 1164 m 240 903 q 229 914 240 903 q 218 958 218 925 q 240 1013 218 992 q 297 1035 263 1035 q 353 1013 332 1035 q 375 958 375 992 q 353 903 375 925 q 297 882 332 882 q 240 903 263 882 m 447 903 q 436 914 447 903 q 425 958 425 925 q 447 1013 425 992 q 504 1035 469 1035 q 560 1013 538 1035 q 582 958 582 992 q 560 903 582 925 q 504 882 538 882 q 447 903 469 882 m 764 0 l 631 -4 l 631 161 q 354 -11 550 -11 q 171 47 242 -11 q 100 229 100 104 l 100 619 q 61 781 100 733 l 200 793 l 200 256 q 374 38 200 38 q 513 81 454 38 q 596 180 571 124 q 625 297 621 236 l 625 619 q 586 781 625 733 l 725 793 l 725 151 q 764 0 725 39 z "},"Ǘ":{"ha":965,"x_min":64,"x_max":904,"o":"m 669 1494 l 517 1261 l 494 1261 l 564 1494 l 669 1494 m 456 1098 q 445 1087 456 1098 q 400 1076 435 1076 q 343 1098 365 1076 q 321 1153 321 1119 q 343 1208 321 1186 q 400 1229 365 1229 q 456 1208 435 1229 q 478 1153 478 1186 q 456 1098 478 1119 m 607 1076 q 550 1098 572 1076 q 528 1153 528 1119 q 550 1208 528 1186 q 607 1229 572 1229 q 663 1208 640 1229 q 685 1153 685 1186 q 663 1098 685 1119 q 607 1076 640 1076 m 904 965 q 846 919 863 950 q 829 829 829 888 l 829 371 q 746 84 829 179 q 488 -11 663 -11 q 139 349 139 -11 l 139 829 q 123 922 139 892 q 64 965 107 953 l 317 965 q 258 921 274 951 q 242 829 242 890 l 242 379 q 508 38 242 38 q 778 375 778 38 l 778 829 q 762 922 778 892 q 703 965 746 953 l 904 965 z "},"ǘ":{"ha":836,"x_min":61,"x_max":764,"o":"m 565 1326 l 413 1093 l 390 1093 l 460 1326 l 565 1326 m 353 903 q 343 893 353 903 q 297 882 332 882 q 240 903 263 882 q 218 958 218 925 q 240 1013 218 992 q 297 1035 263 1035 q 353 1013 332 1035 q 375 958 375 992 q 353 903 375 925 m 504 1035 q 560 1013 538 1035 q 582 958 582 992 q 560 903 582 925 q 504 882 538 882 q 447 903 469 882 q 425 958 425 925 q 447 1013 425 992 q 504 1035 469 1035 m 764 0 l 631 -4 l 631 161 q 354 -11 550 -11 q 171 47 242 -11 q 100 229 100 104 l 100 619 q 61 781 100 733 l 200 793 l 200 256 q 374 38 200 38 q 513 81 454 38 q 596 180 571 124 q 625 297 621 236 l 625 619 q 586 781 625 733 l 725 793 l 725 151 q 764 0 725 39 z "},"Ǚ":{"ha":965,"x_min":64,"x_max":904,"o":"m 661 1506 l 675 1492 l 504 1272 l 499 1272 l 329 1492 l 343 1506 l 501 1378 l 661 1506 m 456 1098 q 445 1087 456 1098 q 400 1076 435 1076 q 343 1098 365 1076 q 321 1153 321 1119 q 343 1208 321 1186 q 400 1229 365 1229 q 456 1208 435 1229 q 478 1153 478 1186 q 456 1098 478 1119 m 607 1076 q 550 1098 572 1076 q 528 1153 528 1119 q 550 1208 528 1186 q 607 1229 572 1229 q 663 1208 640 1229 q 685 1153 685 1186 q 663 1098 685 1119 q 607 1076 640 1076 m 904 965 q 846 919 863 950 q 829 829 829 888 l 829 371 q 746 84 829 179 q 488 -11 663 -11 q 139 349 139 -11 l 139 829 q 123 922 139 892 q 64 965 107 953 l 317 965 q 258 921 274 951 q 242 829 242 890 l 242 379 q 508 38 242 38 q 778 375 778 38 l 778 829 q 762 922 778 892 q 703 965 746 953 l 904 965 z "},"ǚ":{"ha":836,"x_min":61,"x_max":764,"o":"m 403 1086 l 397 1086 l 228 1306 l 242 1319 l 400 1192 l 560 1319 l 574 1306 l 403 1086 m 353 903 q 343 893 353 903 q 297 882 332 882 q 240 903 263 882 q 218 958 218 925 q 240 1013 218 992 q 297 1035 263 1035 q 353 1013 332 1035 q 375 958 375 992 q 353 903 375 925 m 504 1035 q 560 1013 538 1035 q 582 958 582 992 q 560 903 582 925 q 504 882 538 882 q 447 903 469 882 q 425 958 425 925 q 447 1013 425 992 q 504 1035 469 1035 m 764 0 l 631 -4 l 631 161 q 354 -11 550 -11 q 171 47 242 -11 q 100 229 100 104 l 100 619 q 61 781 100 733 l 200 793 l 200 256 q 374 38 200 38 q 513 81 454 38 q 596 180 571 124 q 625 297 621 236 l 625 619 q 586 781 625 733 l 725 793 l 725 151 q 764 0 725 39 z "},"Ǜ":{"ha":965,"x_min":64,"x_max":904,"o":"m 336 1494 l 442 1494 l 511 1261 l 489 1261 l 336 1494 m 456 1098 q 445 1087 456 1098 q 400 1076 435 1076 q 343 1098 365 1076 q 321 1153 321 1119 q 343 1208 321 1186 q 400 1229 365 1229 q 456 1208 435 1229 q 478 1153 478 1186 q 456 1098 478 1119 m 607 1076 q 550 1098 572 1076 q 528 1153 528 1119 q 550 1208 528 1186 q 607 1229 572 1229 q 663 1208 640 1229 q 685 1153 685 1186 q 663 1098 685 1119 q 607 1076 640 1076 m 904 965 q 846 919 863 950 q 829 829 829 888 l 829 371 q 746 84 829 179 q 488 -11 663 -11 q 139 349 139 -11 l 139 829 q 123 922 139 892 q 64 965 107 953 l 317 965 q 258 921 274 951 q 242 829 242 890 l 242 379 q 508 38 242 38 q 778 375 778 38 l 778 829 q 762 922 778 892 q 703 965 746 953 l 904 965 z "},"ǜ":{"ha":836,"x_min":61,"x_max":764,"o":"m 410 1093 l 388 1093 l 235 1326 l 340 1326 l 410 1093 m 353 903 q 343 893 353 903 q 297 882 332 882 q 240 903 263 882 q 218 958 218 925 q 240 1013 218 992 q 297 1035 263 1035 q 353 1013 332 1035 q 375 958 375 992 q 353 903 375 925 m 504 882 q 447 903 469 882 q 425 958 425 925 q 447 1013 425 992 q 504 1035 469 1035 q 560 1013 538 1035 q 582 958 582 992 q 560 903 582 925 q 504 882 538 882 m 764 0 l 631 -4 l 631 161 q 354 -11 550 -11 q 171 47 242 -11 q 100 229 100 104 l 100 619 q 61 781 100 733 l 200 793 l 200 256 q 374 38 200 38 q 513 81 454 38 q 596 180 571 124 q 625 297 621 236 l 625 619 q 586 781 625 733 l 725 793 l 725 151 q 764 0 725 39 z "},"Ǟ":{"ha":1046,"x_min":35,"x_max":1010,"o":"m 714 1356 l 714 1315 l 328 1315 l 328 1356 l 714 1356 m 361 1098 q 350 1109 361 1098 q 339 1153 339 1119 q 361 1208 339 1186 q 418 1229 383 1229 q 474 1208 453 1229 q 496 1153 496 1186 q 474 1098 496 1119 q 418 1076 453 1076 q 361 1098 383 1076 m 568 1098 q 557 1109 568 1098 q 546 1153 546 1119 q 568 1208 546 1186 q 625 1229 590 1229 q 681 1208 658 1229 q 703 1153 703 1186 q 681 1098 703 1119 q 625 1076 658 1076 q 568 1098 590 1076 m 799 0 q 806 139 860 24 l 711 343 l 279 343 l 190 142 q 185 0 138 21 l 35 0 q 84 47 57 7 q 165 208 111 86 l 500 965 l 528 965 l 928 107 q 1010 0 972 11 l 799 0 m 299 388 l 692 388 l 490 824 l 299 388 z "},"ǟ":{"ha":756,"x_min":56,"x_max":696,"o":"m 567 1164 l 567 1124 l 183 1124 l 183 1164 l 567 1164 m 215 903 q 204 914 215 903 q 193 958 193 925 q 215 1013 193 992 q 272 1035 238 1035 q 328 1013 307 1035 q 350 958 350 992 q 328 903 350 925 q 272 882 307 882 q 215 903 238 882 m 422 903 q 411 914 422 903 q 400 958 400 925 q 422 1013 400 992 q 479 1035 444 1035 q 535 1013 513 1035 q 557 958 557 992 q 535 903 557 925 q 479 882 513 882 q 422 903 444 882 m 696 0 l 557 -4 l 557 158 q 290 -10 478 -10 q 118 41 181 -10 q 56 179 56 92 q 76 266 56 226 q 128 332 97 306 q 206 381 158 358 q 291 415 253 403 q 382 442 329 428 l 551 485 l 551 539 q 383 746 551 746 q 222 686 296 746 q 110 490 147 626 l 104 708 q 386 794 226 794 q 580 735 508 794 q 651 557 651 675 l 651 149 q 696 0 651 33 m 315 39 q 476 103 404 39 q 551 282 547 167 l 551 438 l 389 393 q 315 370 343 381 q 248 338 288 360 q 188 278 208 315 q 168 190 168 240 q 207 81 168 122 q 315 39 246 39 z "},"Ǡ":{"ha":1046,"x_min":35,"x_max":1010,"o":"m 714 1346 l 714 1306 l 328 1306 l 328 1346 l 714 1346 m 464 1098 q 453 1109 464 1098 q 442 1153 442 1119 q 464 1208 442 1186 q 521 1229 486 1229 q 577 1208 556 1229 q 599 1153 599 1186 q 577 1098 599 1119 q 521 1076 556 1076 q 464 1098 486 1076 m 799 0 q 806 139 860 24 l 711 343 l 279 343 l 190 142 q 185 0 138 21 l 35 0 q 84 47 57 7 q 165 208 111 86 l 500 965 l 528 965 l 928 107 q 1010 0 972 11 l 799 0 m 299 388 l 692 388 l 490 824 l 299 388 z "},"ǡ":{"ha":756,"x_min":56,"x_max":696,"o":"m 567 1164 l 567 1124 l 183 1124 l 183 1164 l 567 1164 m 317 903 q 306 914 317 903 q 294 958 294 925 q 317 1013 294 992 q 374 1035 339 1035 q 430 1013 408 1035 q 451 958 451 992 q 430 903 451 925 q 374 882 408 882 q 317 903 339 882 m 696 0 l 557 -4 l 557 158 q 290 -10 478 -10 q 118 41 181 -10 q 56 179 56 92 q 76 266 56 226 q 128 332 97 306 q 206 381 158 358 q 291 415 253 403 q 382 442 329 428 l 551 485 l 551 539 q 383 746 551 746 q 222 686 296 746 q 110 490 147 626 l 104 708 q 386 794 226 794 q 580 735 508 794 q 651 557 651 675 l 651 149 q 696 0 651 33 m 315 39 q 476 103 404 39 q 551 282 547 167 l 551 438 l 389 393 q 315 370 343 381 q 248 338 288 360 q 188 278 208 315 q 168 190 168 240 q 207 81 168 122 q 315 39 246 39 z "},"Ǣ":{"ha":1167,"x_min":35,"x_max":1090,"o":"m 729 1150 l 729 1110 l 343 1110 l 343 1150 l 729 1150 m 775 51 q 992 92 929 51 q 1090 257 1056 133 l 1065 0 l 490 0 q 529 52 517 15 q 535 181 542 89 l 524 326 l 269 326 l 194 142 q 192 0 144 21 l 35 0 q 63 17 50 6 q 103 76 76 29 q 165 208 129 124 l 488 965 l 1028 965 l 1058 717 q 955 875 1024 836 q 728 914 886 914 l 579 914 l 607 543 l 689 543 q 876 568 826 543 q 949 651 926 593 l 933 383 q 874 472 919 446 q 686 499 828 499 l 610 499 l 643 51 l 775 51 m 288 371 l 521 371 l 485 836 l 288 371 z "},"ǣ":{"ha":1303,"x_min":56,"x_max":1231,"o":"m 450 950 l 833 950 l 833 910 l 450 910 l 450 950 m 931 38 q 1110 103 1032 38 q 1231 299 1188 169 l 1218 104 q 1091 20 1169 51 q 929 -11 1013 -11 q 711 46 806 -11 q 586 182 617 103 q 472 43 547 96 q 289 -10 396 -10 q 119 42 183 -10 q 56 179 56 93 q 84 283 56 238 q 167 357 113 328 q 266 403 221 386 q 378 436 311 419 l 543 479 l 543 511 q 369 746 543 746 q 217 686 288 746 q 110 490 147 626 l 104 708 q 378 796 228 796 q 621 639 568 796 q 910 796 707 796 q 1138 714 1053 796 q 1228 472 1224 632 l 651 472 q 646 392 646 438 q 726 131 646 225 q 931 38 806 38 m 906 747 q 747 685 813 747 q 658 514 682 624 l 1118 514 q 1056 685 1111 624 q 906 747 1001 747 m 314 39 q 471 108 401 39 q 540 293 540 176 l 540 432 l 385 388 q 345 376 351 378 q 306 364 339 375 q 263 345 274 353 q 228 321 251 338 q 195 288 204 304 q 177 245 186 271 q 168 190 168 219 q 208 81 168 122 q 314 39 247 39 z "},"Ǧ":{"ha":1014,"x_min":75,"x_max":911,"o":"m 535 1067 l 529 1067 l 360 1286 l 374 1300 l 532 1172 l 692 1300 l 706 1286 l 535 1067 m 911 474 l 911 -8 l 824 69 q 542 -8 707 -8 q 211 133 347 -8 q 75 489 75 274 q 203 835 75 696 q 535 974 331 974 q 713 948 622 974 q 863 885 804 922 l 878 629 q 742 849 832 772 q 529 925 651 925 q 286 811 379 925 q 193 485 193 697 q 290 155 193 269 q 557 40 388 40 q 808 135 710 40 l 806 422 l 774 422 q 561 403 618 422 l 564 479 q 753 474 600 474 l 911 474 z "},"ǧ":{"ha":792,"x_min":7,"x_max":782,"o":"m 379 872 l 374 872 l 204 1092 l 218 1106 l 376 978 l 536 1106 l 550 1092 l 379 872 m 503 161 q 706 107 631 147 q 781 -22 781 67 q 675 -187 781 -128 q 389 -246 569 -246 q 110 -196 214 -246 q 7 -54 7 -146 q 238 100 7 85 q 99 225 99 124 q 140 299 99 271 q 238 332 182 328 q 103 547 103 401 q 183 724 103 656 q 393 793 264 793 q 563 751 490 793 q 613 854 571 819 q 704 889 654 889 q 760 872 739 889 q 782 828 782 856 q 764 786 782 803 q 719 769 746 769 q 674 785 699 769 q 635 800 649 800 q 589 733 600 800 q 682 547 682 665 q 601 369 682 439 q 393 299 521 299 q 333 303 363 299 q 286 306 303 306 q 195 291 231 306 q 160 249 160 276 q 192 206 160 219 q 297 183 225 192 l 503 161 m 385 750 q 252 697 301 750 q 203 561 203 643 q 257 406 203 469 q 401 342 311 342 q 533 394 483 342 q 583 531 583 447 q 528 687 583 624 q 385 750 474 750 m 390 -207 q 624 -165 543 -207 q 706 -57 706 -122 q 671 13 706 -17 q 580 54 636 42 q 475 72 524 67 q 378 78 426 78 q 100 -56 100 78 q 179 -168 100 -129 q 390 -207 258 -207 z "},"Ǩ":{"ha":979,"x_min":82,"x_max":942,"o":"m 511 1067 l 506 1067 l 336 1286 l 350 1300 l 508 1172 l 668 1300 l 682 1286 l 511 1067 m 767 201 q 942 0 919 13 l 753 0 q 733 71 753 35 q 660 178 713 107 q 539 334 636 207 q 396 518 442 461 l 260 393 l 260 178 q 275 50 260 86 q 333 0 290 14 l 82 0 q 142 49 126 13 q 157 178 157 86 l 157 788 q 142 916 157 879 q 82 965 126 953 l 333 965 q 275 915 290 951 q 260 788 260 879 l 260 450 l 649 814 q 743 965 765 922 l 915 965 q 679 779 831 919 l 467 583 q 590 426 475 572 q 767 201 704 279 z "},"ǩ":{"ha":822,"x_min":53,"x_max":807,"o":"m 406 1226 l 400 1226 l 231 1446 l 244 1460 l 403 1332 l 563 1460 l 576 1446 l 406 1226 m 807 0 l 625 0 q 553 146 644 28 l 349 411 l 225 300 l 225 149 q 297 0 225 22 l 53 0 q 110 48 94 11 q 125 149 125 85 l 125 908 q 90 1035 125 1007 l 225 1051 l 225 357 l 540 642 q 639 785 643 733 l 779 785 q 546 588 742 764 l 424 478 l 679 151 q 807 0 796 3 z "},"Ǫ":{"ha":1081,"x_min":75,"x_max":1006,"o":"m 622 -4 q 513 -144 513 -69 q 571 -201 513 -201 q 627 -180 600 -201 q 668 -121 654 -158 l 661 -224 q 560 -251 622 -251 q 483 -226 515 -251 q 451 -154 451 -200 q 571 -10 451 -76 q 540 -11 560 -11 q 203 130 332 -11 q 75 483 75 271 q 203 837 75 696 q 540 978 332 978 q 877 837 749 978 q 1006 483 1006 696 q 901 158 1006 293 q 622 -4 797 24 m 288 813 q 241 756 288 813 q 193 483 193 699 q 288 154 193 268 q 540 40 383 40 q 792 154 697 40 q 888 483 888 268 q 792 813 888 699 q 540 926 697 926 q 288 813 383 926 z "},"ǫ":{"ha":900,"x_min":51,"x_max":849,"o":"m 849 393 l 849 392 q 760 132 849 240 q 532 -3 671 24 q 419 -144 419 -68 q 478 -201 419 -201 q 534 -180 507 -201 q 575 -121 561 -158 l 568 -224 q 467 -251 529 -251 q 390 -226 422 -251 q 358 -154 358 -200 q 478 -10 358 -76 q 450 -11 468 -11 q 166 103 281 -11 q 51 392 51 218 l 51 393 q 166 681 51 567 q 450 796 281 796 q 734 681 619 796 q 849 393 849 567 m 244 137 q 284 87 244 137 q 450 38 324 38 q 656 137 576 38 q 736 393 736 236 q 656 648 736 549 q 450 747 576 747 q 244 648 324 747 q 164 393 164 549 q 244 137 164 236 z "},"Ǭ":{"ha":1081,"x_min":75,"x_max":1006,"o":"m 735 1150 l 735 1110 l 349 1110 l 349 1150 l 735 1150 m 622 -4 q 513 -144 513 -69 q 571 -201 513 -201 q 627 -180 600 -201 q 668 -121 654 -158 l 661 -224 q 560 -251 622 -251 q 483 -226 515 -251 q 451 -154 451 -200 q 571 -10 451 -76 q 540 -11 560 -11 q 203 130 332 -11 q 75 483 75 271 q 203 837 75 696 q 540 978 332 978 q 877 837 749 978 q 1006 483 1006 696 q 901 158 1006 293 q 622 -4 797 24 m 288 813 q 241 756 288 813 q 193 483 193 699 q 288 154 193 268 q 540 40 383 40 q 792 154 697 40 q 888 483 888 268 q 792 813 888 699 q 540 926 697 926 q 288 813 383 926 z "},"ǭ":{"ha":900,"x_min":51,"x_max":849,"o":"m 642 950 l 642 910 l 258 910 l 258 950 l 642 950 m 849 393 l 849 392 q 760 132 849 240 q 532 -3 671 24 q 419 -144 419 -68 q 478 -201 419 -201 q 534 -180 507 -201 q 575 -121 561 -158 l 568 -224 q 467 -251 529 -251 q 390 -226 422 -251 q 358 -154 358 -200 q 478 -10 358 -76 q 450 -11 468 -11 q 166 103 281 -11 q 51 392 51 218 l 51 393 q 166 681 51 567 q 450 796 281 796 q 734 681 619 796 q 849 393 849 567 m 244 137 q 284 87 244 137 q 450 38 324 38 q 656 137 576 38 q 736 393 736 236 q 656 648 736 549 q 450 747 576 747 q 244 648 324 747 q 164 393 164 549 q 244 137 164 236 z "},"ǰ":{"ha":317,"x_min":-11,"x_max":335,"o":"m 164 872 l 158 872 l -11 1092 l 3 1106 l 161 978 l 321 1106 l 335 1092 l 164 872 m 113 619 q 74 781 113 733 l 213 793 l 213 92 q 169 -153 213 -74 q 31 -261 125 -233 q 96 -121 79 -197 q 113 101 113 -44 l 113 619 z "},"Ǵ":{"ha":1014,"x_min":75,"x_max":911,"o":"m 700 1289 l 547 1056 l 525 1056 l 594 1289 l 700 1289 m 911 474 l 911 -8 l 824 69 q 542 -8 707 -8 q 211 133 347 -8 q 75 489 75 274 q 203 835 75 696 q 535 974 331 974 q 713 948 622 974 q 863 885 804 922 l 878 629 q 742 849 832 772 q 529 925 651 925 q 286 811 379 925 q 193 485 193 697 q 290 155 193 269 q 557 40 388 40 q 808 135 710 40 l 806 422 l 774 422 q 561 403 618 422 l 564 479 q 753 474 600 474 l 911 474 z "},"ǵ":{"ha":792,"x_min":7,"x_max":782,"o":"m 542 1113 l 389 879 l 367 879 l 436 1113 l 542 1113 m 503 161 q 706 107 631 147 q 781 -22 781 67 q 675 -187 781 -128 q 389 -246 569 -246 q 110 -196 214 -246 q 7 -54 7 -146 q 238 100 7 85 q 99 225 99 124 q 140 299 99 271 q 238 332 182 328 q 103 547 103 401 q 183 724 103 656 q 393 793 264 793 q 563 751 490 793 q 613 854 571 819 q 704 889 654 889 q 760 872 739 889 q 782 828 782 856 q 764 786 782 803 q 719 769 746 769 q 674 785 699 769 q 635 800 649 800 q 589 733 600 800 q 682 547 682 665 q 601 369 682 439 q 393 299 521 299 q 333 303 363 299 q 286 306 303 306 q 195 291 231 306 q 160 249 160 276 q 192 206 160 219 q 297 183 225 192 l 503 161 m 385 750 q 252 697 301 750 q 203 561 203 643 q 257 406 203 469 q 401 342 311 342 q 533 394 483 342 q 583 531 583 447 q 528 687 583 624 q 385 750 474 750 m 390 -207 q 624 -165 543 -207 q 706 -57 706 -122 q 671 13 706 -17 q 580 54 636 42 q 475 72 524 67 q 378 78 426 78 q 100 -56 100 78 q 179 -168 100 -129 q 390 -207 258 -207 z "},"Ǹ":{"ha":1086,"x_min":79,"x_max":1011,"o":"m 572 1056 l 550 1056 l 397 1289 l 503 1289 l 572 1056 m 808 965 l 1011 965 q 952 908 968 949 q 936 788 936 867 l 936 0 l 913 0 l 207 846 l 207 178 q 223 58 207 99 q 282 0 239 17 l 79 0 q 138 56 122 17 q 154 178 154 96 l 154 801 q 138 915 154 878 q 79 965 122 951 l 242 965 l 883 178 l 883 788 q 867 909 883 869 q 808 965 851 949 z "},"ǹ":{"ha":935,"x_min":57,"x_max":892,"o":"m 500 879 l 478 879 l 325 1113 l 431 1113 l 500 879 m 647 0 q 704 48 689 11 q 719 149 719 85 l 719 515 q 511 740 719 740 q 313 656 390 740 q 229 415 235 572 l 229 149 q 301 0 229 22 l 57 0 q 114 48 99 11 q 129 149 129 85 l 129 619 q 90 781 129 733 l 229 793 l 229 603 q 533 796 308 796 q 741 735 663 796 q 819 540 819 674 l 819 149 q 892 0 819 22 l 647 0 z "},"Ǻ":{"ha":1046,"x_min":35,"x_max":1010,"o":"m 688 1564 l 535 1331 l 513 1331 l 582 1564 l 688 1564 m 521 1058 q 421 1096 460 1058 q 382 1192 382 1133 q 421 1288 382 1250 q 521 1325 460 1325 q 619 1288 581 1325 q 658 1192 658 1250 q 619 1096 658 1133 q 521 1058 581 1058 m 521 1297 q 446 1268 475 1297 q 417 1192 417 1239 q 446 1115 417 1144 q 521 1086 475 1086 q 594 1115 565 1086 q 624 1192 624 1144 q 594 1268 624 1239 q 521 1297 565 1297 m 799 0 q 806 139 860 24 l 711 343 l 279 343 l 190 142 q 185 0 138 21 l 35 0 q 84 47 57 7 q 165 208 111 86 l 500 965 l 528 965 l 928 107 q 1010 0 972 11 l 799 0 m 299 388 l 692 388 l 490 824 l 299 388 z "}}}
